<svg xmlns="http://www.w3.org/2000/svg" xmlns:xlink="http://www.w3.org/1999/xlink" width="66.075" height="66.082" viewBox="0 0 66.075 66.082">
  <defs>
    <clipPath id="clip-path">
      <rect id="Rectángulo_1047" data-name="Rectángulo 1047" width="66.075" height="66.082" transform="translate(0 0)" fill="#949d97"/>
    </clipPath>
  </defs>
  <g id="Grupo_1529" data-name="Grupo 1529" transform="translate(0 0)">
    <g id="Grupo_1529-2" data-name="Grupo 1529" clip-path="url(#clip-path)">
      <path id="Trazado_980" data-name="Trazado 980" d="M36.655,66.082H.783A1.6,1.6,0,0,1,0,64.457Q.016,33.065.009,1.673C.009.309.316,0,1.673,0H35.8c.129,0,.259,0,.387,0a1.137,1.137,0,0,1,1.25,1.238c.01.311,0,.623,0,.959h.879q13.095,0,26.191-.01a1.619,1.619,0,0,1,1.568.78V63.114a1.618,1.618,0,0,1-1.565.78q-13.139-.022-26.276-.01H37.5c-.2,1.75-.2,1.75-.841,2.2M2.226,63.836H35.2V2.247H2.226Zm35.241-2.2H63.83V4.44H37.467Z" fill="#949d97"/>
      <path id="Trazado_981" data-name="Trazado 981" d="M61.679,19.231q0,5.55,0,11.1c0,1.265-.336,1.605-1.606,1.605q-9.418,0-18.838,0c-1.261,0-1.6-.344-1.6-1.618q0-11.034,0-22.069c0-1.309.339-1.651,1.64-1.651H60.052c1.286,0,1.626.349,1.627,1.663v10.97M41.868,22.546l.118.045c.7-1.05,1.4-2.1,2.106-3.149a1.173,1.173,0,0,1,2.122,0c.938,1.388,1.862,2.785,2.793,4.178.159.238.323.473.518.758.17-.255.292-.428.4-.607q2.014-3.224,4.028-6.446a1.191,1.191,0,0,1,2.22.011c.95,1.508,1.89,3.022,2.837,4.532.108.172.23.335.418.607V8.854H41.868Zm.011,7.123H59.431v-2.1H41.879Zm9.712-4.4h6.95L55.061,19.7c-1.179,1.893-2.309,3.7-3.47,5.567m-6.447-3.441-2.276,3.436h4.584c-.658-.989-1.263-1.9-1.87-2.808-.118-.177-.243-.349-.438-.628" fill="#949d97"/>
      <rect id="Rectángulo_1033" data-name="Rectángulo 1033" width="19.714" height="2.118" transform="translate(40.814 40.803)" fill="#949d97"/>
      <rect id="Rectángulo_1034" data-name="Rectángulo 1034" width="19.722" height="2.122" transform="translate(40.787 51.799)" fill="#949d97"/>
      <rect id="Rectángulo_1035" data-name="Rectángulo 1035" width="19.707" height="2.116" transform="translate(40.948 46.294)" fill="#949d97"/>
      <rect id="Rectángulo_1036" data-name="Rectángulo 1036" width="13.123" height="2.138" transform="translate(44.098 35.282)" fill="#949d97"/>
      <rect id="Rectángulo_1037" data-name="Rectángulo 1037" width="2.117" height="2.117" transform="translate(45.198 57.334)" fill="#949d97"/>
      <rect id="Rectángulo_1038" data-name="Rectángulo 1038" width="2.104" height="2.141" transform="translate(49.611 57.328)" fill="#949d97"/>
      <rect id="Rectángulo_1039" data-name="Rectángulo 1039" width="2.136" height="2.108" transform="translate(53.991 57.335)" fill="#949d97"/>
      <path id="Trazado_982" data-name="Trazado 982" d="M49.587,17.608a3.295,3.295,0,1,1,3.267-3.3,3.3,3.3,0,0,1-3.267,3.3m-.013-4.366a1.075,1.075,0,1,0-.032,2.15,1.055,1.055,0,0,0,1.089-1.025,1.068,1.068,0,0,0-1.057-1.125" fill="#949d97"/>
      <path id="Trazado_983" data-name="Trazado 983" d="M29.593,18.1q0,5.55,0,11.1c0,1.265-.336,1.6-1.606,1.6q-9.418,0-18.838,0c-1.261,0-1.6-.344-1.6-1.618q0-11.034,0-22.069c0-1.309.339-1.651,1.64-1.651q9.387,0,18.774,0c1.286,0,1.626.349,1.627,1.663V18.1M9.782,21.419l.118.045c.7-1.05,1.4-2.1,2.106-3.149a1.173,1.173,0,0,1,2.122-.005c.938,1.388,1.862,2.785,2.793,4.178.159.238.323.473.518.758.17-.255.292-.428.4-.607q2.015-3.224,4.028-6.446a1.191,1.191,0,0,1,2.22.011c.95,1.508,1.89,3.022,2.837,4.532.108.172.23.335.418.607V7.727H9.782Zm.011,7.123H27.345V26.447H9.793Zm9.712-4.4h6.95l-3.48-5.567c-1.179,1.893-2.309,3.7-3.47,5.567M13.058,20.7l-2.276,3.436h4.584c-.658-.989-1.263-1.9-1.87-2.808-.118-.177-.243-.349-.438-.628" fill="#949d97"/>
      <rect id="Rectángulo_1040" data-name="Rectángulo 1040" width="19.714" height="2.118" transform="translate(8.729 39.676)" fill="#949d97"/>
      <rect id="Rectángulo_1041" data-name="Rectángulo 1041" width="19.722" height="2.122" transform="translate(8.702 50.672)" fill="#949d97"/>
      <rect id="Rectángulo_1042" data-name="Rectángulo 1042" width="19.707" height="2.116" transform="translate(8.862 45.167)" fill="#949d97"/>
      <rect id="Rectángulo_1043" data-name="Rectángulo 1043" width="13.123" height="2.138" transform="translate(12.013 34.155)" fill="#949d97"/>
      <rect id="Rectángulo_1044" data-name="Rectángulo 1044" width="2.117" height="2.117" transform="translate(13.112 56.207)" fill="#949d97"/>
      <rect id="Rectángulo_1045" data-name="Rectángulo 1045" width="2.104" height="2.141" transform="translate(17.526 56.201)" fill="#949d97"/>
      <rect id="Rectángulo_1046" data-name="Rectángulo 1046" width="2.136" height="2.108" transform="translate(21.905 56.208)" fill="#949d97"/>
      <path id="Trazado_984" data-name="Trazado 984" d="M17.5,16.481a3.295,3.295,0,1,1,3.267-3.3,3.3,3.3,0,0,1-3.267,3.3m-.013-4.366a1.075,1.075,0,1,0-.032,2.15,1.055,1.055,0,0,0,1.089-1.025,1.068,1.068,0,0,0-1.057-1.125" fill="#949d97"/>
    </g>
  </g>
</svg>
