<svg id="Grupo_1527" data-name="Grupo 1527" xmlns="http://www.w3.org/2000/svg" xmlns:xlink="http://www.w3.org/1999/xlink" width="66.927" height="66.921" viewBox="0 0 66.927 66.921">
  <defs>
    <clipPath id="clip-path">
      <rect id="Rectángulo_1031" data-name="Rectángulo 1031" width="66.927" height="66.921" transform="translate(0 0)" fill="#949d97"/>
    </clipPath>
  </defs>
  <g id="Grupo_1527-2" data-name="Grupo 1527" clip-path="url(#clip-path)">
    <path id="Trazado_969" data-name="Trazado 969" d="M66.914,55.341a1.334,1.334,0,0,0-1.493-1.492c-.781-.009-1.561,0-2.425,0v-.8q0-14.766,0-29.533a6.494,6.494,0,0,0-4.863-6.545,10.046,10.046,0,0,0-1.87-.232c-.516-.037-1.036-.008-1.629-.008v-.746c0-2.113.033-4.226-.027-6.337a2.233,2.233,0,0,0-.567-1.375C51.514,5.683,48.945,3.139,46.382.59A7.3,7.3,0,0,0,45.614,0H13.2a1.76,1.76,0,0,0-.926,1.778c.026,4.726.013,9.453.013,14.18v.827a18.912,18.912,0,0,0-2.646.018A6.476,6.476,0,0,0,3.923,23.49q-.009,14.736,0,29.471v.886c-.727,0-1.438.041-2.143-.01A1.7,1.7,0,0,0,0,54.762V61.3a1.635,1.635,0,0,1,.12.289,6.514,6.514,0,0,0,6.509,5.327c5.51.015,11.02,0,16.53,0q18.49,0,36.98,0a6.477,6.477,0,0,0,6.568-5,12.065,12.065,0,0,0,.2-2.461c.03-1.371.015-2.744.005-4.116M46.591,4.729l3.282,3.312H46.591ZM14.939,2.648h29v4.46c0,.675-.008,1.35,0,2.025a1.383,1.383,0,0,0,1.578,1.557c2.134.009,4.268,0,6.45,0V47.574H51.3l-3.947,0c-.015,0-.028,0-.043,0l-1.772,0c-1.978,0-3.956,0-5.934,0-.028,0-.052.005-.079.005-8.595,0-21.128,0-23.845,0h-.744Zm-8.4,50.461q0-14.735,0-29.469a3.957,3.957,0,0,1,4.314-4.3c.453,0,.907,0,1.438,0v.809q0,14.114,0,28.227c0,1.419.4,1.809,1.834,1.809H40.2c.693.005,1.387,0,2.08,0H52.856c1.374,0,1.775-.409,1.775-1.8q0-14.082,0-28.163v-.847a19.361,19.361,0,0,1,2.343.015,3.864,3.864,0,0,1,3.4,3.855c.024,2.264.007,4.53.007,6.8V53.8H6.535Zm57.651,8a3.722,3.722,0,0,1-3.81,3.188c-2.091.018-4.182.005-6.272.005q-23.654,0-47.306,0a3.9,3.9,0,0,1-4.155-3.577c-.083-1.386-.016-2.782-.016-4.24h61.6a38.294,38.294,0,0,1-.037,4.625" fill="#949d97"/>
    <path id="Trazado_970" data-name="Trazado 970" d="M19.8,31.6q13.656,0,27.314,0c1.35,0,1.773-.418,1.774-1.745q0-6.894,0-13.788c0-1.314-.4-1.718-1.71-1.718q-6.828,0-13.657,0-6.862,0-13.723,0c-1.345,0-1.753.409-1.753,1.753q0,6.861,0,13.723c0,1.328.439,1.774,1.755,1.774m5.512-2.655h-4.6V24.3h4.6Zm13.606-.007H28.02V24.317h10.9Zm7.324,0H41.63V24.331h4.614ZM41.592,17.02h4.644v4.6H41.592Zm-13.578-.008h10.91v4.615H28.014ZM20.7,17h4.627v4.624H20.7Z" fill="#949d97"/>
    <path id="Trazado_971" data-name="Trazado 971" d="M46.361,37.39c.413,0,.828.013,1.24-.007a1.272,1.272,0,0,0,1.282-1.221,1.3,1.3,0,0,0-1.2-1.374,4.323,4.323,0,0,0-.522-.011q-13.677,0-27.354,0a3.4,3.4,0,0,0-.714.044,1.293,1.293,0,0,0,.178,2.558c.216.019.435.01.652.01h26.44" fill="#949d97"/>
    <path id="Trazado_972" data-name="Trazado 972" d="M47.438,40.531c-2.346-.011-13.692-.011-16.038,0a1.31,1.31,0,1,0,.022,2.606c1.173.01,11.346,0,12.519,0,1.151,0,2.3.006,3.454,0,.918-.006,1.478-.494,1.489-1.277a1.309,1.309,0,0,0-1.446-1.331" fill="#949d97"/>
    <path id="Trazado_973" data-name="Trazado 973" d="M37.139,59.078q-3.691-.009-7.384,0a1.32,1.32,0,1,0,.02,2.61c1.219.007,2.439,0,3.659,0,1.242,0,2.483.007,3.725,0a1.315,1.315,0,1,0-.02-2.609" fill="#949d97"/>
  </g>
</svg>
