<svg xmlns="http://www.w3.org/2000/svg" xmlns:xlink="http://www.w3.org/1999/xlink" width="72.42" height="72.428" viewBox="0 0 72.42 72.428">
  <defs>
    <clipPath id="clip-path">
      <rect id="Rectángulo_1032" data-name="Rectángulo 1032" width="72.42" height="72.428" transform="translate(0 0)" fill="#949d97" stroke="#969d97" stroke-width="0.5"/>
    </clipPath>
  </defs>
  <g id="Grupo_1528" data-name="Grupo 1528" transform="translate(0 0)">
    <g id="Grupo_1528-2" data-name="Grupo 1528" clip-path="url(#clip-path)">
      <path id="Trazado_974" data-name="Trazado 974" d="M70.3,70.3v-.81c0-4.879.021-9.758-.007-14.636a10.372,10.372,0,0,0-6.614-10.1c-1.67-.749-3.364-1.445-5.178-2.222a8.78,8.78,0,0,0,4.352-3.267,8.408,8.408,0,0,0-.239-10.139,12.437,12.437,0,0,1-2.814-8.3,45.289,45.289,0,0,0-.286-7.117A16.522,16.522,0,0,0,46.213.282C45.706.2,45.2.095,44.7,0H41.586a2.969,2.969,0,0,1-.464.13A16.571,16.571,0,0,0,27.2,11.958a27.042,27.042,0,0,0-.7,4.8,25.6,25.6,0,0,0-.011,3.674,12.526,12.526,0,0,1-2.93,8.687A8.537,8.537,0,0,0,27.12,42.305c.175.072.344.162.617.292-1.869.816-3.621,1.56-5.357,2.342a10.3,10.3,0,0,0-6.511,9.949c-.049,3.81-.014,11.358-.008,15.409H1.642a3.7,3.7,0,0,0-.775.029.994.994,0,0,0-.852.988,1,1,0,0,0,.838,1.071,2.558,2.558,0,0,0,.633.032q34.722,0,69.444.011a1.547,1.547,0,0,0,1.49-.717V71c-.46-.844-1.281-.719-2.121-.7M60.985,30.478a6.432,6.432,0,0,1-3.167,10.008,6.677,6.677,0,0,1-6.268-1.124,4.717,4.717,0,0,1-1.707-2.615.616.616,0,0,1,.325-.805A10.2,10.2,0,0,0,55.092,28.7a14.808,14.808,0,0,0,.154-2.394c.019-2.378.006-4.757.006-7.245H57.7c0,.482.014,1.012,0,1.54a14.89,14.89,0,0,0,.718,5.431,16.247,16.247,0,0,0,2.566,4.441M52.792,45.612a39.177,39.177,0,0,1-20.052.04c-.362-.093-.539-.224-.549-.653-.044-2-.073-2.028,1.771-2.786A7.192,7.192,0,0,0,38.448,37.1a27.726,27.726,0,0,0,9.29-.01c.681,2.79,2.566,4.388,5.15,5.362,1.354.511,1.085.219,1.084,1.587,0,1.529.258,1.19-1.18,1.569m1.146,1.9v2.719H32.244c-.014-.213-.037-.4-.038-.583-.005-.608,0-1.216,0-1.933a42.928,42.928,0,0,0,10.888,1.343,42.108,42.108,0,0,0,10.846-1.546M52.822,5.8a14.659,14.659,0,0,1,4.889,11,28.726,28.726,0,0,1-3.4-.025,10.412,10.412,0,0,1-4.878-1.922c-.709-.511-1.352-.471-1.731.08s-.2,1.135.526,1.662a12.109,12.109,0,0,0,4.334,2c.47.112.589.317.582.768-.024,1.555,0,3.111-.018,4.666a2.276,2.276,0,0,1-.2.878,7.484,7.484,0,0,1-3.94,3.843c-.806-1.436-2.15-1.734-3.677-1.636-.587.038-1.179-.008-1.767.024a3.086,3.086,0,0,0-2.9,2.94,3.007,3.007,0,0,0,2.548,3.161,18.174,18.174,0,0,0,3.452.034,2.973,2.973,0,0,0,2.449-1.8,2.157,2.157,0,0,1,.693-.711,29.356,29.356,0,0,1,3.223-1.954,20.215,20.215,0,0,1-1.12,2.5,7.588,7.588,0,0,1-6.136,3.9,26.158,26.158,0,0,1-6.393-.2,7.934,7.934,0,0,1-6.28-7.649c-.072-2.685-.007-5.374-.036-8.06-.006-.522.3-.552.655-.615a28.132,28.132,0,0,0,13.116-6.073A28.384,28.384,0,0,0,52.343,6.5c.144-.214.291-.425.479-.7m-6.5,23.461a.9.9,0,0,1,.9.911.86.86,0,0,1-.8.99,22.47,22.47,0,0,1-2.807.01.868.868,0,0,1-.827-.972.907.907,0,0,1,.935-.946c.421-.021.845,0,1.267,0v0c.446,0,.893-.023,1.336.006M35.215,4.5a14.36,14.36,0,0,1,15.843-.007c-4.842,8.324-14.946,13.062-22.471,12.252A14.407,14.407,0,0,1,35.215,4.5M25.64,38.792a6.473,6.473,0,0,1-.22-8.638,13.651,13.651,0,0,0,3.179-9.2c-.022-.632,0-1.265,0-1.972h2.337c0,.289,0,.542,0,.794,0,2.5-.043,5,.022,7.492a10.078,10.078,0,0,0,4.953,8.617.766.766,0,0,1,.382,1.032,4.948,4.948,0,0,1-1.934,2.7,6.812,6.812,0,0,1-8.716-.823M24.554,70.3H17.98c0-3.979-.019-11.574.006-15.369a8.269,8.269,0,0,1,5.258-8.058c2.041-.912,4.1-1.786,6.151-2.674.2-.087.41-.151.621-.228v6.325c-1.054,0-2.042-.013-3.03,0a3.117,3.117,0,0,0-3.247,3.581c.392,3.962.829,7.919,1.245,11.878.157,1.491.308,2.982.469,4.542Zm36.814-16.22q-.839,7.977-1.7,15.952a1.315,1.315,0,0,1-.073.229H27.591c-.478-4.5-.95-8.95-1.421-13.4-.1-.984-.214-1.968-.3-2.953-.1-1.143.224-1.488,1.394-1.489q6.222-.006,12.446,0,10.077,0,20.154,0c1.319,0,1.644.346,1.505,1.662m6.809,15.575v.6H61.793c.115-1.156.222-2.294.343-3.431.45-4.216.921-8.43,1.352-12.648.251-2.46-1.082-3.878-3.579-3.88-1.244,0-2.488,0-3.769,0V43.844c.565.239,1.078.455,1.589.674,1.774.76,3.561,1.489,5.317,2.289a8.113,8.113,0,0,1,5.117,7.781c.056,5.021.014,10.042.014,15.063" fill="#949d97" stroke="#969d97" stroke-width="0.5"/>
      <path id="Trazado_975" data-name="Trazado 975" d="M13.58,0c.708.161,1.427.285,2.123.489a12.3,12.3,0,0,1,5.7,20.085c-.123.138-.24.281-.4.468.47.286.914.543,1.346.82a1.455,1.455,0,0,1-.77,2.739c-3.252.007-6.506.072-9.755-.02A12.438,12.438,0,0,1,.017,13.018,12.327,12.327,0,0,1,10.565.127,3.578,3.578,0,0,0,11.034,0Zm5.5,22.612c-.883-1.507-.822-1.9.327-3.033A10.176,10.176,0,1,0,2.133,11.752a9.93,9.93,0,0,0,7.93,10.4,73.652,73.652,0,0,0,9.022.458" fill="#949d97" stroke="#969d97" stroke-width="0.5"/>
      <path id="Trazado_976" data-name="Trazado 976" d="M43.648,65.366a4.028,4.028,0,1,1-.026-8.055,4.075,4.075,0,0,1,4.031,3.99,4.029,4.029,0,0,1-4.005,4.065M43.6,63.24a1.907,1.907,0,0,0,1.924-1.86,1.943,1.943,0,0,0-1.93-1.942,1.919,1.919,0,0,0-1.875,1.914A1.874,1.874,0,0,0,43.6,63.24" fill="#949d97" stroke="#969d97" stroke-width="0.5"/>
      <path id="Trazado_977" data-name="Trazado 977" d="M8.074,11.258a1.042,1.042,0,1,1-1.057.994,1.023,1.023,0,0,1,1.057-.994" fill="#949d97" stroke="#969d97" stroke-width="0.5"/>
      <path id="Trazado_978" data-name="Trazado 978" d="M13.343,12.268a1.042,1.042,0,0,1-2.083.066,1.028,1.028,0,0,1,1.045-1.076,1.017,1.017,0,0,1,1.038,1.01" fill="#949d97" stroke="#969d97" stroke-width="0.5"/>
      <path id="Trazado_979" data-name="Trazado 979" d="M16.538,13.341a1.042,1.042,0,1,1,1.049-1,1.022,1.022,0,0,1-1.049,1" fill="#949d97" stroke="#969d97" stroke-width="0.5"/>
    </g>
  </g>
</svg>
