<svg xmlns="http://www.w3.org/2000/svg" xmlns:xlink="http://www.w3.org/1999/xlink" width="85.683" height="66.861" viewBox="0 0 85.683 66.861">
  <defs>
    <clipPath id="clip-path">
      <rect id="Rectángulo_1029" data-name="Rectángulo 1029" width="85.683" height="66.861" transform="translate(0 0)" fill="#949d97"/>
    </clipPath>
  </defs>
  <g id="Grupo_1526" data-name="Grupo 1526" transform="translate(0 0)">
    <g id="Grupo_1526-2" data-name="Grupo 1526" clip-path="url(#clip-path)">
      <path id="Trazado_965" data-name="Trazado 965" d="M84.379,64.349c-.434-.025-.87,0-1.366,0v-1.1c0-8.591,0-23.854,0-32.744a8.451,8.451,0,0,1,.068-1.245c.434,0,.874.016,1.312,0a1.212,1.212,0,0,0,1.279-1.175,1.252,1.252,0,0,0-1.244-1.3,7.056,7.056,0,0,0-.836-.023q-8.408,0-16.817-.011A2.471,2.471,0,0,1,65.58,26.5q-10.5-6.138-20.968-12.328c-.2-.116-.464-.331-.472-.51-.045-1.042-.022-2.087-.022-3.186,2.651,0,5.157,0,7.663,0,1.288,0,1.716-.416,1.724-1.691q.018-2.887,0-5.775c-.008-1.324-.44-1.747-1.769-1.75-2.259-.006-4.518-.009-6.777,0-.5,0-.831-.023-1.061-.624A1.415,1.415,0,0,0,42.706,0c-.379.045-.771.529-1.021.91a1.97,1.97,0,0,0-.092.982c0,3.71-.02,7.42.013,11.13a1.3,1.3,0,0,1-.761,1.308c-6.808,3.978-13.6,7.992-20.4,11.969a3.276,3.276,0,0,1-1.56.428q-8.451.045-16.9.011A2.209,2.209,0,0,0,0,27.524v.837c.534,1.156,1.625.839,2.68.941v.98c0,7.028,0,24.057,0,31.085,0,.171,0,.343,0,.514,0,.668,0,1.336,0,2,0,.109-.018.219-.036.416-.924.132-2.065-.25-2.642.888v.837a1.953,1.953,0,0,0,1.866.835q41-.017,81.993-.01a4.958,4.958,0,0,0,.585-.013A1.287,1.287,0,0,0,85.682,65.6a1.266,1.266,0,0,0-1.3-1.25M44.157,3.809h6.771V7.9H44.157Zm-18.578,22.4q8.319-4.9,16.64-9.8a.962.962,0,0,1,1.135-.086q8.484,5.029,16.992,10.021c.112.066.213.15.513.362H24.878c.33-.238.5-.387.7-.5m-.226,3.107H60.341v2.746H25.353ZM57.7,37.1V58.909H54.92V34.7c2.784-.271,2.784-.271,2.784,2.4m-10.867,7h5.451v4.077H46.837Zm5.447,14.8H46.845V50.8h5.439ZM51.761,41.54c-1.477-.017-2.954.009-4.43-.026-.182-.005-.51-.281-.513-.435-.034-2.11-.023-4.22-.023-6.437,1.769,0,3.384.009,5-.006.465,0,.549.232.547.627q-.017,2.843,0,5.686c0,.426-.141.6-.58.591m-7.547-6.9V58.914h-2.72V34.7c.231-.02.448-.052.665-.055.664-.007,1.328,0,2.055,0M38.456,48.22c-1.662.031-3.324.02-5.042.02V44.092H38.9c0,1.258.016,2.473-.019,3.687a.627.627,0,0,1-.423.441m.385,10.71H33.417V50.8h5.424Zm-5.46-17.893q-.05-2.967,0-5.935a.626.626,0,0,1,.431-.437c1.663-.032,3.326-.02,5.087-.02,0,2.21.011,4.319-.023,6.428,0,.156-.327.436-.508.44q-2.256.054-4.513,0a.682.682,0,0,1-.473-.474M27.971,35.6c0-.776.211-1.047.978-.97.578.058,1.167.011,1.824.011v24.29H27.989v-.91c0-7.474.012-14.947-.018-22.421M5.191,29.337h17.6v3.207c0,1.757.288,2.055,2,2.1.192.005.383.03.626.05V58.917H19.94V56.061c0-2.064.006-4.128,0-6.192,0-1.2-.415-1.616-1.6-1.622q-2.97-.017-5.94,0c-1.268.006-1.673.427-1.675,1.733-.005,2.955,0,5.91,0,8.931H5.191V29.337ZM17.378,58.929H13.271v-8.11h4.107Zm5.347,5.356H5.212V61.557H22.725Zm37.606-.018H25.349V61.544H60.331Zm20.125.009H62.938V61.537H80.456ZM68.338,50.793H72.4v8.13H68.338ZM80.5,58.92H74.97v-.963c0-2.678,0-5.355,0-8.033,0-1.243-.423-1.671-1.647-1.678-1.925-.01-3.849-.006-5.773,0-1.425,0-1.792.363-1.794,1.765,0,2.678,0,5.355,0,8.033,0,.3-.025.589-.038.882h-5.45V34.7c.2-.023.365-.051.526-.057,1.866-.066,2.109-.314,2.11-2.162V29.329H80.448c.017.193.036.359.055.527,0,7.041,0,21.033,0,28.05Z" fill="#949d97"/>
      <path id="Trazado_966" data-name="Trazado 966" d="M70.24,33.5a4.557,4.557,0,0,0-4.48,4.656c-.029,1.448-.017,2.9,0,4.345.01,1.066.448,1.513,1.53,1.541,1,.025,2,0,3.008,0,1.059,0,2.118.024,3.175-.008.988-.029,1.474-.485,1.489-1.426.027-1.559.068-3.123-.018-4.679a4.55,4.55,0,0,0-4.7-4.434m2.209,7.995H68.3c0-1.308-.079-2.584.026-3.844a2.014,2.014,0,0,1,2.194-1.635,2.091,2.091,0,0,1,1.916,1.973c.051,1.136.012,2.277.012,3.506" fill="#949d97"/>
      <path id="Trazado_967" data-name="Trazado 967" d="M12.338,44.041c1,.021,2.005.005,3.008.005h2.005c2.481,0,2.6-.108,2.586-2.581a27.416,27.416,0,0,0-.126-4.334,4.448,4.448,0,0,0-4.973-3.6,4.568,4.568,0,0,0-4.1,4.516c-.057,1.446-.023,2.9-.013,4.345.008,1.167.454,1.626,1.612,1.649m.962-6.306a2.021,2.021,0,0,1,2.211-1.72,2.058,2.058,0,0,1,1.9,1.97c.036,1.137.008,2.276.008,3.508H13.274c0-1.28-.084-2.528.026-3.758" fill="#949d97"/>
    </g>
  </g>
</svg>
