<svg xmlns="http://www.w3.org/2000/svg" xmlns:xlink="http://www.w3.org/1999/xlink" width="189.552" height="71.019" viewBox="0 0 189.552 71.019"><defs><clipPath id="a"><rect width="189.552" height="71.019" fill="none"/></clipPath></defs><g clip-path="url(#a)"><path d="M85.641,130.691a22.105,22.105,0,0,1-16.212,7.055c-.057,0-.113,0-.169,0a22.105,22.105,0,0,1,16.212-7.055c.057,0,.113,0,.17,0" transform="translate(-42.243 -79.709)" fill="#fff"/><path d="M68.819,137.526l-.172,0a.39.39,0,0,1-.283-.656,22.64,22.64,0,0,1,16.5-7.179l.1,0,.068,0a.39.39,0,0,1,.283.656,22.638,22.638,0,0,1-16.5,7.179M84.1,130.481a21.872,21.872,0,0,0-14.515,6.251A21.87,21.87,0,0,0,84.1,130.481" transform="translate(-41.633 -79.099)" fill="#4c5b52"/><path d="M68.65,137.529a.39.39,0,0,1-.154-.749l16.381-7.05a.39.39,0,0,1,.309.717L68.8,137.5a.392.392,0,0,1-.154.032" transform="translate(-41.633 -79.106)" fill="#4c5b52"/><path d="M23.734,130.691a22.105,22.105,0,0,0,16.212,7.055c.057,0,.113,0,.169,0A22.105,22.105,0,0,0,23.9,130.687c-.057,0-.113,0-.17,0" transform="translate(-14.476 -79.709)" fill="#fff"/><path d="M39.335,137.526a22.638,22.638,0,0,1-16.5-7.179.39.39,0,0,1,.283-.656l.068,0,.1,0a22.64,22.64,0,0,1,16.5,7.179.39.39,0,0,1-.283.656Zm-15.279-7.046a21.87,21.87,0,0,0,14.515,6.251,21.872,21.872,0,0,0-14.515-6.251" transform="translate(-13.866 -79.099)" fill="#4c5b52"/><path d="M39.5,137.529a.392.392,0,0,1-.154-.032l-16.381-7.05a.39.39,0,0,1,.309-.717l16.381,7.05a.39.39,0,0,1-.154.749" transform="translate(-13.866 -79.106)" fill="#4c5b52"/><path d="M116.022,77.3a22.106,22.106,0,0,1-2.728,17.468c-.03.048-.064.093-.094.141a22.1,22.1,0,0,1,2.728-17.468c.03-.048.064-.093.094-.141" transform="translate(-68.603 -47.149)" fill="#fff"/><path d="M112.6,94.693a.415.415,0,0,1-.062,0,.39.39,0,0,1-.316-.287A22.642,22.642,0,0,1,115,76.626l.1-.144a.39.39,0,0,1,.7.114,22.64,22.64,0,0,1-2.776,17.776l-.1.143a.39.39,0,0,1-.328.179m2.66-17a21.872,21.872,0,0,0-2.5,15.605,21.874,21.874,0,0,0,2.5-15.605" transform="translate(-68.006 -46.539)" fill="#4c5b52"/><path d="M113.959,94.551a.4.4,0,0,1-.061,0,.39.39,0,0,1-.325-.445L116.3,76.632a.39.39,0,0,1,.77.121l-2.728,17.468a.39.39,0,0,1-.385.33" transform="translate(-69.268 -46.539)" fill="#4c5b52"/><path d="M90.908,36.337a22.1,22.1,0,0,1,12.27,12.729c.02.053.036.107.055.16A22.107,22.107,0,0,1,90.963,36.5c-.02-.053-.035-.107-.055-.16" transform="translate(-55.447 -22.163)" fill="#fff"/><path d="M102.624,49.007a.393.393,0,0,1-.15-.03A22.64,22.64,0,0,1,89.988,36.024l-.057-.164a.39.39,0,0,1,.516-.493A22.64,22.64,0,0,1,102.934,48.32l.056.163a.39.39,0,0,1-.366.523M91,36.462a21.868,21.868,0,0,0,10.925,11.419A21.874,21.874,0,0,0,91,36.462" transform="translate(-54.837 -21.553)" fill="#4c5b52"/><path d="M102.624,49.007a.39.39,0,0,1-.282-.121L90.017,36a.39.39,0,1,1,.564-.539l12.326,12.889a.39.39,0,0,1-.282.66" transform="translate(-54.837 -21.553)" fill="#4c5b52"/><path d="M24.452,36.023A22.1,22.1,0,0,0,12.31,48.874c-.02.053-.035.108-.054.161A22.106,22.106,0,0,0,24.4,36.184c.019-.054.035-.108.053-.161" transform="translate(-7.475 -21.971)" fill="#fff"/><path d="M11.646,48.816a.39.39,0,0,1-.368-.52l.021-.064c.011-.034.021-.067.034-.1A22.637,22.637,0,0,1,23.689,35.055a.39.39,0,0,1,.521.489l-.021.065c-.011.033-.021.066-.034.1A22.64,22.64,0,0,1,11.8,48.785a.389.389,0,0,1-.153.031m11.5-12.66A21.87,21.87,0,0,0,12.339,47.684,21.874,21.874,0,0,0,23.15,36.156" transform="translate(-6.865 -21.362)" fill="#4c5b52"/><path d="M11.647,49.067a.39.39,0,0,1-.284-.658L23.506,35.558a.39.39,0,0,1,.567.536L11.931,48.945a.39.39,0,0,1-.284.122" transform="translate(-6.866 -21.613)" fill="#4c5b52"/><path d="M30.429,30.626l-.461-4.347s8.9-3.272,14.923-3.272c0,0,9.48.764,13.988,2.944L58.462,30.4Z" transform="translate(-18.278 -14.032)" fill="#f4cd5c"/><path d="M30.124,30.516a.2.2,0,0,1-.194-.175L29.468,26a.2.2,0,0,1,.127-.2c.089-.033,9-3.284,14.99-3.284.111.008,9.585.793,14.072,2.963a.2.2,0,0,1,.11.194l-.417,4.445a.2.2,0,0,1-.193.177l-28.033.23Zm-.251-4.41.426,4.019,27.68-.227.387-4.134c-4.471-2.1-13.7-2.86-13.8-2.867-5.491,0-13.53,2.794-14.7,3.21" transform="translate(-17.973 -13.727)" fill="#4c5b52"/><path d="M59.364,38.6c-3.225-2.012-7.959-3.339-14.223-3.339s-11,1.327-14.223,3.339Z" transform="translate(-18.857 -21.505)" fill="#da302b"/><path d="M59.06,38.488H30.613a.195.195,0,0,1-.1-.36c3.532-2.2,8.486-3.368,14.327-3.368s10.795,1.165,14.327,3.368a.2.2,0,0,1-.1.36M31.324,38.1H58.349c-3.423-1.931-8.074-2.949-13.513-2.949S34.746,36.166,31.324,38.1" transform="translate(-18.552 -21.2)" fill="#4c5b52"/><path d="M45.093,43.575H31.149V63.593A14.086,14.086,0,0,0,45.093,77.678Z" transform="translate(-18.998 -26.577)" fill="#da302b"/><path d="M66.422,43.575H80.756V63.593c0,7.732-6.62,14.007-14.334,14.084Z" transform="translate(-40.512 -26.577)" fill="#fff"/><line y2="34.059" transform="translate(26.238 16.998)" fill="#fff"/><path d="M66.655,77.414a.39.39,0,0,1-.39-.39V42.965a.39.39,0,0,1,.78,0V77.024a.39.39,0,0,1-.39.39" transform="translate(-40.416 -25.967)" fill="#4c5b52"/><path d="M64.891,165.241c-.056.382-.692.425-.692.425.142,1.706-1.635.69-1.367.619a.507.507,0,0,0,.424-.619l-2-.012v1.9a.507.507,0,0,0,.62-.421c.071-.27,1.085,1.508-.62,1.367,0,0-.043.635-.422.69h-.008c-.382-.055-.4-.69-.4-.69-1.707.141-.691-1.637-.621-1.367a.508.508,0,0,0,.621.421l-.005-1.9-1.951-.011a.506.506,0,0,0,.422.619c.27.071-1.507,1.084-1.367-.619,0,0-.631-.039-.687-.42l0-.02c.056-.381.685-.4.685-.4-.14-1.706,1.637-.69,1.367-.62a.506.506,0,0,0-.422.62l2.005.012v-1.9a.509.509,0,0,0-.622.422c-.069.268-1.086-1.509.622-1.368,0,0,.043-.635.422-.69H60.9c.38.056.4.69.4.69,1.705-.141.69,1.636.62,1.368a.506.506,0,0,0-.62-.422v1.9l1.956.012a.507.507,0,0,0-.424-.619c-.268-.071,1.509-1.087,1.367.619,0,0,.633.005.69.385Z" transform="translate(-34.661 -98.367)" fill="#da302b"/><path d="M60.508,169.082h-.018c-.345-.05-.5-.394-.55-.68-.774,0-.96-.417-1-.682-.06-.423.212-1.054.476-1.107a.222.222,0,0,1,.262.169c.051.191.148.262.237.283l0-1.522-1.569-.009c.022.087.093.184.285.234a.222.222,0,0,1,.168.262c-.053.264-.686.536-1.106.476-.265-.037-.687-.219-.682-1-.284-.058-.626-.218-.676-.56a.18.18,0,0,1,0-.041.745.745,0,0,1,.678-.578c0-.777.418-.958.682-1,.425-.056,1.053.213,1.106.477a.222.222,0,0,1-.169.261c-.193.051-.263.149-.284.238l1.624.01V162.8a.346.346,0,0,0-.239.284.221.221,0,0,1-.26.168c-.264-.052-.536-.683-.477-1.107.037-.266.208-.7,1-.682.06-.286.22-.63.562-.681.009,0,.055,0,.065,0,.342.051.5.394.548.681h.011c.768,0,.949.417.986.68.06.423-.212,1.055-.476,1.109a.222.222,0,0,1-.262-.169c-.05-.192-.148-.263-.236-.284v1.522l1.572.009c-.022-.088-.093-.185-.284-.234a.222.222,0,0,1-.169-.261c.054-.266.688-.536,1.11-.477.263.038.681.219.678.992a.728.728,0,0,1,.68.534c0,.007,0,.039,0,.046a.208.208,0,0,1,0,.038c-.05.343-.4.5-.681.564.006.781-.414.963-.678,1-.422.06-1.056-.211-1.11-.477a.222.222,0,0,1,.168-.262c.193-.051.264-.148.286-.236l-1.621-.011v1.52c.088-.021.186-.092.236-.284a.223.223,0,0,1,.261-.168c.264.053.536.684.476,1.107-.037.265-.222.674-1,.681-.06.286-.221.63-.562.68h-.046m-.4-1.079a.2.2,0,0,1,.2.188c0,.1.051.444.214.5.151-.051.221-.357.232-.5a.2.2,0,0,1,.068-.135.192.192,0,0,1,.143-.046c.283.022.643,0,.741-.24a.839.839,0,0,0-.072-.6.663.663,0,0,1-.22.207.729.729,0,0,1-.516.071.2.2,0,0,1-.145-.189v-1.9a.194.194,0,0,1,.058-.138.216.216,0,0,1,.138-.057l2,.013a.194.194,0,0,1,.187.145.716.716,0,0,1-.072.514.657.657,0,0,1-.209.221.841.841,0,0,0,.6.073c.241-.1.263-.457.239-.741a.2.2,0,0,1,.181-.211c.1-.007.465-.069.509-.243v0c-.025-.158-.4-.2-.5-.2a.2.2,0,0,1-.193-.211c.024-.284,0-.643-.239-.741a.841.841,0,0,0-.6.072.674.674,0,0,1,.208.219.719.719,0,0,1,.073.516.2.2,0,0,1-.188.145h0l-1.956-.012a.2.2,0,0,1-.194-.2v-1.9a.2.2,0,0,1,.144-.189.724.724,0,0,1,.516.071.666.666,0,0,1,.22.208.843.843,0,0,0,.072-.6c-.1-.24-.458-.262-.741-.24a.2.2,0,0,1-.211-.186c0-.1-.052-.444-.213-.5-.151.052-.222.362-.232.5a.2.2,0,0,1-.067.135.2.2,0,0,1-.144.046c-.286-.023-.644,0-.743.24a.83.83,0,0,0,.073.6.656.656,0,0,1,.38-.272.747.747,0,0,1,.357-.005.2.2,0,0,1,.145.189v1.9a.2.2,0,0,1-.057.138.266.266,0,0,1-.138.057l-2.006-.012a.2.2,0,0,1-.187-.145.722.722,0,0,1,.071-.517.664.664,0,0,1,.208-.219.837.837,0,0,0-.6-.072c-.241.1-.264.458-.241.742a.2.2,0,0,1-.189.211c-.1,0-.471.051-.5.23.026.147.4.21.5.216a.2.2,0,0,1,.182.211c-.023.284,0,.642.241.74a.842.842,0,0,0,.6-.071.666.666,0,0,1-.209-.222.718.718,0,0,1-.071-.514.2.2,0,0,1,.188-.144h0l1.952.011a.2.2,0,0,1,.194.195l.005,1.9a.2.2,0,0,1-.144.189.729.729,0,0,1-.516-.071.67.67,0,0,1-.221-.208.841.841,0,0,0-.072.6c.1.241.458.263.742.24h.016" transform="translate(-34.356 -98.063)" fill="#4c5b52"/><path d="M10.114,77.3a22.105,22.105,0,0,0,2.728,17.468c.03.048.064.093.094.141a22.1,22.1,0,0,0-2.728-17.468c-.03-.048-.064-.093-.094-.141" transform="translate(-5.729 -47.149)" fill="#fff"/><path d="M12.34,94.693a.39.39,0,0,1-.329-.18l-.1-.142A22.641,22.641,0,0,1,9.139,76.595a.39.39,0,0,1,.706-.113l.037.056c.02.029.04.058.059.088A22.641,22.641,0,0,1,12.717,94.4a.39.39,0,0,1-.317.287.357.357,0,0,1-.061.005m-2.66-17a21.872,21.872,0,0,0,2.5,15.605A21.869,21.869,0,0,0,9.68,77.7" transform="translate(-5.132 -46.539)" fill="#4c5b52"/><path d="M13.358,94.551a.39.39,0,0,1-.385-.33L10.246,76.753a.39.39,0,0,1,.771-.121L13.744,94.1a.39.39,0,0,1-.325.445.4.4,0,0,1-.061,0" transform="translate(-6.246 -46.538)" fill="#4c5b52"/><path d="M17.892,121.855a3.267,3.267,0,1,0-3.267,3.267,3.267,3.267,0,0,0,3.267-3.267" transform="translate(-6.927 -72.329)" fill="#fff"/><path d="M14.015,124.9a3.657,3.657,0,1,1,3.657-3.657,3.661,3.661,0,0,1-3.657,3.657m0-6.535a2.877,2.877,0,1,0,2.877,2.877,2.88,2.88,0,0,0-2.877-2.877" transform="translate(-6.318 -71.719)" fill="#4c5b52"/><path d="M6.578,60.036h0a1.6,1.6,0,0,0,1.305.754h0a1.6,1.6,0,0,1,1.361,2.357,1.606,1.606,0,0,0,0,1.507,1.6,1.6,0,0,1-1.361,2.357h0a1.605,1.605,0,0,0-1.305.754,1.6,1.6,0,0,1-2.722,0,1.605,1.605,0,0,0-1.305-.754A1.6,1.6,0,0,1,1.19,64.654a1.606,1.606,0,0,0,0-1.507A1.6,1.6,0,0,1,2.551,60.79a1.6,1.6,0,0,0,1.305-.754,1.6,1.6,0,0,1,2.722,0" transform="translate(-0.61 -36.157)" fill="#fff"/><path d="M4.607,68.3a1.983,1.983,0,0,1-1.692-.938,1.214,1.214,0,0,0-.988-.57,1.995,1.995,0,0,1-1.692-2.93,1.211,1.211,0,0,0,0-1.141,1.994,1.994,0,0,1,1.692-2.93,1.213,1.213,0,0,0,.988-.571,1.995,1.995,0,0,1,3.384,0,1.212,1.212,0,0,0,.988.571,1.994,1.994,0,0,1,1.692,2.93,1.213,1.213,0,0,0,0,1.141,1.995,1.995,0,0,1-1.692,2.93,1.213,1.213,0,0,0-.988.57,1.983,1.983,0,0,1-1.692.938m0-9.238a1.208,1.208,0,0,0-1.03.571,1.991,1.991,0,0,1-1.623.937,1.214,1.214,0,0,0-1.03,1.784,1.99,1.99,0,0,1,0,1.874,1.215,1.215,0,0,0,1.03,1.784,1.991,1.991,0,0,1,1.623.937,1.215,1.215,0,0,0,2.06,0,1.991,1.991,0,0,1,1.622-.937,1.214,1.214,0,0,0,1.03-1.784,2,2,0,0,1,0-1.874A1.214,1.214,0,0,0,7.26,60.57a1.991,1.991,0,0,1-1.623-.937,1.208,1.208,0,0,0-1.03-.571" transform="translate(0 -35.547)" fill="#4c5b52"/><path d="M10.738,68.206a1.9,1.9,0,1,1-1.9-1.867,1.885,1.885,0,0,1,1.9,1.867" transform="translate(-4.227 -40.462)" fill="#fff"/><path d="M8.225,69.851A2.257,2.257,0,1,1,10.518,67.6a2.278,2.278,0,0,1-2.294,2.256m0-3.732A1.477,1.477,0,1,0,9.738,67.6a1.5,1.5,0,0,0-1.514-1.476" transform="translate(-3.617 -39.852)" fill="#4c5b52"/><path d="M14.5,115.877h0a1.6,1.6,0,0,0,1.306.754,1.6,1.6,0,0,1,1.361,2.357,1.606,1.606,0,0,0,0,1.507,1.6,1.6,0,0,1-1.361,2.357,1.605,1.605,0,0,0-1.306.754,1.6,1.6,0,0,1-2.722,0,1.605,1.605,0,0,0-1.305-.754A1.6,1.6,0,0,1,9.112,120.5a1.606,1.606,0,0,0,0-1.507,1.6,1.6,0,0,1,1.361-2.357,1.6,1.6,0,0,0,1.305-.754,1.6,1.6,0,0,1,2.722,0" transform="translate(-5.441 -70.216)" fill="#fff"/><path d="M12.529,124.142a1.983,1.983,0,0,1-1.692-.939,1.214,1.214,0,0,0-.988-.57,1.994,1.994,0,0,1-1.692-2.93,1.212,1.212,0,0,0,0-1.141,1.995,1.995,0,0,1,1.692-2.931,1.213,1.213,0,0,0,.988-.57,1.994,1.994,0,0,1,3.384,0,1.213,1.213,0,0,0,.988.57,1.995,1.995,0,0,1,1.692,2.931,1.213,1.213,0,0,0,0,1.141,1.994,1.994,0,0,1-1.692,2.93,1.214,1.214,0,0,0-.988.57,1.984,1.984,0,0,1-1.692.939m0-9.239a1.209,1.209,0,0,0-1.03.571,1.99,1.99,0,0,1-1.623.937,1.215,1.215,0,0,0-1.03,1.785,1.99,1.99,0,0,1,0,1.874,1.214,1.214,0,0,0,1.03,1.784,1.991,1.991,0,0,1,1.623.937,1.215,1.215,0,0,0,2.06,0,1.99,1.99,0,0,1,1.623-.937,1.214,1.214,0,0,0,1.03-1.784,1.993,1.993,0,0,1,0-1.874,1.215,1.215,0,0,0-1.03-1.785,1.99,1.99,0,0,1-1.623-.937,1.209,1.209,0,0,0-1.03-.571" transform="translate(-4.832 -69.606)" fill="#4c5b52"/><path d="M18.66,124.047a1.9,1.9,0,1,1-1.9-1.867,1.885,1.885,0,0,1,1.9,1.867" transform="translate(-9.059 -74.52)" fill="#fff"/><path d="M16.147,125.692a2.257,2.257,0,1,1,2.294-2.256,2.278,2.278,0,0,1-2.294,2.256m0-3.732a1.477,1.477,0,1,0,1.514,1.476,1.5,1.5,0,0,0-1.514-1.476" transform="translate(-8.449 -73.91)" fill="#4c5b52"/><path d="M62.2,137.7h0a1.6,1.6,0,0,0,1.305.754h0a1.6,1.6,0,0,1,1.361,2.357,1.606,1.606,0,0,0,0,1.507,1.6,1.6,0,0,1-1.361,2.357h0a1.605,1.605,0,0,0-1.305.754,1.6,1.6,0,0,1-2.722,0,1.605,1.605,0,0,0-1.305-.754,1.6,1.6,0,0,1-1.361-2.357,1.606,1.606,0,0,0,0-1.507,1.6,1.6,0,0,1,1.361-2.357,1.6,1.6,0,0,0,1.305-.754,1.6,1.6,0,0,1,2.722,0" transform="translate(-34.532 -83.524)" fill="#fff"/><path d="M60.226,145.961a1.984,1.984,0,0,1-1.692-.939,1.213,1.213,0,0,0-.988-.57,1.994,1.994,0,0,1-1.692-2.93,1.213,1.213,0,0,0,0-1.141,1.994,1.994,0,0,1,1.692-2.93,1.214,1.214,0,0,0,.988-.571,1.994,1.994,0,0,1,3.384,0,1.216,1.216,0,0,0,.988.571,1.995,1.995,0,0,1,1.692,2.93,1.211,1.211,0,0,0,0,1.141,1.994,1.994,0,0,1-1.692,2.93,1.214,1.214,0,0,0-.988.57,1.983,1.983,0,0,1-1.692.939m0-9.239a1.209,1.209,0,0,0-1.03.571,1.991,1.991,0,0,1-1.622.937,1.214,1.214,0,0,0-1.03,1.784,2,2,0,0,1,0,1.874,1.214,1.214,0,0,0,1.03,1.784,1.99,1.99,0,0,1,1.622.937,1.215,1.215,0,0,0,2.06,0,1.991,1.991,0,0,1,1.623-.937,1.214,1.214,0,0,0,1.03-1.784,1.992,1.992,0,0,1,0-1.874,1.215,1.215,0,0,0-1.03-1.784,1.992,1.992,0,0,1-1.623-.937,1.209,1.209,0,0,0-1.03-.571" transform="translate(-33.923 -82.914)" fill="#4c5b52"/><path d="M66.356,145.867a1.9,1.9,0,1,1-1.9-1.867,1.885,1.885,0,0,1,1.9,1.867" transform="translate(-38.15 -87.829)" fill="#fff"/><path d="M63.843,147.511a2.257,2.257,0,1,1,2.294-2.255,2.277,2.277,0,0,1-2.294,2.255m0-3.732a1.477,1.477,0,1,0,1.514,1.477,1.5,1.5,0,0,0-1.514-1.477" transform="translate(-37.54 -87.218)" fill="#4c5b52"/><path d="M113.951,60.036h0a1.6,1.6,0,0,1-1.306.754,1.6,1.6,0,0,0-1.361,2.357,1.606,1.606,0,0,1,0,1.507,1.6,1.6,0,0,0,1.361,2.357,1.605,1.605,0,0,1,1.306.754,1.6,1.6,0,0,0,2.722,0,1.605,1.605,0,0,1,1.305-.754,1.6,1.6,0,0,0,1.361-2.357,1.606,1.606,0,0,1,0-1.507,1.6,1.6,0,0,0-1.361-2.357,1.6,1.6,0,0,1-1.305-.754,1.6,1.6,0,0,0-2.722,0" transform="translate(-67.759 -36.157)" fill="#fff"/><path d="M114.7,68.3a1.983,1.983,0,0,1-1.692-.938,1.214,1.214,0,0,0-.988-.57,1.995,1.995,0,0,1-1.691-2.93,1.213,1.213,0,0,0,0-1.141,1.995,1.995,0,0,1,1.692-2.93,1.213,1.213,0,0,0,.988-.571,1.995,1.995,0,0,1,3.384,0,1.212,1.212,0,0,0,.988.571,1.995,1.995,0,0,1,1.692,2.93,1.213,1.213,0,0,0,0,1.141,1.995,1.995,0,0,1-1.692,2.93,1.214,1.214,0,0,0-.988.57,1.982,1.982,0,0,1-1.692.938m-1.03-8.667h0a1.992,1.992,0,0,1-1.623.937,1.214,1.214,0,0,0-1.03,1.784,1.992,1.992,0,0,1,0,1.874,1.215,1.215,0,0,0,1.03,1.784,1.993,1.993,0,0,1,1.623.937,1.215,1.215,0,0,0,2.06,0,1.993,1.993,0,0,1,1.622-.937,1.215,1.215,0,0,0,1.031-1.784,1.992,1.992,0,0,1,0-1.874,1.215,1.215,0,0,0-1.03-1.784,1.991,1.991,0,0,1-1.623-.937,1.215,1.215,0,0,0-2.06,0" transform="translate(-67.15 -35.547)" fill="#4c5b52"/><path d="M117.026,68.206a1.9,1.9,0,1,0,1.9-1.867,1.885,1.885,0,0,0-1.9,1.867" transform="translate(-71.377 -40.462)" fill="#fff"/><path d="M118.32,69.851a2.257,2.257,0,1,1,2.294-2.256,2.277,2.277,0,0,1-2.294,2.256m0-3.732a1.477,1.477,0,1,0,1.514,1.476,1.5,1.5,0,0,0-1.514-1.476" transform="translate(-70.767 -39.852)" fill="#4c5b52"/><path d="M106.029,115.877h0a1.6,1.6,0,0,1-1.305.754h0a1.6,1.6,0,0,0-1.361,2.357,1.606,1.606,0,0,1,0,1.507,1.6,1.6,0,0,0,1.361,2.357h0a1.605,1.605,0,0,1,1.305.754,1.6,1.6,0,0,0,2.722,0,1.605,1.605,0,0,1,1.305-.754,1.6,1.6,0,0,0,1.361-2.357,1.606,1.606,0,0,1,0-1.507,1.6,1.6,0,0,0-1.361-2.357,1.6,1.6,0,0,1-1.305-.754,1.6,1.6,0,0,0-2.722,0" transform="translate(-62.927 -70.216)" fill="#fff"/><path d="M106.78,124.142a1.984,1.984,0,0,1-1.692-.939,1.214,1.214,0,0,0-.988-.57,1.994,1.994,0,0,1-1.692-2.93,1.213,1.213,0,0,0,0-1.141,1.995,1.995,0,0,1,1.692-2.931,1.213,1.213,0,0,0,.988-.57l.331.207-.331-.207a1.994,1.994,0,0,1,3.384,0,1.213,1.213,0,0,0,.988.57,2,2,0,0,1,1.692,2.931,1.211,1.211,0,0,0,0,1.141,1.994,1.994,0,0,1-1.692,2.93,1.214,1.214,0,0,0-.988.57,1.983,1.983,0,0,1-1.692.939m0-9.239a1.209,1.209,0,0,0-1.03.571,1.99,1.99,0,0,1-1.623.937,1.215,1.215,0,0,0-1.03,1.785,1.993,1.993,0,0,1,0,1.874,1.214,1.214,0,0,0,1.03,1.784,1.99,1.99,0,0,1,1.623.937,1.215,1.215,0,0,0,2.06,0,1.991,1.991,0,0,1,1.623-.937,1.214,1.214,0,0,0,1.03-1.784,1.993,1.993,0,0,1,0-1.874,1.215,1.215,0,0,0-1.03-1.785,1.99,1.99,0,0,1-1.623-.937,1.209,1.209,0,0,0-1.03-.571" transform="translate(-62.317 -69.606)" fill="#4c5b52"/><path d="M109.1,124.047a1.9,1.9,0,1,0,1.9-1.867,1.885,1.885,0,0,0-1.9,1.867" transform="translate(-66.545 -74.52)" fill="#fff"/><path d="M110.4,125.692a2.257,2.257,0,1,1,2.294-2.256,2.277,2.277,0,0,1-2.294,2.256m0-3.732a1.477,1.477,0,1,0,1.513,1.476,1.5,1.5,0,0,0-1.513-1.476" transform="translate(-65.935 -73.91)" fill="#4c5b52"/><path d="M55.893,97.041a.231.231,0,0,0,.016-.06l-.016.06" transform="translate(-34.09 -59.151)" fill="#f4cd5c"/><path d="M55.588,96.93a.195.195,0,0,1-.188-.248l.014-.053a.195.195,0,0,1,.383.072v.009a.417.417,0,0,1-.031.108.2.2,0,0,1-.177.113" transform="translate(-33.785 -58.845)" fill="#4c5b52"/><path d="M44.162,81.442s2.55-.492,2.25-2.564a1.768,1.768,0,0,0-2.064-1.419,2.96,2.96,0,0,0-2.06,1.83l.616-3.327L41.631,73.52,40.54,75.961l.543,3.179A2.862,2.862,0,0,0,39.1,77.459a1.768,1.768,0,0,0-2.064,1.419c-.3,2.072,2.25,2.564,2.25,2.564s-1.478-.793-.793-1.8a1.3,1.3,0,0,1,1.564-.1,2.273,2.273,0,0,1,1.083,1.58h-.712a.092.092,0,0,0-.09.091v.265a.091.091,0,0,0,.09.091.09.09,0,0,0-.09.09v.264a.091.091,0,0,0,.09.091h.747c-.007.091-.016.184-.028.281-.219,1.661-1.86.892-2.074.435.089.315.456,1.358,1.367,1.2a1.256,1.256,0,0,0,.865-.616l-.125.9.491.877.6-.877-.176-.992a1.283,1.283,0,0,0,.915.7c.913.163,1.279-.88,1.368-1.2-.213.457-1.855,1.227-2.075-.435-.013-.1-.021-.19-.028-.281h.747a.09.09,0,0,0,.09-.091v-.264a.09.09,0,0,0-.09-.09.091.091,0,0,0,.09-.091v-.265a.091.091,0,0,0-.09-.091h-.711a2.276,2.276,0,0,1,1.082-1.58,1.3,1.3,0,0,1,1.563.1c.686,1.006-.791,1.8-.791,1.8" transform="translate(-22.572 -44.841)" fill="#e5ce7e"/><path d="M41.363,84.981h-.009a.193.193,0,0,1-.161-.1L40.7,84a.2.2,0,0,1-.023-.122l.041-.294a1.391,1.391,0,0,1-.552.225c-1.073.191-1.488-.972-1.59-1.334a.2.2,0,0,1,.364-.136,1.266,1.266,0,0,0,1.088.46c.342-.053.549-.335.616-.838,0-.021.005-.041.007-.061H40.12a.286.286,0,0,1-.286-.286v-.264a.288.288,0,0,0,0-.18V80.91a.286.286,0,0,1,.286-.286h.467A2.081,2.081,0,0,0,39.64,79.4a1.133,1.133,0,0,0-1.294.046.711.711,0,0,0-.128.591c.13.532.845.923.852.927a.195.195,0,0,1-.129.363c-.028-.005-2.727-.554-2.406-2.784a1.97,1.97,0,0,1,2.282-1.584,2.541,2.541,0,0,1,1.612.986l-.385-2.257a.191.191,0,0,1,.014-.112l1.091-2.442a.2.2,0,0,1,.172-.115.2.2,0,0,1,.179.1l1.272,2.442a.193.193,0,0,1,.019.125L42.364,78a2.562,2.562,0,0,1,1.654-1.039A1.972,1.972,0,0,1,46.3,78.539c.324,2.236-2.377,2.784-2.4,2.79a.195.195,0,0,1-.129-.363c.007,0,.721-.395.851-.926a.71.71,0,0,0-.129-.591,1.128,1.128,0,0,0-1.294-.046,2.084,2.084,0,0,0-.947,1.223h.467A.286.286,0,0,1,43,80.91v.265a.288.288,0,0,0,0,.18v.264a.285.285,0,0,1-.285.286H42.18c0,.02.005.041.007.061.067.5.274.785.617.837a1.267,1.267,0,0,0,1.088-.46.195.195,0,0,1,.364.135c-.1.361-.52,1.526-1.59,1.334a1.385,1.385,0,0,1-.564-.234l.052.295a.194.194,0,0,1-.031.144l-.6.877a.2.2,0,0,1-.161.085m-.289-1.11.306.545.377-.552-.163-.913a.2.2,0,0,1,.364-.127,1.082,1.082,0,0,0,.778.606.811.811,0,0,0,.811-.355,1.512,1.512,0,0,1-.8.115c-.3-.046-.823-.26-.944-1.172-.013-.1-.022-.2-.029-.293a.2.2,0,0,1,.194-.209h.642V81.43a.2.2,0,0,1,0-.328v-.087H42a.194.194,0,0,1-.192-.229,2.454,2.454,0,0,1,1.165-1.708,1.474,1.474,0,0,1,1.834.151,1.094,1.094,0,0,1,.185.9,1.359,1.359,0,0,1-.225.468,1.888,1.888,0,0,0,1.144-2,1.57,1.57,0,0,0-1.845-1.253,2.866,2.866,0,0,0-1.911,1.723.2.2,0,0,1-.367-.121l.6-3.261L41.34,73.663l-.9,2.019.532,3.12a.195.195,0,0,1-.365.124,2.706,2.706,0,0,0-1.84-1.579,1.561,1.561,0,0,0-1.845,1.26A1.884,1.884,0,0,0,38.064,80.6a1.364,1.364,0,0,1-.225-.468,1.093,1.093,0,0,1,.185-.9,1.476,1.476,0,0,1,1.833-.151,2.451,2.451,0,0,1,1.167,1.708.194.194,0,0,1-.192.229h-.607V81.1a.2.2,0,0,1,0,.33v.085h.642a.2.2,0,0,1,.194.209c-.007.095-.016.191-.03.293-.121.912-.642,1.126-.943,1.173a1.532,1.532,0,0,1-.8-.115.808.808,0,0,0,.81.355,1.055,1.055,0,0,0,.733-.527.2.2,0,0,1,.359.129Zm-.953-2.8h0Zm2.593,0h0Z" transform="translate(-22.267 -44.536)" fill="#4c5b52"/><path d="M55.935,96.933l.007-.03a.23.23,0,0,1-.007.03" transform="translate(-34.116 -59.103)" fill="#f4cd5c"/><path d="M55.628,96.807a.175.175,0,0,1-.035,0,.183.183,0,0,1-.155-.213.112.112,0,0,1,0-.011l.069.018-.069-.018a.2.2,0,0,1,.007-.023l.019.006-.019-.008a.193.193,0,0,1,.212-.151.2.2,0,0,1,.173.194.243.243,0,0,1-.005.043h0v.005c0,.011-.005.022-.007.03h0a.213.213,0,0,1-.188.133m-.088-.2.09.023Z" transform="translate(-33.811 -58.797)" fill="#4c5b52"/><path d="M42.239,96.93a.2.2,0,0,1-.007-.028l.007.028" transform="translate(-25.758 -59.103)" fill="#f4cd5c"/><path d="M41.934,96.821a.2.2,0,0,1-.189-.147V96.67s0-.011,0-.017l0-.012h0a.3.3,0,0,1-.005-.043.2.2,0,0,1,.385-.043h0c0,.01.008.03.01.039a.2.2,0,0,1-.152.223.207.207,0,0,1-.041,0" transform="translate(-25.453 -58.799)" fill="#4c5b52"/><path d="M42.267,97.038c-.007-.026-.013-.047-.017-.062a.217.217,0,0,0,.017.062" transform="translate(-25.769 -59.148)" fill="#f4cd5c"/><path d="M41.955,96.922a.186.186,0,0,1-.171-.108.421.421,0,0,1-.032-.113.195.195,0,0,1,.382-.076l.012.043a.2.2,0,0,1-.12.241.216.216,0,0,1-.071.012" transform="translate(-25.464 -58.842)" fill="#4c5b52"/><path d="M92.718,97.041a.231.231,0,0,0,.016-.06l-.016.06" transform="translate(-56.551 -59.151)" fill="#da302b"/><path d="M92.413,96.931a.2.2,0,0,1-.068-.012.2.2,0,0,1-.119-.237l.015-.054a.195.195,0,0,1,.382.075v.009a.426.426,0,0,1-.031.107.2.2,0,0,1-.177.113" transform="translate(-56.246 -58.846)" fill="#4c5b52"/><path d="M80.988,81.442s2.55-.492,2.25-2.564a1.768,1.768,0,0,0-2.064-1.419,2.96,2.96,0,0,0-2.06,1.83l.616-3.327L78.457,73.52l-1.091,2.441.543,3.179a2.862,2.862,0,0,0-1.987-1.681,1.768,1.768,0,0,0-2.064,1.419c-.3,2.072,2.25,2.564,2.25,2.564s-1.478-.793-.793-1.8a1.3,1.3,0,0,1,1.564-.1,2.273,2.273,0,0,1,1.083,1.58h-.712a.092.092,0,0,0-.09.091v.265a.091.091,0,0,0,.09.091.09.09,0,0,0-.09.09v.264a.091.091,0,0,0,.09.091H78c-.007.091-.016.184-.028.281-.219,1.661-1.86.892-2.074.435.089.315.456,1.358,1.367,1.2a1.256,1.256,0,0,0,.865-.616l-.125.9.491.877.6-.877-.176-.992a1.283,1.283,0,0,0,.915.7c.913.163,1.279-.88,1.368-1.2-.213.457-1.855,1.227-2.075-.435-.013-.1-.021-.19-.028-.281h.747a.09.09,0,0,0,.09-.091v-.264a.09.09,0,0,0-.09-.09.091.091,0,0,0,.09-.091v-.265a.091.091,0,0,0-.09-.091h-.711a2.275,2.275,0,0,1,1.082-1.58,1.3,1.3,0,0,1,1.563.1c.686,1.006-.791,1.8-.791,1.8" transform="translate(-45.033 -44.841)" fill="#da302b"/><path d="M77.849,72.91l1.272,2.442-.616,3.327a2.958,2.958,0,0,1,2.06-1.83,2.515,2.515,0,0,1,.332-.023,1.766,1.766,0,0,1,1.731,1.441c.3,2.072-2.249,2.564-2.249,2.564s1.477-.792.791-1.8a1.1,1.1,0,0,0-.837-.311,1.3,1.3,0,0,0-.726.212,2.275,2.275,0,0,0-1.082,1.581h.711a.091.091,0,0,1,.09.09v.265a.09.09,0,0,0,0,.181v.264a.09.09,0,0,1-.09.09h-.747c.007.091.015.184.028.282.1.768.507,1.017.935,1.017a1.44,1.44,0,0,0,1.14-.582c-.083.293-.4,1.212-1.18,1.212a1.071,1.071,0,0,1-.188-.017,1.282,1.282,0,0,1-.915-.7l.176.992-.6.877-.492-.877.125-.9a1.255,1.255,0,0,1-.865.616,1.062,1.062,0,0,1-.188.017c-.775,0-1.1-.919-1.18-1.212a1.442,1.442,0,0,0,1.14.582c.428,0,.833-.249.935-1.017.013-.1.021-.191.028-.282h-.747a.091.091,0,0,1-.09-.09v-.264a.09.09,0,1,0,0-.181v-.265a.092.092,0,0,1,.09-.09h.712a2.273,2.273,0,0,0-1.084-1.581,1.3,1.3,0,0,0-.726-.212,1.1,1.1,0,0,0-.838.311c-.685,1.007.793,1.8.793,1.8s-2.548-.492-2.25-2.564a1.765,1.765,0,0,1,1.731-1.441,2.526,2.526,0,0,1,.333.023A2.859,2.859,0,0,1,77.3,78.53l-.542-3.178Zm0-.39h-.012a.39.39,0,0,0-.344.231L76.4,75.193a.39.39,0,0,0-.028.225l.28,1.64a2.49,2.49,0,0,0-1.288-.595,2.984,2.984,0,0,0-.384-.026A2.13,2.13,0,0,0,72.866,78.2c-.28,1.943,1.552,2.821,2.56,3.015a.37.37,0,0,0,.074.007.39.39,0,0,0,.184-.734,1.637,1.637,0,0,1-.754-.8.511.511,0,0,1,.1-.434.887.887,0,0,1,.516-.14.918.918,0,0,1,.509.146,1.989,1.989,0,0,1,.78.866h-.191a.481.481,0,0,0-.481.481v.265a.479.479,0,0,1,0,.181v.264a.481.481,0,0,0,.481.481h.3c-.117.518-.4.518-.52.518a1.143,1.143,0,0,1-.787-.359.39.39,0,0,0-.728.273c.1.351.505,1.5,1.555,1.5a1.48,1.48,0,0,0,.256-.023A1.722,1.722,0,0,0,77,83.625a.389.389,0,0,0,.049.17l.492.877a.389.389,0,0,0,.323.2h.017a.39.39,0,0,0,.322-.17l.6-.877a.389.389,0,0,0,.067-.2,1.677,1.677,0,0,0,.28.075,1.472,1.472,0,0,0,.258.023c1.051,0,1.456-1.145,1.556-1.5a.391.391,0,0,0-.24-.472.4.4,0,0,0-.136-.025.39.39,0,0,0-.353.225,1.146,1.146,0,0,1-.786.357c-.115,0-.4,0-.52-.518h.3a.481.481,0,0,0,.48-.481v-.264a.479.479,0,0,1,0-.181v-.265a.481.481,0,0,0-.48-.481h-.191a1.99,1.99,0,0,1,.78-.866.918.918,0,0,1,.509-.146.853.853,0,0,1,.52.147.506.506,0,0,1,.1.428,1.637,1.637,0,0,1-.754.8.39.39,0,0,0,.185.733.366.366,0,0,0,.074-.007c1.008-.195,2.841-1.073,2.562-3A2.134,2.134,0,0,0,80.9,76.436a2.973,2.973,0,0,0-.384.026,2.49,2.49,0,0,0-1.316.619l.307-1.659a.389.389,0,0,0-.037-.251L78.2,72.73a.391.391,0,0,0-.346-.21" transform="translate(-44.425 -44.231)" fill="#4c5b52"/><path d="M92.76,96.933l.007-.03a.231.231,0,0,1-.007.03" transform="translate(-56.576 -59.103)" fill="#da302b"/><path d="M92.454,96.806a.149.149,0,0,1-.034,0,.183.183,0,0,1-.156-.209s0-.008,0-.014l.065.016-.065-.016c0-.009.005-.02.007-.026l.033.01-.033-.014a.191.191,0,0,1,.213-.147.2.2,0,0,1,.172.193.251.251,0,0,1-.006.046v0a.2.2,0,0,1-.007.03h0a.214.214,0,0,1-.188.133m-.094-.2.1.024Z" transform="translate(-56.272 -58.796)" fill="#4c5b52"/><path d="M79.064,96.93a.2.2,0,0,1-.007-.028l.007.028" transform="translate(-48.219 -59.103)" fill="#da302b"/><path d="M78.76,96.82a.194.194,0,0,1-.189-.149v0s0-.01,0-.016l0-.009h0a.247.247,0,0,1-.006-.046.2.2,0,0,1,.172-.193.191.191,0,0,1,.213.148h0c0,.009.009.032.011.041a.195.195,0,0,1-.193.227" transform="translate(-47.914 -58.797)" fill="#4c5b52"/><path d="M79.093,97.038c-.007-.026-.013-.047-.017-.062a.217.217,0,0,0,.017.062" transform="translate(-48.23 -59.148)" fill="#da302b"/><path d="M78.787,96.929a.2.2,0,0,1-.177-.113.424.424,0,0,1-.033-.112.2.2,0,0,1,.382-.08l.016.057a.195.195,0,0,1-.188.248" transform="translate(-47.925 -58.843)" fill="#4c5b52"/><rect width="9.34" height="9.34" transform="translate(12.55 17.413)" fill="#f4cd5c"/><path d="M42.551,48.277H41.77a6.139,6.139,0,0,0-2.017-.224,3.558,3.558,0,0,0-3.664,3.386,4.067,4.067,0,0,1,2.259-2.033,2.817,2.817,0,0,1,3.092,1.008h1.111Z" transform="translate(-22.011 -29.308)" fill="#231f20"/><path d="M51.163,54.262v4.6h-.476V54.34" transform="translate(-30.915 -33.096)" fill="#231f20"/><path d="M51.163,54.262v4.6h-.476V54.34" transform="translate(-30.915 -33.096)" fill="#4c5b52"/><path d="M42.551,48.409H41.77a6.153,6.153,0,0,0-2.017-.225,3.56,3.56,0,0,0-3.664,3.388,4.064,4.064,0,0,1,2.259-2.032,2.814,2.814,0,0,1,3.092,1.007h1.111Z" transform="translate(-22.011 -29.388)" fill="#4c5b52"/><line y2="2.104" transform="translate(19.97 19.021)" fill="#4c5b52"/><path d="M31.062,32.063a.39.39,0,0,1-.147-.752A38.608,38.608,0,0,1,45.32,28.632a39,39,0,0,1,13.709,2.406.39.39,0,1,1-.277.729A38.223,38.223,0,0,0,45.32,29.412a37.82,37.82,0,0,0-14.111,2.622.39.39,0,0,1-.147.029" transform="translate(-18.707 -17.463)" fill="#4c5b52"/><path d="M50.33,1.2l.3,2.273-1.47.191-.3-2.272-1.552.2.3,2.273-1.47.191-.3-2.273-1.412.183L44.936,5.9l7.458-.969L51.884,1Z" transform="translate(-27.096 -0.609)" fill="#f4cd5c"/><path d="M44.326,5.678a.39.39,0,0,1-.387-.34l-.51-3.929a.39.39,0,0,1,.336-.437L45.178.789a.39.39,0,0,1,.437.337l.245,1.886.7-.09-.245-1.886A.389.389,0,0,1,46.648.6L48.2.4a.39.39,0,0,1,.437.337l.245,1.886.7-.09L49.333.642A.39.39,0,0,1,49.67.205L51.224,0a.39.39,0,0,1,.437.336l.51,3.929a.39.39,0,0,1-.337.437l-7.458.969a.376.376,0,0,1-.051,0M44.253,1.7l.41,3.155,6.685-.868L50.938.827l-.78.1L50.4,2.814a.39.39,0,0,1-.337.437l-1.47.191a.39.39,0,0,1-.437-.337L47.913,1.22l-.778.1.245,1.886a.39.39,0,0,1-.337.437l-1.47.191a.39.39,0,0,1-.437-.336l-.245-1.886Z" transform="translate(-26.486 0)" fill="#4c5b52"/><path d="M54.973,16.05,54.42,11.8l-3.1.4.564,4.34" transform="translate(-31.301 -7.196)" fill="#f4cd5c"/><path d="M50.888,15.98l-.564-4.34a.39.39,0,0,1,.336-.437l3.1-.4a.389.389,0,0,1,.437.337l.553,4.252-.774.1-.5-3.866-2.326.3.513,3.953Z" transform="translate(-30.692 -6.585)" fill="#4c5b52"/><path d="M72.232,1.2l-.3,2.273,1.47.191.3-2.272,1.552.2-.3,2.273,1.47.191.3-2.273,1.412.183L77.626,5.9l-7.458-.969L70.678,1Z" transform="translate(-42.797 -0.609)" fill="#f4cd5c"/><path d="M77.016,5.678a.436.436,0,0,1-.05,0l-7.459-.969a.39.39,0,0,1-.336-.437l.51-3.929A.389.389,0,0,1,69.83.081.4.4,0,0,1,70.118,0l1.554.2a.39.39,0,0,1,.337.437l-.245,1.886.7.09L72.705.732A.389.389,0,0,1,73.142.4l1.552.2a.391.391,0,0,1,.337.437L74.786,2.92l.7.09.245-1.886a.39.39,0,0,1,.437-.337l1.412.183a.39.39,0,0,1,.337.437L77.4,5.338a.39.39,0,0,1-.387.34m-7.021-1.7,6.685.868.41-3.155-.639-.083L76.205,3.5a.389.389,0,0,1-.437.337L74.3,3.643a.39.39,0,0,1-.337-.437l.245-1.886-.778-.1-.245,1.886a.39.39,0,0,1-.437.337l-1.47-.191a.39.39,0,0,1-.337-.437L71.185.928,70.4.827Z" transform="translate(-42.187 0)" fill="#4c5b52"/><path d="M74.338,16.05l.552-4.253,3.1.4-.564,4.34" transform="translate(-45.34 -7.196)" fill="#f4cd5c"/><path d="M77.209,15.981l-.774-.1.513-3.953-2.326-.3-.5,3.866-.774-.1.552-4.252a.39.39,0,0,1,.149-.259.4.4,0,0,1,.288-.078l3.1.4a.39.39,0,0,1,.336.437Z" transform="translate(-44.736 -6.586)" fill="#4c5b52"/><path d="M101.727,8.053l-.738,2.17-1.4-.477.738-2.17-1.482-.5L98.1,9.241l-1.4-.477.738-2.17L96.09,6.136,94.815,9.887l7.121,2.421,1.275-3.751Z" transform="translate(-57.83 -3.742)" fill="#f4cd5c"/><path d="M101.325,12.089a.391.391,0,0,1-.125-.021L94.079,9.647a.39.39,0,0,1-.244-.5L95.11,5.4a.39.39,0,0,1,.5-.244l1.349.458a.39.39,0,0,1,.244.5l-.612,1.8.665.226.612-1.8a.39.39,0,0,1,.5-.244l1.482.5a.39.39,0,0,1,.244.5l-.612,1.8.665.226.612-1.8a.39.39,0,0,1,.5-.244l1.484.5a.39.39,0,0,1,.244.495l-1.276,3.751a.39.39,0,0,1-.369.265M94.7,9.034l6.382,2.17,1.024-3.013-.745-.253-.612,1.8a.39.39,0,0,1-.5.244l-1.4-.477a.39.39,0,0,1-.244-.5l.612-1.8-.743-.253-.612,1.8a.39.39,0,0,1-.5.244l-1.4-.477a.39.39,0,0,1-.244-.5l.612-1.8-.61-.208Z" transform="translate(-57.219 -3.133)" fill="#4c5b52"/><path d="M99.524,22.632l1.38-4.06-2.96-1.006L96.536,21.71" transform="translate(-58.879 -10.714)" fill="#f4cd5c"/><path d="M99.317,22.148l-.739-.251,1.255-3.691-2.221-.756-1.283,3.775-.738-.251L97,16.831a.39.39,0,0,1,.5-.244l2.96,1.006a.39.39,0,0,1,.244.495Z" transform="translate(-58.302 -10.104)" fill="#4c5b52"/><path d="M19.071,8.053l.738,2.17,1.4-.477-.738-2.17,1.482-.5.738,2.17,1.4-.477-.738-2.17,1.349-.459,1.276,3.751-7.121,2.421L17.588,8.557Z" transform="translate(-10.727 -3.742)" fill="#f4cd5c"/><path d="M18.253,12.089a.391.391,0,0,1-.369-.265L16.608,8.073a.39.39,0,0,1,.244-.5l1.483-.5a.39.39,0,0,1,.5.244l.612,1.8.665-.226-.612-1.8a.389.389,0,0,1,.244-.495l1.481-.5a.389.389,0,0,1,.495.244l.612,1.8.665-.226-.612-1.8a.39.39,0,0,1,.244-.5l1.349-.458a.389.389,0,0,1,.495.244l1.276,3.751a.39.39,0,0,1-.244.495l-7.121,2.421a.4.4,0,0,1-.126.021m-.781-3.9L18.5,11.2l6.382-2.17L23.854,6.021l-.61.208.612,1.8a.39.39,0,0,1-.244.5L22.209,9a.39.39,0,0,1-.5-.244l-.612-1.8-.743.252.612,1.8a.39.39,0,0,1-.244.495l-1.4.477a.39.39,0,0,1-.5-.244l-.612-1.8Z" transform="translate(-10.117 -3.133)" fill="#4c5b52"/><path d="M27.571,22.632l-1.38-4.06,2.96-1.006,1.409,4.144" transform="translate(-15.974 -10.714)" fill="#f4cd5c"/><path d="M26.592,22.148l-1.38-4.06a.39.39,0,0,1,.244-.495l2.96-1.006a.39.39,0,0,1,.495.244l1.409,4.144-.738.251L28.3,17.45l-2.221.756L27.331,21.9Z" transform="translate(-15.364 -10.104)" fill="#4c5b52"/><path d="M20.618,27.566a.39.39,0,0,1-.175-.739c4.807-2.4,12.394-4.82,18.506-4.82,6.02,0,13.264,2.372,17.637,4.4a.39.39,0,1,1-.328.707c-4.3-2-11.415-4.33-17.308-4.33-5.986,0-13.433,2.38-18.158,4.738a.392.392,0,0,1-.174.041" transform="translate(-12.337 -13.423)" fill="#4c5b52"/><path d="M29.8,35.927a.391.391,0,0,1-.388-.354l-.445-4.75a.39.39,0,1,1,.777-.073l.445,4.75a.39.39,0,0,1-.352.425l-.037,0" transform="translate(-17.668 -18.54)" fill="#4c5b52"/><path d="M102.252,35.413l-.037,0a.39.39,0,0,1-.352-.425l.476-5.079a.39.39,0,1,1,.777.073l-.476,5.079a.391.391,0,0,1-.388.354" transform="translate(-62.128 -18.026)" fill="#4c5b52"/><path d="M67.614,25.371a.39.39,0,0,1-.39-.39V22.4a.39.39,0,1,1,.78,0v2.584a.39.39,0,0,1-.39.39" transform="translate(-41.001 -13.423)" fill="#4c5b52"/><path d="M51.4,33.214a.39.39,0,0,1-.385-.328l-.363-2.253a.39.39,0,1,1,.77-.124l.362,2.253a.39.39,0,0,1-.323.447.378.378,0,0,1-.062.005" transform="translate(-30.89 -18.408)" fill="#4c5b52"/><path d="M82,32.92a.378.378,0,0,1-.062-.005.39.39,0,0,1-.323-.447l.315-1.959a.39.39,0,0,1,.77.124l-.315,1.959A.39.39,0,0,1,82,32.92" transform="translate(-49.773 -18.408)" fill="#4c5b52"/><path d="M31.313,38.237a.39.39,0,0,1-.146-.752,38.664,38.664,0,0,1,14.306-2.64A39.183,39.183,0,0,1,58.858,37.13a.39.39,0,0,1-.27.732,38.39,38.39,0,0,0-13.115-2.237,37.881,37.881,0,0,0-14.015,2.583.385.385,0,0,1-.146.028" transform="translate(-18.86 -21.253)" fill="#4c5b52"/><path d="M74.231,120.424a.231.231,0,0,0,.016-.06l-.016.06" transform="translate(-45.275 -73.413)" fill="#da302b"/><path d="M73.926,120.314a.194.194,0,0,1-.188-.248l.015-.056a.195.195,0,0,1,.382.075l0,.009a.393.393,0,0,1-.032.108.2.2,0,0,1-.176.112" transform="translate(-44.97 -73.108)" fill="#4c5b52"/><path d="M62.5,104.825s2.55-.492,2.25-2.564a1.768,1.768,0,0,0-2.064-1.419,2.96,2.96,0,0,0-2.06,1.83l.616-3.327L59.97,96.9l-1.091,2.441.543,3.179a2.862,2.862,0,0,0-1.987-1.681,1.768,1.768,0,0,0-2.064,1.419c-.3,2.072,2.25,2.564,2.25,2.564s-1.478-.793-.793-1.8a1.3,1.3,0,0,1,1.564-.1,2.273,2.273,0,0,1,1.083,1.58h-.711a.092.092,0,0,0-.091.091v.265a.091.091,0,0,0,.091.091.09.09,0,0,0-.091.09v.264a.091.091,0,0,0,.091.091h.747c-.007.091-.016.184-.028.281-.219,1.661-1.86.892-2.074.435.089.315.456,1.358,1.367,1.2a1.256,1.256,0,0,0,.865-.616l-.125.9.492.877.6-.877-.176-.992a1.283,1.283,0,0,0,.915.7c.913.163,1.279-.88,1.368-1.2-.213.457-1.855,1.227-2.075-.435-.013-.1-.021-.19-.028-.281h.747a.09.09,0,0,0,.09-.091v-.264a.09.09,0,0,0-.09-.09.091.091,0,0,0,.09-.091V104.6a.091.091,0,0,0-.09-.091h-.711a2.274,2.274,0,0,1,1.082-1.58,1.3,1.3,0,0,1,1.563.1c.686,1.006-.791,1.8-.791,1.8" transform="translate(-33.757 -59.103)" fill="#fff"/><path d="M59.362,96.293l1.272,2.442-.616,3.327a2.958,2.958,0,0,1,2.06-1.83,2.515,2.515,0,0,1,.332-.023,1.766,1.766,0,0,1,1.731,1.441c.3,2.072-2.249,2.564-2.249,2.564s1.477-.792.791-1.8a1.1,1.1,0,0,0-.837-.311,1.3,1.3,0,0,0-.726.212,2.274,2.274,0,0,0-1.082,1.58h.711a.091.091,0,0,1,.09.091v.265a.09.09,0,0,0,0,.181v.264a.09.09,0,0,1-.09.09H60c.007.091.015.184.028.282.1.768.507,1.017.935,1.017a1.44,1.44,0,0,0,1.14-.582c-.083.293-.4,1.212-1.18,1.212a1.072,1.072,0,0,1-.188-.017,1.282,1.282,0,0,1-.915-.7l.176.992-.6.877-.492-.877.125-.9a1.255,1.255,0,0,1-.865.616,1.063,1.063,0,0,1-.188.017c-.775,0-1.1-.919-1.18-1.212a1.442,1.442,0,0,0,1.14.582c.428,0,.833-.249.935-1.017.013-.1.021-.191.028-.282h-.747a.091.091,0,0,1-.09-.09v-.264a.09.09,0,1,0,0-.181v-.265a.092.092,0,0,1,.09-.091h.712a2.271,2.271,0,0,0-1.084-1.58,1.3,1.3,0,0,0-.726-.212,1.105,1.105,0,0,0-.838.311c-.685,1.007.793,1.8.793,1.8s-2.548-.492-2.25-2.564a1.765,1.765,0,0,1,1.731-1.441,2.526,2.526,0,0,1,.333.023,2.859,2.859,0,0,1,1.987,1.681l-.542-3.178Zm0-.39h-.012a.39.39,0,0,0-.344.231l-1.091,2.442a.39.39,0,0,0-.028.225l.28,1.64a2.49,2.49,0,0,0-1.288-.595,2.984,2.984,0,0,0-.384-.026,2.13,2.13,0,0,0-2.115,1.764c-.28,1.943,1.552,2.821,2.56,3.015a.371.371,0,0,0,.074.007.39.39,0,0,0,.184-.734,1.637,1.637,0,0,1-.754-.8.51.51,0,0,1,.1-.434.887.887,0,0,1,.516-.14.918.918,0,0,1,.509.146,1.989,1.989,0,0,1,.78.866h-.191a.481.481,0,0,0-.481.481v.265a.48.48,0,0,1,0,.181v.264a.481.481,0,0,0,.481.481h.3c-.117.518-.4.518-.52.518a1.143,1.143,0,0,1-.787-.359.389.389,0,0,0-.489-.2c-.19.071-.568-.02-.239.472s.506,1.5,1.555,1.5a1.48,1.48,0,0,0,.256-.023,1.724,1.724,0,0,0,.281-.076.39.39,0,0,0,.049.17l.492.877a.389.389,0,0,0,.323.2H59.4a.39.39,0,0,0,.322-.17l.6-.877a.389.389,0,0,0,.067-.2,1.676,1.676,0,0,0,.28.075,1.47,1.47,0,0,0,.258.023c1.051,0,1.456-1.145,1.556-1.5a.391.391,0,0,0-.24-.472.4.4,0,0,0-.136-.025.39.39,0,0,0-.353.225,1.146,1.146,0,0,1-.786.357c-.115,0-.4,0-.52-.518h.3a.481.481,0,0,0,.48-.481v-.264a.48.48,0,0,1,0-.181v-.265a.481.481,0,0,0-.48-.481h-.191a1.99,1.99,0,0,1,.78-.866.918.918,0,0,1,.509-.146.849.849,0,0,1,.52.147.5.5,0,0,1,.1.428,1.637,1.637,0,0,1-.754.8.39.39,0,0,0,.185.733.367.367,0,0,0,.074-.007c1.008-.195,2.841-1.073,2.562-3a2.134,2.134,0,0,0-2.117-1.776,2.973,2.973,0,0,0-.384.026,2.49,2.49,0,0,0-1.316.619l.307-1.659a.39.39,0,0,0-.037-.251l-1.272-2.441a.391.391,0,0,0-.346-.21" transform="translate(-33.149 -58.493)" fill="#4c5b52"/><path d="M74.273,120.316l.007-.03a.23.23,0,0,1-.007.03" transform="translate(-45.301 -73.365)" fill="#da302b"/><path d="M73.966,120.191a.19.19,0,0,1-.033,0,.183.183,0,0,1-.158-.209l0-.014.069.017-.069-.017.007-.024.017.005-.017-.007a.195.195,0,0,1,.385.043.278.278,0,0,1,0,.043v0a.174.174,0,0,1-.007.029h0a.213.213,0,0,1-.188.134m-.091-.2.092.023Z" transform="translate(-44.996 -73.06)" fill="#4c5b52"/><path d="M60.577,120.314a.2.2,0,0,1-.007-.028l.007.028" transform="translate(-36.943 -73.365)" fill="#da302b"/><path d="M60.273,120.205a.194.194,0,0,1-.189-.148v0s0-.011,0-.017l0-.011h0a.264.264,0,0,1-.005-.044.2.2,0,0,1,.173-.194.2.2,0,0,1,.212.149h0c0,.01.009.032.01.041a.2.2,0,0,1-.153.223.178.178,0,0,1-.04,0" transform="translate(-36.639 -73.061)" fill="#4c5b52"/><path d="M60.606,120.421c-.007-.026-.013-.048-.017-.062a.219.219,0,0,0,.017.062" transform="translate(-36.955 -73.41)" fill="#da302b"/><path d="M60.3,120.313a.2.2,0,0,1-.177-.113.423.423,0,0,1-.032-.11.2.2,0,0,1,.381-.083l.016.058a.195.195,0,0,1-.188.248" transform="translate(-36.649 -73.106)" fill="#4c5b52"/><path d="M74.231,120.424a.231.231,0,0,0,.016-.06l-.016.06" transform="translate(-45.275 -73.413)" fill="#da302b"/><path d="M73.926,120.314a.194.194,0,0,1-.188-.248l.015-.056a.195.195,0,0,1,.382.075l0,.009a.393.393,0,0,1-.032.108.2.2,0,0,1-.176.112" transform="translate(-44.97 -73.108)" fill="#4c5b52"/><path d="M74.273,120.316l.007-.03a.23.23,0,0,1-.007.03" transform="translate(-45.301 -73.365)" fill="#da302b"/><path d="M73.966,120.191a.19.19,0,0,1-.033,0,.183.183,0,0,1-.158-.209l0-.014.069.017-.069-.017.007-.024.017.005-.017-.007a.195.195,0,0,1,.385.043.278.278,0,0,1,0,.043v0a.174.174,0,0,1-.007.029h0a.213.213,0,0,1-.188.134m-.091-.2.092.023Z" transform="translate(-44.996 -73.06)" fill="#4c5b52"/><path d="M60.577,120.314a.2.2,0,0,1-.007-.028l.007.028" transform="translate(-36.943 -73.365)" fill="#da302b"/><path d="M60.273,120.205a.194.194,0,0,1-.189-.148v0s0-.011,0-.017l0-.011h0a.264.264,0,0,1-.005-.044.2.2,0,0,1,.173-.194.2.2,0,0,1,.212.149h0c0,.01.009.032.01.041a.2.2,0,0,1-.153.223.178.178,0,0,1-.04,0" transform="translate(-36.639 -73.061)" fill="#4c5b52"/><path d="M60.606,120.421c-.007-.026-.013-.048-.017-.062a.219.219,0,0,0,.017.062" transform="translate(-36.955 -73.41)" fill="#da302b"/><path d="M60.3,120.313a.2.2,0,0,1-.177-.113.423.423,0,0,1-.032-.11.2.2,0,0,1,.381-.083l.016.058a.195.195,0,0,1-.188.248" transform="translate(-36.649 -73.106)" fill="#4c5b52"/><path d="M69.77,104.9s2.55-.492,2.25-2.564a1.768,1.768,0,0,0-2.064-1.419,2.96,2.96,0,0,0-2.06,1.83l.616-3.327-1.247-2.392v11.5l.011.02.6-.877-.176-.992a1.283,1.283,0,0,0,.915.7c.913.163,1.279-.88,1.368-1.2-.213.457-1.855,1.227-2.075-.435-.013-.1-.021-.19-.028-.281h.747a.09.09,0,0,0,.09-.091v-.264a.09.09,0,0,0-.09-.09.091.091,0,0,0,.09-.091v-.265a.091.091,0,0,0-.09-.09h-.711A2.275,2.275,0,0,1,69,103a1.3,1.3,0,0,1,1.563.1c.686,1.006-.791,1.8-.791,1.8" transform="translate(-41.026 -59.18)" fill="#da302b"/><path d="M44.628,77.462A14.494,14.494,0,0,1,30.15,62.984V42.965a.39.39,0,0,1,.39-.39H58.715a.39.39,0,0,1,.39.39V62.984A14.494,14.494,0,0,1,44.628,77.462M30.93,43.355V62.984a13.7,13.7,0,1,0,27.4,0V43.355Z" transform="translate(-18.389 -25.967)" fill="#4c5b52"/><path d="M160.66,50.987a2.073,2.073,0,0,1,.573.071v8.285a1.369,1.369,0,0,1-.866,0V54.381c0-1.006.012-1.931.058-2.34h-.035a13.913,13.913,0,0,1-.8,1.72l-1.954,3.464a.866.866,0,0,1-.293.046.725.725,0,0,1-.269-.046c-.62-1.147-1.252-2.282-1.872-3.44a11.542,11.542,0,0,1-.807-1.744h-.035a16.715,16.715,0,0,1,.094,2.282v5.02a.9.9,0,0,1-.4.07.96.96,0,0,1-.4-.07V51.058a1.723,1.723,0,0,1,.527-.071,2.142,2.142,0,0,1,.527.071l2.036,3.721a10.727,10.727,0,0,1,.609,1.322h.046a4.457,4.457,0,0,1,.4-.866c.772-1.393,1.533-2.785,2.294-4.177a2.2,2.2,0,0,1,.562-.071" transform="translate(-93.722 -31.098)" fill="#949d97"/><path d="M178.022,56.867a1.28,1.28,0,0,1,.421-.059,1.12,1.12,0,0,1,.421.059v4.294c0,.807.421,1.217,1.276,1.217a1.9,1.9,0,0,0,1.627-1.065V56.867a1.2,1.2,0,0,1,.421-.059,1.12,1.12,0,0,1,.421.059V62.9a1.12,1.12,0,0,1-.421.059,1.2,1.2,0,0,1-.421-.059v-.737a2.422,2.422,0,0,1-1.943.913,1.648,1.648,0,0,1-1.8-1.755Z" transform="translate(-108.579 -34.648)" fill="#949d97"/><path d="M199.169,62.721a1.28,1.28,0,0,1-.421.059,1.12,1.12,0,0,1-.421-.059V58.426a1.1,1.1,0,0,0-1.264-1.217,1.9,1.9,0,0,0-1.638,1.065v4.447a1.2,1.2,0,0,1-.421.059,1.12,1.12,0,0,1-.421-.059V56.683a1.12,1.12,0,0,1,.421-.059,1.2,1.2,0,0,1,.421.059v.737a2.4,2.4,0,0,1,1.943-.913,1.648,1.648,0,0,1,1.8,1.755Z" transform="translate(-118.68 -34.465)" fill="#949d97"/><path d="M211.952,51.96a1.556,1.556,0,0,1-.48.059,1.467,1.467,0,0,1-.48-.059v-.854a1.467,1.467,0,0,1,.48-.059,1.556,1.556,0,0,1,.48.059Zm-.059,7.431a1.2,1.2,0,0,1-.421.059,1.048,1.048,0,0,1-.421-.059V53.352a1.048,1.048,0,0,1,.421-.059,1.2,1.2,0,0,1,.421.059Z" transform="translate(-128.689 -31.135)" fill="#949d97"/><path d="M218.349,59.7c0,1.673.573,2.446,1.837,2.446a2.816,2.816,0,0,0,1.135-.222.851.851,0,0,1,.269.62,3.121,3.121,0,0,1-1.6.351c-1.638,0-2.516-1.111-2.516-3.194s.878-3.194,2.516-3.194a3.02,3.02,0,0,1,1.474.28.821.821,0,0,1-.257.632,2.642,2.642,0,0,0-1.065-.2c-1.252,0-1.79.819-1.79,2.481" transform="translate(-132.64 -34.465)" fill="#949d97"/><path d="M232.471,51.96a1.556,1.556,0,0,1-.48.059,1.467,1.467,0,0,1-.48-.059v-.854a1.467,1.467,0,0,1,.48-.059,1.556,1.556,0,0,1,.48.059Zm-.059,7.431a1.2,1.2,0,0,1-.421.059,1.048,1.048,0,0,1-.421-.059V53.352a1.048,1.048,0,0,1,.421-.059,1.2,1.2,0,0,1,.421.059Z" transform="translate(-141.203 -31.135)" fill="#949d97"/><path d="M241.355,56.507c1.369,0,2.247.807,2.247,3.194s-.878,3.195-2.247,3.195a1.908,1.908,0,0,1-1.8-.913v3.534a1.547,1.547,0,0,1-.843,0V56.683a1.547,1.547,0,0,1,.843,0v.737a1.908,1.908,0,0,1,1.8-.913m-.281.714a1.584,1.584,0,0,0-1.521,1.709v1.509a1.6,1.6,0,0,0,1.521,1.744c1.147,0,1.65-.632,1.65-2.481s-.5-2.481-1.65-2.481" transform="translate(-145.594 -34.465)" fill="#949d97"/><path d="M256.84,56.507c1.673,0,2.119.807,2.119,2.364v3.85a.756.756,0,0,1-.339.059.889.889,0,0,1-.339-.059l-.129-.878a2.03,2.03,0,0,1-1.966,1.053,1.69,1.69,0,0,1-1.814-1.872c0-1.228.737-1.826,2.212-1.826a13.326,13.326,0,0,1,1.533.094V58.66c0-.995-.421-1.428-1.381-1.428a5.116,5.116,0,0,0-1.638.293.564.564,0,0,1-.2-.257.877.877,0,0,1-.059-.362,5.427,5.427,0,0,1,2-.4m-.14,3.3c-.971,0-1.451.351-1.451,1.217a1.068,1.068,0,0,0,1.205,1.194,1.676,1.676,0,0,0,1.662-1.849V59.9c-.27-.023-.855-.094-1.416-.094" transform="translate(-155.146 -34.465)" fill="#949d97"/><path d="M271.834,58.8a1.2,1.2,0,0,1-.421.059,1.048,1.048,0,0,1-.421-.059V50.146a1.041,1.041,0,0,1,.421-.059,1.19,1.19,0,0,1,.421.059Z" transform="translate(-165.283 -30.549)" fill="#949d97"/><path d="M279,51.96a1.556,1.556,0,0,1-.48.059,1.466,1.466,0,0,1-.48-.059v-.854a1.466,1.466,0,0,1,.48-.059,1.556,1.556,0,0,1,.48.059Zm-.059,7.431a1.2,1.2,0,0,1-.421.059,1.05,1.05,0,0,1-.421-.059V53.352a1.05,1.05,0,0,1,.421-.059,1.2,1.2,0,0,1,.421.059Z" transform="translate(-169.583 -31.135)" fill="#949d97"/><path d="M289.021,50.087a1.123,1.123,0,0,1,.422.059V58.8a1,1,0,0,1-.351.059,1.141,1.141,0,0,1-.374-.059l-.082-.784a1.95,1.95,0,0,1-1.837.96c-1.369,0-2.246-.807-2.246-3.195s.878-3.194,2.246-3.194a1.932,1.932,0,0,1,1.8.913V50.146a1.12,1.12,0,0,1,.421-.059m-1.942,3.218c-1.135,0-1.65.632-1.65,2.481s.514,2.481,1.65,2.481a1.6,1.6,0,0,0,1.521-1.744v-1.5a1.6,1.6,0,0,0-1.521-1.72" transform="translate(-173.554 -30.549)" fill="#949d97"/><path d="M303.339,56.507c1.673,0,2.118.807,2.118,2.364v3.85a.754.754,0,0,1-.339.059.889.889,0,0,1-.339-.059l-.129-.878a2.03,2.03,0,0,1-1.966,1.053,1.69,1.69,0,0,1-1.814-1.872c0-1.228.738-1.826,2.212-1.826a13.326,13.326,0,0,1,1.533.094V58.66c0-.995-.421-1.428-1.38-1.428a5.116,5.116,0,0,0-1.638.293.562.562,0,0,1-.2-.257.874.874,0,0,1-.059-.362,5.431,5.431,0,0,1,2-.4m-.14,3.3c-.971,0-1.451.351-1.451,1.217a1.068,1.068,0,0,0,1.205,1.194,1.676,1.676,0,0,0,1.662-1.849V59.9c-.269-.023-.854-.094-1.416-.094" transform="translate(-183.507 -34.465)" fill="#949d97"/><path d="M321.121,50.087a1.124,1.124,0,0,1,.422.059V58.8a1,1,0,0,1-.351.059,1.141,1.141,0,0,1-.374-.059l-.082-.784a1.95,1.95,0,0,1-1.837.96c-1.369,0-2.246-.807-2.246-3.195s.878-3.194,2.246-3.194a1.933,1.933,0,0,1,1.8.913V50.146a1.12,1.12,0,0,1,.421-.059m-1.943,3.218c-1.135,0-1.65.632-1.65,2.481s.515,2.481,1.65,2.481a1.6,1.6,0,0,0,1.521-1.744v-1.5a1.6,1.6,0,0,0-1.521-1.72" transform="translate(-193.132 -30.549)" fill="#949d97"/><path d="M155.908,88.447a8.187,8.187,0,0,1,2.949.477,2.547,2.547,0,0,1-.562,1.657,7.821,7.821,0,0,0-2.036-.281c-1.208,0-1.783.365-1.783,1.081,0,.772,1.165.955,2.345,1.376,1.235.449,2.471,1.151,2.471,2.991,0,2.036-1.25,3.145-3.791,3.145a7.7,7.7,0,0,1-3.355-.688,3.13,3.13,0,0,1,.533-1.713,9.237,9.237,0,0,0,2.668.435c1.109,0,1.615-.365,1.615-1.081,0-.646-.632-.927-1.446-1.208-1.4-.463-3.314-.885-3.314-3.1,0-1.84,1.166-3.089,3.707-3.089" transform="translate(-92.797 -53.946)" fill="#4c5b52"/><path d="M175.713,95.394c2.106,0,2.963.829,2.963,2.6v4.858a2.883,2.883,0,0,1-.9.112,3.108,3.108,0,0,1-.9-.112l-.253-.688a2,2,0,0,1-1.966.941c-1.39,0-2.176-.8-2.176-2.443,0-1.6.969-2.261,2.808-2.261.421,0,.857.028,1.222.056V98.23c0-.632-.295-1.067-1.151-1.067a5.469,5.469,0,0,0-1.713.323,1.637,1.637,0,0,1-.463-.66,1.751,1.751,0,0,1-.14-.856,6.314,6.314,0,0,1,2.668-.576m-.1,4.324c-.617,0-.969.267-.969.955,0,.73.294.983.814.983.772,0,1.053-.73,1.053-1.475v-.421c-.281-.028-.59-.042-.9-.042" transform="translate(-105.202 -58.183)" fill="#4c5b52"/><path d="M198.332,102.85a4.06,4.06,0,0,1-1.081.112,3.929,3.929,0,0,1-1.081-.112V97.935c0-.519-.253-.842-.9-.842a1.447,1.447,0,0,0-.969.393v5.364a4.191,4.191,0,0,1-1.081.112,3.932,3.932,0,0,1-1.081-.112v-7.2a3.932,3.932,0,0,1,1.081-.112,4.191,4.191,0,0,1,1.081.112v.421a2.714,2.714,0,0,1,1.882-.674,1.946,1.946,0,0,1,2.148,2.106Z" transform="translate(-117.19 -58.183)" fill="#4c5b52"/><path d="M221.059,88.879a6.3,6.3,0,0,1,1.418.126l3.2,9.857a4.245,4.245,0,0,1-1.18.127,3.513,3.513,0,0,1-1.081-.127l-.66-2.05h-3.524l-.66,2.05a4.039,4.039,0,0,1-1.1.127,3.582,3.582,0,0,1-1.039-.127l3.2-9.857a6.77,6.77,0,0,1,1.418-.126m-.1,2.106a10.556,10.556,0,0,1-.379,1.643l-.829,2.541h2.486l-.814-2.541a11.28,11.28,0,0,1-.407-1.643Z" transform="translate(-132.011 -54.209)" fill="#4c5b52"/><path d="M248.551,102.85a4.058,4.058,0,0,1-1.081.112,3.93,3.93,0,0,1-1.081-.112V97.935c0-.519-.253-.842-.9-.842a1.446,1.446,0,0,0-.969.393v5.364a4.191,4.191,0,0,1-1.081.112,3.934,3.934,0,0,1-1.081-.112v-7.2a3.934,3.934,0,0,1,1.081-.112,4.191,4.191,0,0,1,1.081.112v.421a2.713,2.713,0,0,1,1.881-.674,1.946,1.946,0,0,1,2.148,2.106Z" transform="translate(-147.82 -58.183)" fill="#4c5b52"/><path d="M263.847,98c0,.969.393,1.194,1.137,1.194a3.284,3.284,0,0,0,.562-.056,2,2,0,0,1,.169.856,2.213,2.213,0,0,1-.1.7,4.794,4.794,0,0,1-1.263.155c-1.9,0-2.668-.843-2.668-2.794V94.874h-1.011a2.624,2.624,0,0,1-.1-.758,2.491,2.491,0,0,1,.1-.786h1.011v-1.25a4.123,4.123,0,0,1,2.163-.351v1.6h1.516a2.552,2.552,0,0,1,.1.772,2.917,2.917,0,0,1-.1.772h-1.516Z" transform="translate(-158.93 -55.936)" fill="#4c5b52"/><path d="M278.877,95.394c2.078,0,3.384,1.053,3.384,3.847s-1.32,3.862-3.384,3.862-3.4-1.068-3.4-3.862,1.334-3.847,3.4-3.847m0,1.643c-.73,0-1.152.435-1.152,2.2s.421,2.233,1.152,2.233,1.137-.463,1.137-2.233-.421-2.2-1.137-2.2" transform="translate(-168.021 -58.183)" fill="#4c5b52"/><path d="M302.263,102.85a4.064,4.064,0,0,1-1.081.112,3.934,3.934,0,0,1-1.081-.112V97.935c0-.519-.252-.842-.9-.842a1.447,1.447,0,0,0-.969.393v5.364a4.191,4.191,0,0,1-1.081.112,3.928,3.928,0,0,1-1.081-.112v-7.2a3.928,3.928,0,0,1,1.081-.112,4.191,4.191,0,0,1,1.081.112v.421a2.714,2.714,0,0,1,1.881-.674,1.946,1.946,0,0,1,2.149,2.106Z" transform="translate(-180.58 -58.183)" fill="#4c5b52"/><path d="M317.961,89.306a4.324,4.324,0,0,1-1.081.112,3.934,3.934,0,0,1-1.081-.112V87.551a3.81,3.81,0,0,1,1.081-.112,4.324,4.324,0,0,1,1.081.112Zm0,8.691a4.324,4.324,0,0,1-1.081.112A3.934,3.934,0,0,1,315.8,98V90.78a3.822,3.822,0,0,1,1.081-.112,4.338,4.338,0,0,1,1.081.112Z" transform="translate(-192.613 -53.331)" fill="#4c5b52"/><path d="M327.981,95.394c2.078,0,3.384,1.053,3.384,3.847s-1.32,3.862-3.384,3.862-3.4-1.068-3.4-3.862,1.334-3.847,3.4-3.847m0,1.643c-.73,0-1.151.435-1.151,2.2s.421,2.233,1.151,2.233,1.137-.463,1.137-2.233-.421-2.2-1.137-2.2" transform="translate(-197.97 -58.183)" fill="#4c5b52"/><path d="M357.158,87.8a4.131,4.131,0,0,1,1.067.112V98.217a3.877,3.877,0,0,1-.969.112,3.928,3.928,0,0,1-.983-.112l-.1-.576a2.214,2.214,0,0,1-1.9.829c-1.573,0-2.626-.969-2.626-3.833s1-3.875,2.626-3.875a2.192,2.192,0,0,1,1.783.716V87.91a4.524,4.524,0,0,1,1.095-.112m-2.106,4.648c-.758,0-1.137.407-1.137,2.19,0,1.727.38,2.148,1.137,2.148.632,0,1-.505,1.011-1.179V93.611c-.028-.674-.393-1.165-1.011-1.165" transform="translate(-214.481 -53.55)" fill="#4c5b52"/><path d="M373.96,99.887c.14,1.151.674,1.446,1.517,1.446a3.389,3.389,0,0,0,1.488-.337,2.225,2.225,0,0,1,.66,1.474,4.38,4.38,0,0,1-2.5.632c-2.3,0-3.384-1.207-3.384-3.819,0-2.667,1.249-3.889,3.286-3.889a2.6,2.6,0,0,1,2.892,2.948,7.01,7.01,0,0,1-.154,1.545Zm1.109-2.921c-.576,0-1.011.407-1.123,1.572h2.008a4.239,4.239,0,0,0,.028-.435c0-.646-.239-1.137-.913-1.137" transform="translate(-226.733 -58.183)" fill="#4c5b52"/><path d="M399.87,88.879a6.3,6.3,0,0,1,1.418.126l3.2,9.857a4.245,4.245,0,0,1-1.18.127,3.508,3.508,0,0,1-1.081-.127l-.66-2.05h-3.524l-.66,2.05a4.039,4.039,0,0,1-1.1.127,3.585,3.585,0,0,1-1.039-.127l3.2-9.857a6.771,6.771,0,0,1,1.418-.126m-.1,2.106a10.528,10.528,0,0,1-.38,1.643l-.828,2.541h2.485l-.814-2.541a11.307,11.307,0,0,1-.407-1.643Z" transform="translate(-241.071 -54.209)" fill="#4c5b52"/><path d="M424.876,95.394a2.171,2.171,0,0,1,1.236.393,2.46,2.46,0,0,1-.913,1.741,1.106,1.106,0,0,0-.73-.281,1.467,1.467,0,0,0-1.137.646v4.956a4.465,4.465,0,0,1-1.081.112,4.065,4.065,0,0,1-1.082-.112V95.632a4.078,4.078,0,0,1,1.082-.112,2.536,2.536,0,0,1,.941.112l.056.745a1.939,1.939,0,0,1,1.629-.983" transform="translate(-256.88 -58.183)" fill="#4c5b52"/><path d="M436.852,99.887c.14,1.151.674,1.446,1.517,1.446a3.389,3.389,0,0,0,1.488-.337,2.225,2.225,0,0,1,.66,1.474,4.38,4.38,0,0,1-2.5.632c-2.3,0-3.384-1.207-3.384-3.819,0-2.667,1.25-3.889,3.286-3.889a2.6,2.6,0,0,1,2.892,2.948,7,7,0,0,1-.155,1.545Zm1.109-2.921c-.576,0-1.011.407-1.123,1.572h2.008a4.257,4.257,0,0,0,.028-.435c0-.646-.239-1.137-.913-1.137" transform="translate(-265.093 -58.183)" fill="#4c5b52"/><path d="M455.082,99.256c0,1.5.449,2.078,1.517,2.078a3.118,3.118,0,0,0,1.151-.211,2.369,2.369,0,0,1,.618,1.489,4.149,4.149,0,0,1-2.247.492c-2.19,0-3.272-1.236-3.272-3.834,0-2.569,1.067-3.875,3.272-3.875a4.017,4.017,0,0,1,2.106.435,2.207,2.207,0,0,1-.618,1.474,2.828,2.828,0,0,0-1.067-.2c-1.067,0-1.46.632-1.46,2.148" transform="translate(-276.202 -58.183)" fill="#4c5b52"/><path d="M471.944,95.394c2.078,0,3.384,1.053,3.384,3.847s-1.32,3.862-3.384,3.862-3.4-1.068-3.4-3.862,1.334-3.847,3.4-3.847m0,1.643c-.73,0-1.151.435-1.151,2.2s.421,2.233,1.151,2.233,1.138-.463,1.138-2.233-.421-2.2-1.138-2.2" transform="translate(-285.776 -58.183)" fill="#4c5b52"/></g></svg>