<svg xmlns="http://www.w3.org/2000/svg" width="174" height="172.397" viewBox="0 0 174 172.397">
  <g id="Grupo_457" data-name="Grupo 457" transform="translate(-97 -2638.37)">
    <g id="Grupo_467" data-name="Grupo 467" transform="translate(24 -58)">
      <path id="Trazado_234" data-name="Trazado 234" d="M69.406,167.461c-.087.6-1.079.663-1.079.663.221,2.661-2.55,1.076-2.133.966a.791.791,0,0,0,.661-.966l-3.126-.019v2.968a.79.79,0,0,0,.967-.657c.11-.42,1.693,2.352-.967,2.133,0,0-.066.99-.658,1.076h-.013c-.6-.086-.632-1.076-.632-1.076-2.663.22-1.078-2.553-.969-2.133a.792.792,0,0,0,.969.657l-.008-2.968-3.044-.018a.789.789,0,0,0,.658.966c.42.111-2.35,1.691-2.133-.966,0,0-.984-.06-1.071-.655l0-.031c.087-.594,1.068-.619,1.068-.619-.218-2.661,2.553-1.077,2.133-.967a.79.79,0,0,0-.658.967l3.128.018v-2.969a.793.793,0,0,0-.97.658c-.108.418-1.694-2.354.97-2.134,0,0,.066-.99.659-1.076h.012c.592.086.63,1.076.63,1.076,2.66-.22,1.076,2.552.967,2.134a.79.79,0,0,0-.967-.658V166.8l3.051.019a.791.791,0,0,0-.661-.966c-.417-.111,2.354-1.7,2.133.966,0,0,.988.008,1.077.6Z" transform="translate(97.068 2632.976)" fill="#da302b"/>
      <path id="Trazado_235" data-name="Trazado 235" d="M69.406,167.461c-.087.6-1.079.663-1.079.663.221,2.661-2.55,1.076-2.133.966a.791.791,0,0,0,.661-.966l-3.126-.019v2.968a.79.79,0,0,0,.967-.657c.11-.42,1.693,2.352-.967,2.133,0,0-.066.99-.658,1.076h-.013c-.6-.086-.632-1.076-.632-1.076-2.663.22-1.078-2.553-.969-2.133a.792.792,0,0,0,.969.657l-.008-2.968-3.044-.018a.789.789,0,0,0,.658.966c.42.111-2.35,1.691-2.133-.966,0,0-.984-.06-1.071-.655l0-.031c.087-.594,1.068-.619,1.068-.619-.218-2.661,2.553-1.077,2.133-.967a.79.79,0,0,0-.658.967l3.128.018v-2.969a.793.793,0,0,0-.97.658c-.108.418-1.694-2.354.97-2.134,0,0,.066-.99.659-1.076h.012c.592.086.63,1.076.63,1.076,2.66-.22,1.076,2.552.967,2.134a.79.79,0,0,0-.967-.658V166.8l3.051.019a.791.791,0,0,0-.661-.966c-.417-.111,2.354-1.7,2.133.966,0,0,.988.008,1.077.6Z" transform="translate(97.068 2632.976)" fill="none" stroke="#4c5b52" stroke-linejoin="round" stroke-width="0.5"/>
      <g id="Grupo_465" data-name="Grupo 465" transform="translate(120 2718.042)">
        <path id="Trazado_218" data-name="Trazado 218" d="M94.813,130.695a34.481,34.481,0,0,1-25.288,11c-.088,0-.176-.006-.264-.007a34.481,34.481,0,0,1,25.288-11c.089,0,.176.006.265.007" transform="translate(-27.838 -73.088)" fill="#fff" stroke="#707070" stroke-width="1"/>
        <path id="Trazado_219" data-name="Trazado 219" d="M94.813,130.695a34.481,34.481,0,0,1-25.288,11c-.088,0-.176-.006-.264-.007a34.481,34.481,0,0,1,25.288-11C94.638,130.688,94.725,130.694,94.813,130.695Z" transform="translate(-27.838 -73.088)" fill="none" stroke="#4c5b52" stroke-linecap="round" stroke-linejoin="round" stroke-width="1"/>
        <line id="Línea_1" data-name="Línea 1" y1="10.997" x2="25.552" transform="translate(41.423 57.607)" fill="none" stroke="#4c5b52" stroke-linecap="round" stroke-linejoin="round" stroke-width="1"/>
        <path id="Trazado_220" data-name="Trazado 220" d="M23.734,130.695a34.481,34.481,0,0,0,25.288,11c.088,0,.176-.006.264-.007a34.481,34.481,0,0,0-25.288-11c-.089,0-.176.006-.265.007" transform="translate(-9.938 -73.088)" fill="#fff" stroke="#707070" stroke-width="1"/>
        <path id="Trazado_221" data-name="Trazado 221" d="M23.734,130.695a34.481,34.481,0,0,0,25.288,11c.088,0,.176-.006.264-.007a34.481,34.481,0,0,0-25.288-11C23.91,130.688,23.823,130.694,23.734,130.695Z" transform="translate(-9.938 -73.088)" fill="none" stroke="#4c5b52" stroke-linecap="round" stroke-linejoin="round" stroke-width="1"/>
        <line id="Línea_2" data-name="Línea 2" x2="25.552" y2="10.997" transform="translate(13.796 57.606)" fill="none" stroke="#4c5b52" stroke-linecap="round" stroke-linejoin="round" stroke-width="1"/>
        <path id="Trazado_222" data-name="Trazado 222" d="M118.006,77.3a34.481,34.481,0,0,1-4.256,27.248c-.047.075-.1.145-.147.22a34.479,34.479,0,0,1,4.256-27.248c.047-.075.1-.145.147-.22" transform="translate(-44.794 -52.187)" fill="#fff" stroke="#707070" stroke-width="1"/>
        <path id="Trazado_223" data-name="Trazado 223" d="M118.006,77.3a34.481,34.481,0,0,1-4.256,27.248c-.047.075-.1.145-.147.22a34.479,34.479,0,0,1,4.256-27.248C117.906,77.449,117.958,77.378,118.006,77.3Z" transform="translate(-44.794 -52.187)" fill="none" stroke="#4c5b52" stroke-linecap="round" stroke-linejoin="round" stroke-width="1"/>
        <line id="Línea_3" data-name="Línea 3" y1="27.248" x2="4.256" transform="translate(68.957 25.117)" fill="none" stroke="#4c5b52" stroke-linecap="round" stroke-linejoin="round" stroke-width="1"/>
        <path id="Trazado_224" data-name="Trazado 224" d="M90.909,36.338a34.48,34.48,0,0,1,19.14,19.856c.031.083.056.167.086.25a34.484,34.484,0,0,1-19.14-19.856c-.03-.083-.055-.167-.086-.25" transform="translate(-36.348 -36.147)" fill="#fff" stroke="#707070" stroke-width="1"/>
        <path id="Trazado_225" data-name="Trazado 225" d="M90.909,36.338a34.48,34.48,0,0,1,19.14,19.856c.031.083.056.167.086.25a34.484,34.484,0,0,1-19.14-19.856C90.964,36.505,90.939,36.421,90.909,36.338Z" transform="translate(-36.348 -36.147)" fill="none" stroke="#4c5b52" stroke-linecap="round" stroke-linejoin="round" stroke-width="1"/>
        <line id="Línea_4" data-name="Línea 4" x2="19.226" y2="20.106" transform="translate(54.561 0.191)" fill="none" stroke="#4c5b52" stroke-linecap="round" stroke-linejoin="round" stroke-width="1"/>
        <path id="Trazado_226" data-name="Trazado 226" d="M31.281,36.024A34.478,34.478,0,0,0,12.341,56.07c-.03.083-.054.168-.084.251A34.482,34.482,0,0,0,31.2,36.275c.03-.084.054-.168.083-.251" transform="translate(-5.408 -36.024)" fill="#fff" stroke="#707070" stroke-width="1"/>
        <path id="Trazado_227" data-name="Trazado 227" d="M31.281,36.024A34.478,34.478,0,0,0,12.341,56.07c-.03.083-.054.168-.084.251A34.482,34.482,0,0,0,31.2,36.275C31.228,36.191,31.252,36.107,31.281,36.024Z" transform="translate(-5.408 -36.024)" fill="none" stroke="#4c5b52" stroke-linecap="round" stroke-linejoin="round" stroke-width="1"/>
        <line id="Línea_5" data-name="Línea 5" y1="20.046" x2="18.94" transform="translate(6.849 0.251)" fill="none" stroke="#4c5b52" stroke-linecap="round" stroke-linejoin="round" stroke-width="1"/>
        <path id="Trazado_236" data-name="Trazado 236" d="M10.519,77.3a34.481,34.481,0,0,0,4.256,27.248c.047.075.1.145.147.22a34.479,34.479,0,0,0-4.256-27.248c-.047-.075-.1-.145-.147-.22" transform="translate(-4.287 -52.187)" fill="#fff" stroke="#707070" stroke-width="1"/>
        <path id="Trazado_237" data-name="Trazado 237" d="M10.519,77.3a34.481,34.481,0,0,0,4.256,27.248c.047.075.1.145.147.22a34.479,34.479,0,0,0-4.256-27.248C10.618,77.449,10.567,77.378,10.519,77.3Z" transform="translate(-4.287 -52.187)" fill="none" stroke="#4c5b52" stroke-linecap="round" stroke-linejoin="round" stroke-width="1"/>
        <line id="Línea_8" data-name="Línea 8" x2="4.256" y2="27.248" transform="translate(6.231 25.117)" fill="none" stroke="#4c5b52" stroke-linecap="round" stroke-linejoin="round" stroke-width="1"/>
        <path id="Trazado_238" data-name="Trazado 238" d="M21.551,123.685a5.1,5.1,0,1,0-5.1,5.1,5.1,5.1,0,0,0,5.1-5.1" transform="translate(-5.056 -68.351)" fill="#fff" stroke="#707070" stroke-width="1"/>
        <path id="Trazado_239" data-name="Trazado 239" d="M21.551,123.685a5.1,5.1,0,1,0-5.1,5.1A5.1,5.1,0,0,0,21.551,123.685Z" transform="translate(-5.056 -68.351)" fill="none" stroke="#4c5b52" stroke-linecap="round" stroke-linejoin="round" stroke-width="1"/>
        <path id="Trazado_240" data-name="Trazado 240" d="M9.7,60.46h0a2.5,2.5,0,0,0,2.036,1.176h0a2.5,2.5,0,0,1,2.122,3.677,2.5,2.5,0,0,0,0,2.351,2.5,2.5,0,0,1-2.122,3.677h0A2.5,2.5,0,0,0,9.7,72.516a2.5,2.5,0,0,1-4.246,0A2.5,2.5,0,0,0,3.419,71.34,2.5,2.5,0,0,1,1.3,67.663a2.5,2.5,0,0,0,0-2.351,2.5,2.5,0,0,1,2.122-3.677A2.5,2.5,0,0,0,5.455,60.46a2.5,2.5,0,0,1,4.246,0" transform="translate(-1 -45.131)" fill="#fff" stroke="#707070" stroke-width="1"/>
        <path id="Trazado_241" data-name="Trazado 241" d="M9.7,60.46h0a2.5,2.5,0,0,0,2.036,1.176h0a2.5,2.5,0,0,1,2.122,3.677,2.5,2.5,0,0,0,0,2.351,2.5,2.5,0,0,1-2.122,3.677h0A2.5,2.5,0,0,0,9.7,72.516a2.5,2.5,0,0,1-4.246,0A2.5,2.5,0,0,0,3.419,71.34,2.5,2.5,0,0,1,1.3,67.663a2.5,2.5,0,0,0,0-2.351,2.5,2.5,0,0,1,2.122-3.677A2.5,2.5,0,0,0,5.455,60.46,2.5,2.5,0,0,1,9.7,60.46Z" transform="translate(-1 -45.131)" fill="none" stroke="#4c5b52" stroke-linecap="round" stroke-linejoin="round" stroke-width="1"/>
        <path id="Trazado_242" data-name="Trazado 242" d="M12.87,69.251A2.97,2.97,0,1,1,9.9,66.34a2.941,2.941,0,0,1,2.969,2.911" transform="translate(-3.322 -47.894)" fill="#fff" stroke="#707070" stroke-width="1"/>
        <path id="Trazado_243" data-name="Trazado 243" d="M12.87,69.251A2.97,2.97,0,1,1,9.9,66.34,2.941,2.941,0,0,1,12.87,69.251Z" transform="translate(-3.322 -47.894)" fill="none" stroke="#4c5b52" stroke-linecap="round" stroke-linejoin="round" stroke-width="1"/>
        <path id="Trazado_244" data-name="Trazado 244" d="M17.624,116.3h0a2.5,2.5,0,0,0,2.037,1.176,2.5,2.5,0,0,1,2.122,3.677,2.5,2.5,0,0,0,0,2.351,2.5,2.5,0,0,1-2.122,3.677,2.5,2.5,0,0,0-2.037,1.176,2.5,2.5,0,0,1-4.246,0,2.5,2.5,0,0,0-2.036-1.176A2.5,2.5,0,0,1,9.219,123.5a2.5,2.5,0,0,0,0-2.351,2.5,2.5,0,0,1,2.123-3.677,2.5,2.5,0,0,0,2.036-1.176,2.5,2.5,0,0,1,4.246,0" transform="translate(-4.102 -66.994)" fill="#fff" stroke="#707070" stroke-width="1"/>
        <path id="Trazado_245" data-name="Trazado 245" d="M17.624,116.3h0a2.5,2.5,0,0,0,2.037,1.176,2.5,2.5,0,0,1,2.122,3.677,2.5,2.5,0,0,0,0,2.351,2.5,2.5,0,0,1-2.122,3.677,2.5,2.5,0,0,0-2.037,1.176,2.5,2.5,0,0,1-4.246,0,2.5,2.5,0,0,0-2.036-1.176A2.5,2.5,0,0,1,9.219,123.5a2.5,2.5,0,0,0,0-2.351,2.5,2.5,0,0,1,2.123-3.677,2.5,2.5,0,0,0,2.036-1.176A2.5,2.5,0,0,1,17.624,116.3Z" transform="translate(-4.102 -66.994)" fill="none" stroke="#4c5b52" stroke-linecap="round" stroke-linejoin="round" stroke-width="1"/>
        <path id="Trazado_246" data-name="Trazado 246" d="M20.793,125.092a2.97,2.97,0,1,1-2.969-2.911,2.941,2.941,0,0,1,2.969,2.911" transform="translate(-6.425 -69.758)" fill="#fff" stroke="#707070" stroke-width="1"/>
        <path id="Trazado_247" data-name="Trazado 247" d="M20.793,125.092a2.97,2.97,0,1,1-2.969-2.911A2.941,2.941,0,0,1,20.793,125.092Z" transform="translate(-6.425 -69.758)" fill="none" stroke="#4c5b52" stroke-linecap="round" stroke-linejoin="round" stroke-width="1"/>
        <path id="Trazado_248" data-name="Trazado 248" d="M65.32,138.12h0a2.5,2.5,0,0,0,2.036,1.176h0a2.5,2.5,0,0,1,2.122,3.677,2.5,2.5,0,0,0,0,2.351A2.5,2.5,0,0,1,67.356,149h0a2.5,2.5,0,0,0-2.036,1.176,2.5,2.5,0,0,1-4.246,0A2.5,2.5,0,0,0,59.038,149a2.5,2.5,0,0,1-2.123-3.677,2.5,2.5,0,0,0,0-2.351,2.5,2.5,0,0,1,2.123-3.677,2.5,2.5,0,0,0,2.036-1.176,2.5,2.5,0,0,1,4.246,0" transform="translate(-22.851 -75.537)" fill="#fff" stroke="#707070" stroke-width="1"/>
        <path id="Trazado_249" data-name="Trazado 249" d="M65.32,138.12h0a2.5,2.5,0,0,0,2.036,1.176h0a2.5,2.5,0,0,1,2.122,3.677,2.5,2.5,0,0,0,0,2.351A2.5,2.5,0,0,1,67.356,149h0a2.5,2.5,0,0,0-2.036,1.176,2.5,2.5,0,0,1-4.246,0A2.5,2.5,0,0,0,59.038,149a2.5,2.5,0,0,1-2.123-3.677,2.5,2.5,0,0,0,0-2.351,2.5,2.5,0,0,1,2.123-3.677,2.5,2.5,0,0,0,2.036-1.176A2.5,2.5,0,0,1,65.32,138.12Z" transform="translate(-22.851 -75.537)" fill="none" stroke="#4c5b52" stroke-linecap="round" stroke-linejoin="round" stroke-width="1"/>
        <path id="Trazado_250" data-name="Trazado 250" d="M68.489,146.912A2.97,2.97,0,1,1,65.519,144a2.941,2.941,0,0,1,2.969,2.911" transform="translate(-25.173 -78.301)" fill="#fff" stroke="#707070" stroke-width="1"/>
        <path id="Trazado_251" data-name="Trazado 251" d="M68.489,146.912A2.97,2.97,0,1,1,65.519,144,2.941,2.941,0,0,1,68.489,146.912Z" transform="translate(-25.173 -78.301)" fill="none" stroke="#4c5b52" stroke-linecap="round" stroke-linejoin="round" stroke-width="1"/>
        <path id="Trazado_252" data-name="Trazado 252" d="M115.551,60.46h0a2.5,2.5,0,0,1-2.037,1.176,2.5,2.5,0,0,0-2.122,3.677,2.5,2.5,0,0,1,0,2.351,2.5,2.5,0,0,0,2.122,3.677,2.5,2.5,0,0,1,2.037,1.176,2.5,2.5,0,0,0,4.246,0,2.5,2.5,0,0,1,2.036-1.176,2.5,2.5,0,0,0,2.123-3.677,2.5,2.5,0,0,1,0-2.351,2.5,2.5,0,0,0-2.123-3.677A2.5,2.5,0,0,1,119.8,60.46a2.5,2.5,0,0,0-4.246,0" transform="translate(-44.252 -45.131)" fill="#fff" stroke="#707070" stroke-width="1"/>
        <path id="Trazado_253" data-name="Trazado 253" d="M115.551,60.46h0a2.5,2.5,0,0,1-2.037,1.176,2.5,2.5,0,0,0-2.122,3.677,2.5,2.5,0,0,1,0,2.351,2.5,2.5,0,0,0,2.122,3.677,2.5,2.5,0,0,1,2.037,1.176,2.5,2.5,0,0,0,4.246,0,2.5,2.5,0,0,1,2.036-1.176,2.5,2.5,0,0,0,2.123-3.677,2.5,2.5,0,0,1,0-2.351,2.5,2.5,0,0,0-2.123-3.677A2.5,2.5,0,0,1,119.8,60.46,2.5,2.5,0,0,0,115.551,60.46Z" transform="translate(-44.252 -45.131)" fill="none" stroke="#4c5b52" stroke-linecap="round" stroke-linejoin="round" stroke-width="1"/>
        <path id="Trazado_254" data-name="Trazado 254" d="M117.027,69.251A2.97,2.97,0,1,0,120,66.34a2.941,2.941,0,0,0-2.969,2.911" transform="translate(-46.575 -47.894)" fill="#fff" stroke="#707070" stroke-width="1"/>
        <path id="Trazado_255" data-name="Trazado 255" d="M117.027,69.251A2.97,2.97,0,1,0,120,66.34,2.941,2.941,0,0,0,117.027,69.251Z" transform="translate(-46.575 -47.894)" fill="none" stroke="#4c5b52" stroke-linecap="round" stroke-linejoin="round" stroke-width="1"/>
        <path id="Trazado_256" data-name="Trazado 256" d="M107.628,116.3h0a2.5,2.5,0,0,1-2.036,1.176h0a2.5,2.5,0,0,0-2.122,3.677,2.5,2.5,0,0,1,0,2.351,2.5,2.5,0,0,0,2.122,3.677h0a2.5,2.5,0,0,1,2.036,1.176,2.5,2.5,0,0,0,4.246,0,2.5,2.5,0,0,1,2.036-1.176,2.5,2.5,0,0,0,2.123-3.677,2.5,2.5,0,0,1,0-2.351,2.5,2.5,0,0,0-2.123-3.677,2.5,2.5,0,0,1-2.036-1.176,2.5,2.5,0,0,0-4.246,0" transform="translate(-41.15 -66.994)" fill="#fff" stroke="#707070" stroke-width="1"/>
        <path id="Trazado_257" data-name="Trazado 257" d="M107.628,116.3h0a2.5,2.5,0,0,1-2.036,1.176h0a2.5,2.5,0,0,0-2.122,3.677,2.5,2.5,0,0,1,0,2.351,2.5,2.5,0,0,0,2.122,3.677h0a2.5,2.5,0,0,1,2.036,1.176,2.5,2.5,0,0,0,4.246,0,2.5,2.5,0,0,1,2.036-1.176,2.5,2.5,0,0,0,2.123-3.677,2.5,2.5,0,0,1,0-2.351,2.5,2.5,0,0,0-2.123-3.677,2.5,2.5,0,0,1-2.036-1.176A2.5,2.5,0,0,0,107.628,116.3Z" transform="translate(-41.15 -66.994)" fill="none" stroke="#4c5b52" stroke-linecap="round" stroke-linejoin="round" stroke-width="1"/>
        <path id="Trazado_258" data-name="Trazado 258" d="M109.1,125.092a2.97,2.97,0,1,0,2.969-2.911,2.941,2.941,0,0,0-2.969,2.911" transform="translate(-43.472 -69.758)" fill="#fff" stroke="#707070" stroke-width="1"/>
        <path id="Trazado_259" data-name="Trazado 259" d="M109.1,125.092a2.97,2.97,0,1,0,2.969-2.911A2.941,2.941,0,0,0,109.1,125.092Z" transform="translate(-43.472 -69.758)" fill="none" stroke="#4c5b52" stroke-linecap="round" stroke-linejoin="round" stroke-width="1"/>
      </g>
      <g id="Grupo_466" data-name="Grupo 466" transform="translate(130.094 2696.93)">
        <path id="Trazado_228" data-name="Trazado 228" d="M30.685,34.892l-.717-6.78s13.837-5.1,23.2-5.1c0,0,14.74,1.191,21.748,4.592l-.648,6.933Z" transform="translate(-22.436 -9.617)" fill="#f4cd5c" stroke="#707070" stroke-width="1"/>
        <path id="Trazado_229" data-name="Trazado 229" d="M30.685,34.892l-.717-6.78s13.837-5.1,23.2-5.1c0,0,14.74,1.191,21.748,4.592l-.648,6.933Z" transform="translate(-22.436 -9.617)" fill="none" stroke="#4c5b52" stroke-linejoin="round" stroke-width="1"/>
        <path id="Trazado_231" data-name="Trazado 231" d="M75.145,40.468c-5.014-3.138-12.374-5.208-22.114-5.208s-17.1,2.069-22.114,5.208Z" transform="translate(-22.807 -14.414)" fill="none" stroke="#4c5b52" stroke-linejoin="round" stroke-width="1"/>
        <g id="Grupo_464" data-name="Grupo 464" transform="translate(8.111 20.846)">
          <path id="Trazado_230" data-name="Trazado 230" d="M75.145,40.468c-5.014-3.138-12.374-5.208-22.114-5.208s-17.1,2.069-22.114,5.208Z" transform="translate(-30.918 -35.26)" fill="#da302b" stroke="#707070" stroke-width="1"/>
          <path id="Trazado_232" data-name="Trazado 232" d="M52.9,43.576H31.15V74.8A21.973,21.973,0,0,0,52.9,96.771Z" transform="translate(-31.009 -38.516)" fill="#da302b" stroke="#707070" stroke-width="1"/>
          <path id="Trazado_233" data-name="Trazado 233" d="M66.423,43.576H88.782V74.8c0,12.06-10.326,21.847-22.359,21.969Z" transform="translate(-44.965 -38.516)" fill="#fff" stroke="#707070" stroke-width="1"/>
        </g>
        <line id="Línea_6" data-name="Línea 6" y2="53.127" transform="translate(30.153 25.906)" fill="#fff" stroke="#707070" stroke-width="1"/>
        <line id="Línea_7" data-name="Línea 7" y2="53.127" transform="translate(30.153 25.906)" fill="none" stroke="#4c5b52" stroke-linecap="round" stroke-linejoin="round" stroke-width="1"/>
        <path id="Trazado_260" data-name="Trazado 260" d="M55.894,97.076a.416.416,0,0,0,.026-.094c-.007.023-.015.055-.026.094" transform="translate(-32.643 -38.58)" fill="#f4cd5c" stroke="#707070" stroke-width="1"/>
        <path id="Trazado_264" data-name="Trazado 264" d="M55.935,96.951l.012-.047a.383.383,0,0,1-.012.047" transform="translate(-32.659 -38.55)" fill="#f4cd5c" stroke="#707070" stroke-width="1"/>
        <path id="Trazado_266" data-name="Trazado 266" d="M42.243,96.947a.315.315,0,0,1-.011-.044l.011.044" transform="translate(-27.274 -38.549)" fill="#f4cd5c" stroke="#707070" stroke-width="1"/>
        <path id="Trazado_268" data-name="Trazado 268" d="M42.277,97.073c-.012-.041-.021-.074-.026-.1a.342.342,0,0,0,.026.1" transform="translate(-27.281 -38.578)" fill="#f4cd5c" stroke="#707070" stroke-width="1"/>
        <path id="Trazado_270" data-name="Trazado 270" d="M92.719,97.076a.36.36,0,0,0,.026-.094c-.006.023-.015.055-.026.094" transform="translate(-47.116 -38.58)" fill="#da302b" stroke="#707070" stroke-width="1"/>
        <path id="Trazado_274" data-name="Trazado 274" d="M92.761,96.951l.012-.047a.3.3,0,0,1-.012.047" transform="translate(-47.132 -38.55)" fill="#da302b" stroke="#707070" stroke-width="1"/>
        <path id="Trazado_276" data-name="Trazado 276" d="M79.069,96.947a.317.317,0,0,1-.011-.044l.011.044" transform="translate(-41.747 -38.549)" fill="#da302b" stroke="#707070" stroke-width="1"/>
        <path id="Trazado_278" data-name="Trazado 278" d="M79.1,97.073c-.012-.041-.021-.074-.026-.1a.342.342,0,0,0,.026.1" transform="translate(-41.754 -38.578)" fill="#da302b" stroke="#707070" stroke-width="1"/>
        <line id="Línea_9" data-name="Línea 9" y2="3.283" transform="translate(20.399 29.063)" fill="#4c5b52" stroke="#707070" stroke-width="1"/>
        <path id="Trazado_284" data-name="Trazado 284" d="M74.936,33.346a59.569,59.569,0,0,0-21.1-3.713,59.073,59.073,0,0,0-22.166,4.135" transform="translate(-23.103 -12.211)" fill="none" stroke="#4c5b52" stroke-linecap="round" stroke-linejoin="round" stroke-width="1"/>
        <path id="Trazado_285" data-name="Trazado 285" d="M53.636,1.315,54.1,4.86l-2.293.3-.461-3.544-2.42.314.461,3.545-2.293.3-.461-3.545-2.2.286.8,6.129L56.856,7.129,56.06,1Z" transform="translate(-28.146 -1)" fill="#f4cd5c" stroke="#707070" stroke-width="1"/>
        <path id="Trazado_286" data-name="Trazado 286" d="M53.636,1.315,54.1,4.86l-2.293.3-.461-3.544-2.42.314.461,3.545-2.293.3-.461-3.545-2.2.286.8,6.129L56.856,7.129,56.06,1Z" transform="translate(-28.146 -1)" fill="none" stroke="#4c5b52" stroke-linejoin="round" stroke-width="1"/>
        <path id="Trazado_287" data-name="Trazado 287" d="M57.018,18.432,56.157,11.8l-4.836.628.88,6.77" transform="translate(-30.851 -5.228)" fill="#f4cd5c" stroke="#707070" stroke-width="1"/>
        <path id="Trazado_288" data-name="Trazado 288" d="M57.018,18.432,56.157,11.8l-4.836.628.88,6.77" transform="translate(-30.851 -5.228)" fill="none" stroke="#4c5b52" stroke-linejoin="round" stroke-width="1"/>
        <path id="Trazado_289" data-name="Trazado 289" d="M73.389,1.315,72.928,4.86l2.293.3.461-3.544,2.42.314-.461,3.545,2.293.3L80.4,2.225l2.2.286L81.8,8.64,70.169,7.129,70.965,1Z" transform="translate(-38.273 -1)" fill="#f4cd5c" stroke="#707070" stroke-width="1"/>
        <path id="Trazado_290" data-name="Trazado 290" d="M73.389,1.315,72.928,4.86l2.293.3.461-3.544,2.42.314-.461,3.545,2.293.3L80.4,2.225l2.2.286L81.8,8.64,70.169,7.129,70.965,1Z" transform="translate(-38.273 -1)" fill="none" stroke="#4c5b52" stroke-linejoin="round" stroke-width="1"/>
        <path id="Trazado_291" data-name="Trazado 291" d="M74.339,18.432,75.2,11.8l4.836.628-.88,6.77" transform="translate(-39.901 -5.228)" fill="#f4cd5c" stroke="#707070" stroke-width="1"/>
        <path id="Trazado_292" data-name="Trazado 292" d="M74.339,18.432,75.2,11.8l4.836.628-.88,6.77" transform="translate(-39.901 -5.228)" fill="none" stroke="#4c5b52" stroke-linejoin="round" stroke-width="1"/>
        <path id="Trazado_293" data-name="Trazado 293" d="M105.6,9.127l-1.151,3.384-2.189-.744,1.151-3.384L101.1,7.6l-1.151,3.384-2.19-.744,1.151-3.384-2.1-.716-1.99,5.852,11.107,3.777,1.989-5.852Z" transform="translate(-47.971 -3.011)" fill="#f4cd5c" stroke="#707070" stroke-width="1"/>
        <path id="Trazado_294" data-name="Trazado 294" d="M105.6,9.127l-1.151,3.384-2.189-.744,1.151-3.384L101.1,7.6l-1.151,3.384-2.19-.744,1.151-3.384-2.1-.716-1.99,5.852,11.107,3.777,1.989-5.852Z" transform="translate(-47.971 -3.011)" fill="none" stroke="#4c5b52" stroke-linejoin="round" stroke-width="1"/>
        <path id="Trazado_295" data-name="Trazado 295" d="M101.2,25.47l2.153-6.333-4.617-1.569-2.2,6.464" transform="translate(-48.645 -7.486)" fill="#f4cd5c" stroke="#707070" stroke-width="1"/>
        <path id="Trazado_296" data-name="Trazado 296" d="M101.2,25.47l2.153-6.333-4.617-1.569-2.2,6.464" transform="translate(-48.645 -7.486)" fill="none" stroke="#4c5b52" stroke-linejoin="round" stroke-width="1"/>
        <path id="Trazado_297" data-name="Trazado 297" d="M19.9,9.127l1.151,3.384,2.189-.744L22.092,8.382,24.4,7.6l1.151,3.384,2.19-.744L26.592,6.852l2.1-.716,1.99,5.852L19.578,15.765,17.588,9.913Z" transform="translate(-17.588 -3.011)" fill="#f4cd5c" stroke="#707070" stroke-width="1"/>
        <path id="Trazado_298" data-name="Trazado 298" d="M19.9,9.127l1.151,3.384,2.189-.744L22.092,8.382,24.4,7.6l1.151,3.384,2.19-.744L26.592,6.852l2.1-.716,1.99,5.852L19.578,15.765,17.588,9.913Z" transform="translate(-17.588 -3.011)" fill="none" stroke="#4c5b52" stroke-linejoin="round" stroke-width="1"/>
        <path id="Trazado_299" data-name="Trazado 299" d="M28.345,25.47l-2.153-6.333,4.617-1.569,2.2,6.464" transform="translate(-20.957 -7.486)" fill="#f4cd5c" stroke="#707070" stroke-width="1"/>
        <path id="Trazado_300" data-name="Trazado 300" d="M28.345,25.47l-2.153-6.333,4.617-1.569,2.2,6.464" transform="translate(-20.957 -7.486)" fill="none" stroke="#4c5b52" stroke-linejoin="round" stroke-width="1"/>
        <path id="Trazado_301" data-name="Trazado 301" d="M76.933,29.819c-7.053-3.284-18.18-6.811-27.184-6.811-9.594,0-21.466,3.925-28.52,7.455" transform="translate(-19.014 -9.617)" fill="none" stroke="#4c5b52" stroke-linecap="round" stroke-linejoin="round" stroke-width="1"/>
        <line id="Línea_10" data-name="Línea 10" x1="0.695" y1="7.41" transform="translate(7.532 18.496)" fill="none" stroke="#4c5b52" stroke-linecap="round" stroke-linejoin="round" stroke-width="1"/>
        <line id="Línea_11" data-name="Línea 11" y1="7.922" x2="0.743" transform="translate(51.741 17.984)" fill="none" stroke="#4c5b52" stroke-linecap="round" stroke-linejoin="round" stroke-width="1"/>
        <line id="Línea_12" data-name="Línea 12" y2="4.031" transform="translate(30.736 13.391)" fill="none" stroke="#4c5b52" stroke-linecap="round" stroke-linejoin="round" stroke-width="1"/>
        <line id="Línea_13" data-name="Línea 13" x2="0.565" y2="3.514" transform="translate(20.673 18.365)" fill="none" stroke="#4c5b52" stroke-linecap="round" stroke-linejoin="round" stroke-width="1"/>
        <line id="Línea_14" data-name="Línea 14" x1="0.492" y2="3.055" transform="translate(39.464 18.365)" fill="none" stroke="#4c5b52" stroke-linecap="round" stroke-linejoin="round" stroke-width="1"/>
        <path id="Trazado_302" data-name="Trazado 302" d="M74.535,39.373a59.783,59.783,0,0,0-20.6-3.527A59.135,59.135,0,0,0,31.924,39.92" transform="translate(-23.201 -14.643)" fill="none" stroke="#4c5b52" stroke-linecap="round" stroke-linejoin="round" stroke-width="1"/>
        <path id="Trazado_303" data-name="Trazado 303" d="M74.232,120.459a.36.36,0,0,0,.026-.094c-.006.023-.015.055-.026.094" transform="translate(-39.85 -47.736)" fill="#da302b" stroke="#707070" stroke-width="1"/>
        <path id="Trazado_307" data-name="Trazado 307" d="M74.274,120.334l.012-.047a.385.385,0,0,1-.012.047" transform="translate(-39.866 -47.705)" fill="#da302b" stroke="#707070" stroke-width="1"/>
        <path id="Trazado_309" data-name="Trazado 309" d="M60.582,120.331a.314.314,0,0,1-.011-.044l.011.044" transform="translate(-34.481 -47.705)" fill="#da302b" stroke="#707070" stroke-width="1"/>
        <path id="Trazado_311" data-name="Trazado 311" d="M60.615,120.457c-.012-.041-.021-.074-.026-.1a.342.342,0,0,0,.026.1" transform="translate(-34.488 -47.734)" fill="#da302b" stroke="#707070" stroke-width="1"/>
        <path id="Trazado_313" data-name="Trazado 313" d="M74.232,120.459a.36.36,0,0,0,.026-.094c-.006.023-.015.055-.026.094" transform="translate(-39.85 -47.736)" fill="#da302b" stroke="#707070" stroke-width="1"/>
        <path id="Trazado_315" data-name="Trazado 315" d="M74.274,120.334l.012-.047a.385.385,0,0,1-.012.047" transform="translate(-39.866 -47.705)" fill="#da302b" stroke="#707070" stroke-width="1"/>
        <path id="Trazado_317" data-name="Trazado 317" d="M60.582,120.331a.314.314,0,0,1-.011-.044l.011.044" transform="translate(-34.481 -47.705)" fill="#da302b" stroke="#707070" stroke-width="1"/>
        <path id="Trazado_319" data-name="Trazado 319" d="M60.615,120.457c-.012-.041-.021-.074-.026-.1a.342.342,0,0,0,.026.1" transform="translate(-34.488 -47.734)" fill="#da302b" stroke="#707070" stroke-width="1"/>
        <path id="Trazado_322" data-name="Trazado 322" d="M53.052,96.776h0A21.938,21.938,0,0,1,31.15,74.8V43.576h43.8V74.8A21.938,21.938,0,0,1,53.052,96.776Z" transform="translate(-22.898 -17.67)" fill="none" stroke="#4c5b52" stroke-linecap="round" stroke-linejoin="round" stroke-width="1"/>
      </g>
      <g id="Grupo_463" data-name="Grupo 463" transform="translate(138.926 2723.429)">
        <rect id="Rectángulo_398" data-name="Rectángulo 398" width="14.568" height="14.568" transform="translate(0)" fill="#f4cd5c"/>
        <path id="Trazado_282" data-name="Trazado 282" d="M51.431,54.263V61.44h-.742V54.384" transform="translate(-39.422 -48.408)" fill="#4c5b52"/>
        <path id="Trazado_283" data-name="Trazado 283" d="M46.17,48.537H44.952a9.6,9.6,0,0,0-3.146-.352c-2.521-.054-5.716,1.9-5.716,5.285,0,0,1.272-2.628,3.523-3.17a4.39,4.39,0,0,1,4.823,1.571H46.17Z" transform="translate(-33.707 -46.028)" fill="#4c5b52"/>
      </g>
      <g id="Grupo_462" data-name="Grupo 462" transform="translate(141.836 2740.639)">
        <path id="Trazado_262" data-name="Trazado 262" d="M48.168,85.878s3.977-.768,3.509-4a2.758,2.758,0,0,0-3.219-2.213,4.617,4.617,0,0,0-3.213,2.854l.96-5.19L44.22,73.521l-1.7,3.808.846,4.958a4.464,4.464,0,0,0-3.1-2.622,2.757,2.757,0,0,0-3.219,2.213c-.465,3.232,3.509,4,3.509,4s-2.305-1.236-1.236-2.806a2.025,2.025,0,0,1,2.44-.154,3.546,3.546,0,0,1,1.69,2.465h-1.11a.143.143,0,0,0-.141.142v.413a.143.143,0,0,0,.141.142.141.141,0,0,0-.141.14v.412a.141.141,0,0,0,.141.142H43.5c-.011.142-.024.287-.044.439-.342,2.591-2.9,1.392-3.235.678.139.492.711,2.119,2.133,1.864a1.959,1.959,0,0,0,1.349-.961l-.2,1.408.767,1.368.935-1.368-.275-1.547a2,2,0,0,0,1.427,1.1c1.424.254,2-1.373,2.134-1.864-.333.713-2.893,1.914-3.236-.678-.02-.152-.033-.3-.044-.439h1.166a.14.14,0,0,0,.14-.142V86.22a.14.14,0,0,0-.14-.14.142.142,0,0,0,.14-.142v-.413a.142.142,0,0,0-.14-.142H45.275a3.548,3.548,0,0,1,1.688-2.465,2.022,2.022,0,0,1,2.439.154c1.07,1.57-1.234,2.806-1.234,2.806" transform="translate(-37.009 -73.216)" fill="#e5ce7e"/>
        <path id="Trazado_272" data-name="Trazado 272" d="M80.894,91.677a.3.3,0,0,1-.252-.155l-.767-1.368a.3.3,0,0,1-.036-.19l.063-.458a2.179,2.179,0,0,1-.862.352,2,2,0,0,1-.347.032c-1.424,0-1.993-1.617-2.133-2.112a.3.3,0,0,1,.568-.212,1.987,1.987,0,0,0,1.5.733c.652,0,1.04-.444,1.156-1.322,0-.032.008-.063.012-.095h-.831a.446.446,0,0,1-.445-.445v-.412a.452.452,0,0,0,0-.282v-.414a.446.446,0,0,1,.445-.445H79.7a3.251,3.251,0,0,0-1.479-1.908,1.736,1.736,0,0,0-.963-.279,1.477,1.477,0,0,0-1.056.352,1.109,1.109,0,0,0-.2.922c.2.829,1.317,1.439,1.329,1.445a.3.3,0,0,1-.144.572.313.313,0,0,1-.058,0c-.043-.009-4.254-.863-3.752-4.343a3.079,3.079,0,0,1,3-2.509,4.234,4.234,0,0,1,.559.038,3.967,3.967,0,0,1,2.514,1.538l-.6-3.521a.3.3,0,0,1,.022-.175l1.7-3.809a.3.3,0,0,1,.269-.18h.009a.3.3,0,0,1,.27.164L83.1,76.993a.3.3,0,0,1,.03.2l-.666,3.6a4,4,0,0,1,2.58-1.621,4.234,4.234,0,0,1,.559-.038,3.079,3.079,0,0,1,3,2.5c.506,3.489-3.707,4.344-3.751,4.352a.3.3,0,0,1-.2-.567c.011-.006,1.125-.616,1.327-1.444a1.112,1.112,0,0,0-.2-.922,1.467,1.467,0,0,0-1.054-.352,1.738,1.738,0,0,0-.964.28,3.249,3.249,0,0,0-1.476,1.908h.728a.445.445,0,0,1,.445.445v.414a.441.441,0,0,0,0,.282v.412a.445.445,0,0,1-.445.445h-.832c0,.032.008.063.012.095.116.877.505,1.322,1.157,1.321a1.985,1.985,0,0,0,1.5-.732.3.3,0,0,1,.568.212c-.14.5-.707,2.113-2.133,2.113a2,2,0,0,1-.347-.032,2.162,2.162,0,0,1-.88-.366l.082.46a.3.3,0,0,1-.049.225l-.935,1.368a.3.3,0,0,1-.251.133h-.013" transform="translate(-51.231 -73.02)" fill="#da302b"/>
        <path id="Trazado_305" data-name="Trazado 305" d="M62.407,115.061a.3.3,0,0,1-.252-.155l-.767-1.368a.3.3,0,0,1-.036-.19l.064-.458a2.179,2.179,0,0,1-.862.352,2,2,0,0,1-.347.032c-1.425,0-1.993-1.617-2.133-2.113a.3.3,0,0,1,.568-.212,1.986,1.986,0,0,0,1.5.732c.652,0,1.04-.444,1.156-1.321,0-.032.008-.063.012-.095h-.831a.446.446,0,0,1-.445-.445v-.412a.452.452,0,0,0,0-.282v-.414a.446.446,0,0,1,.445-.445h.729a3.253,3.253,0,0,0-1.479-1.909,1.731,1.731,0,0,0-.963-.279,1.475,1.475,0,0,0-1.056.351,1.107,1.107,0,0,0-.2.922c.2.83,1.317,1.44,1.328,1.446a.3.3,0,0,1-.2.567c-.043-.009-4.254-.864-3.752-4.343a3.079,3.079,0,0,1,3-2.509,4.334,4.334,0,0,1,.558.038,3.967,3.967,0,0,1,2.514,1.538l-.6-3.521a.3.3,0,0,1,.022-.175l1.7-3.809a.3.3,0,0,1,.269-.18h.009a.3.3,0,0,1,.27.163l1.985,3.809a.3.3,0,0,1,.029.2l-.666,3.6a4,4,0,0,1,2.58-1.621,4.336,4.336,0,0,1,.559-.038,3.078,3.078,0,0,1,3,2.5c.506,3.489-3.707,4.344-3.751,4.353a.3.3,0,0,1-.2-.567c.011-.006,1.125-.616,1.327-1.444a1.113,1.113,0,0,0-.2-.923,1.468,1.468,0,0,0-1.054-.351,1.737,1.737,0,0,0-.964.279,3.254,3.254,0,0,0-1.476,1.908h.728a.445.445,0,0,1,.445.445v.414a.441.441,0,0,0,0,.282v.412a.445.445,0,0,1-.445.445H63.7c0,.032.008.063.012.095.116.877.505,1.322,1.156,1.321a1.985,1.985,0,0,0,1.5-.733.3.3,0,0,1,.568.212c-.14.5-.708,2.113-2.133,2.113a2,2,0,0,1-.347-.032,2.171,2.171,0,0,1-.88-.366l.082.461a.3.3,0,0,1-.049.225l-.935,1.368a.3.3,0,0,1-.251.133h-.013" transform="translate(-43.993 -82.176)" fill="#fff"/>
        <path id="Trazado_321" data-name="Trazado 321" d="M71.174,109.311s3.977-.768,3.509-4a2.758,2.758,0,0,0-3.219-2.213,4.617,4.617,0,0,0-3.213,2.854l.96-5.19L67.266,97.03v17.941l.017.03.935-1.368-.275-1.547a2,2,0,0,0,1.427,1.1c1.424.254,2-1.373,2.134-1.864-.333.713-2.893,1.914-3.236-.678-.02-.152-.033-.3-.044-.439H69.39a.14.14,0,0,0,.14-.142v-.412a.14.14,0,0,0-.14-.14.142.142,0,0,0,.14-.142v-.413a.142.142,0,0,0-.14-.141H68.281a3.548,3.548,0,0,1,1.688-2.465,2.021,2.021,0,0,1,2.438.154c1.07,1.57-1.234,2.806-1.234,2.806" transform="translate(-48.856 -82.421)" fill="#da302b"/>
      </g>
      <g id="Grupo_461" data-name="Grupo 461" transform="translate(141.835 2740.334)">
        <path id="Trazado_263" data-name="Trazado 263" d="M48.168,85.878s3.977-.768,3.509-4a2.758,2.758,0,0,0-3.219-2.213,4.617,4.617,0,0,0-3.213,2.854l.96-5.19L44.22,73.521l-1.7,3.808.846,4.958a4.464,4.464,0,0,0-3.1-2.622,2.757,2.757,0,0,0-3.219,2.213c-.465,3.232,3.509,4,3.509,4s-2.305-1.236-1.236-2.806a2.025,2.025,0,0,1,2.44-.154,3.546,3.546,0,0,1,1.69,2.465h-1.11a.143.143,0,0,0-.141.142v.413a.143.143,0,0,0,.141.142.141.141,0,0,0-.141.14v.412a.141.141,0,0,0,.141.142H43.5c-.011.142-.024.287-.044.439-.342,2.591-2.9,1.392-3.235.678.139.492.711,2.119,2.133,1.864a1.959,1.959,0,0,0,1.349-.961l-.2,1.408.767,1.368.935-1.368-.275-1.547a2,2,0,0,0,1.427,1.1c1.424.254,2-1.373,2.134-1.864-.333.713-2.893,1.914-3.236-.678-.02-.152-.033-.3-.044-.439h1.166a.14.14,0,0,0,.14-.142V86.22a.14.14,0,0,0-.14-.14.142.142,0,0,0,.14-.142v-.413a.142.142,0,0,0-.14-.142H45.275a3.548,3.548,0,0,1,1.688-2.465,2.022,2.022,0,0,1,2.439.154C50.472,84.642,48.168,85.878,48.168,85.878Z" transform="translate(-37.009 -72.912)" fill="none" stroke="#4c5b52" stroke-linejoin="round" stroke-width="0.5"/>
        <path id="Trazado_273" data-name="Trazado 273" d="M80.656,73.128l1.985,3.809-.96,5.19a4.615,4.615,0,0,1,3.213-2.854,3.927,3.927,0,0,1,.518-.036,2.755,2.755,0,0,1,2.7,2.248c.469,3.232-3.508,4-3.508,4s2.3-1.236,1.234-2.806a1.715,1.715,0,0,0-1.306-.484,2.032,2.032,0,0,0-1.133.33,3.549,3.549,0,0,0-1.688,2.465H82.82a.142.142,0,0,1,.141.141v.414a.141.141,0,0,0,0,.282v.412a.14.14,0,0,1-.141.141H81.655c.01.142.024.287.044.439.159,1.2.791,1.586,1.458,1.586a2.246,2.246,0,0,0,1.778-.908c-.129.456-.63,1.891-1.841,1.891a1.67,1.67,0,0,1-.294-.027,2,2,0,0,1-1.427-1.1l.275,1.547-.935,1.368-.767-1.368.2-1.409a1.957,1.957,0,0,1-1.349.961,1.656,1.656,0,0,1-.293.027c-1.21,0-1.711-1.434-1.841-1.89a2.249,2.249,0,0,0,1.778.908c.667,0,1.3-.388,1.458-1.586.02-.153.033-.3.044-.439H78.775a.141.141,0,0,1-.141-.141v-.412a.141.141,0,1,0,0-.282v-.414a.143.143,0,0,1,.141-.141h1.11a3.546,3.546,0,0,0-1.69-2.465,2.027,2.027,0,0,0-1.132-.33,1.723,1.723,0,0,0-1.308.484c-1.069,1.57,1.236,2.806,1.236,2.806s-3.974-.768-3.509-4a2.753,2.753,0,0,1,2.7-2.248,3.943,3.943,0,0,1,.519.036A4.46,4.46,0,0,1,79.8,81.9l-.846-4.958Zm0-.608h-.018a.609.609,0,0,0-.537.36l-1.7,3.809a.608.608,0,0,0-.044.35l.437,2.558a3.884,3.884,0,0,0-2.01-.928,4.651,4.651,0,0,0-.6-.041,3.323,3.323,0,0,0-3.3,2.751c-.437,3.03,2.421,4.4,3.993,4.7a.577.577,0,0,0,.116.012.609.609,0,0,0,.287-1.145A2.554,2.554,0,0,1,76.1,83.7a.8.8,0,0,1,.156-.677,1.384,1.384,0,0,1,.8-.218,1.432,1.432,0,0,1,.794.228,3.1,3.1,0,0,1,1.216,1.351h-.3a.751.751,0,0,0-.75.75v.414a.748.748,0,0,1,0,.282v.412a.751.751,0,0,0,.75.75h.473c-.183.808-.632.808-.81.808a1.783,1.783,0,0,1-1.228-.56.608.608,0,0,0-1.135.426C76.23,88.211,76.862,90,78.5,90a2.308,2.308,0,0,0,.4-.036,2.688,2.688,0,0,0,.439-.119.608.608,0,0,0,.077.265l.767,1.368a.607.607,0,0,0,.5.31h.027a.609.609,0,0,0,.5-.265l.935-1.368a.607.607,0,0,0,.105-.31,2.614,2.614,0,0,0,.436.117,2.294,2.294,0,0,0,.4.036c1.639,0,2.271-1.786,2.427-2.334a.609.609,0,0,0-.374-.736.619.619,0,0,0-.212-.038.609.609,0,0,0-.551.351,1.787,1.787,0,0,1-1.227.557c-.179,0-.629,0-.811-.808h.474a.75.75,0,0,0,.749-.75v-.412a.748.748,0,0,1,0-.282v-.414a.75.75,0,0,0-.749-.75h-.3a3.1,3.1,0,0,1,1.216-1.351,1.431,1.431,0,0,1,.793-.228,1.331,1.331,0,0,1,.811.229.789.789,0,0,1,.148.667,2.553,2.553,0,0,1-1.177,1.251.609.609,0,0,0,.289,1.144.571.571,0,0,0,.115-.012c1.573-.3,4.432-1.673,4-4.685a3.328,3.328,0,0,0-3.3-2.77,4.634,4.634,0,0,0-.6.041,3.883,3.883,0,0,0-2.053.965l.478-2.587a.607.607,0,0,0-.058-.392L81.2,72.847a.609.609,0,0,0-.54-.327" transform="translate(-51.037 -72.52)" fill="#4c5b52"/>
        <path id="Trazado_306" data-name="Trazado 306" d="M62.169,96.512l1.985,3.809-.96,5.19a4.615,4.615,0,0,1,3.213-2.854,3.925,3.925,0,0,1,.518-.036,2.755,2.755,0,0,1,2.7,2.248c.469,3.232-3.508,4-3.508,4s2.3-1.236,1.234-2.806a1.715,1.715,0,0,0-1.306-.484,2.028,2.028,0,0,0-1.133.331,3.546,3.546,0,0,0-1.688,2.465h1.109a.142.142,0,0,1,.141.141v.414a.141.141,0,0,0,0,.282v.412a.14.14,0,0,1-.141.141H63.168c.01.142.024.287.044.439.159,1.2.791,1.586,1.458,1.586a2.246,2.246,0,0,0,1.778-.908c-.129.456-.63,1.891-1.841,1.891a1.67,1.67,0,0,1-.294-.027,2,2,0,0,1-1.427-1.1l.275,1.547-.935,1.368-.767-1.368.2-1.409a1.957,1.957,0,0,1-1.349.961,1.656,1.656,0,0,1-.293.027c-1.21,0-1.711-1.434-1.841-1.89a2.249,2.249,0,0,0,1.778.908c.667,0,1.3-.388,1.458-1.586.02-.153.033-.3.044-.439H60.288a.141.141,0,0,1-.141-.141v-.412a.141.141,0,1,0,0-.282v-.414a.143.143,0,0,1,.141-.141H61.4a3.543,3.543,0,0,0-1.69-2.465,2.022,2.022,0,0,0-1.132-.331,1.724,1.724,0,0,0-1.308.484c-1.069,1.57,1.236,2.806,1.236,2.806s-3.974-.768-3.509-4a2.753,2.753,0,0,1,2.7-2.248,3.941,3.941,0,0,1,.519.036,4.46,4.46,0,0,1,3.1,2.622l-.846-4.958Zm0-.608h-.018a.609.609,0,0,0-.537.36l-1.7,3.809a.608.608,0,0,0-.044.35l.437,2.558a3.884,3.884,0,0,0-2.01-.928,4.651,4.651,0,0,0-.6-.041,3.323,3.323,0,0,0-3.3,2.751c-.437,3.03,2.421,4.4,3.993,4.7a.577.577,0,0,0,.116.012.609.609,0,0,0,.287-1.145,2.554,2.554,0,0,1-1.177-1.25.8.8,0,0,1,.156-.677,1.384,1.384,0,0,1,.8-.218,1.432,1.432,0,0,1,.794.228,3.1,3.1,0,0,1,1.216,1.351h-.3a.751.751,0,0,0-.75.75v.414a.747.747,0,0,1,0,.282v.412a.751.751,0,0,0,.75.75h.473c-.183.808-.632.808-.81.808a1.783,1.783,0,0,1-1.228-.56.608.608,0,0,0-1.135.426c.155.548.789,2.333,2.426,2.333a2.308,2.308,0,0,0,.4-.036,2.687,2.687,0,0,0,.439-.119.607.607,0,0,0,.077.265l.767,1.368a.607.607,0,0,0,.5.31h.027a.609.609,0,0,0,.5-.265l.935-1.368a.607.607,0,0,0,.105-.31,2.613,2.613,0,0,0,.436.117,2.294,2.294,0,0,0,.4.037c1.639,0,2.271-1.786,2.427-2.334a.609.609,0,0,0-.374-.736.619.619,0,0,0-.212-.038.609.609,0,0,0-.551.351,1.787,1.787,0,0,1-1.227.557c-.179,0-.629,0-.811-.808h.474a.75.75,0,0,0,.749-.75v-.412a.748.748,0,0,1,0-.282v-.414a.75.75,0,0,0-.749-.75h-.3a3.1,3.1,0,0,1,1.216-1.351,1.432,1.432,0,0,1,.793-.228,1.325,1.325,0,0,1,.811.229.787.787,0,0,1,.148.667,2.553,2.553,0,0,1-1.177,1.251.609.609,0,0,0,.289,1.144.571.571,0,0,0,.115-.012c1.573-.3,4.432-1.673,4-4.685a3.328,3.328,0,0,0-3.3-2.77,4.634,4.634,0,0,0-.6.041,3.883,3.883,0,0,0-2.053.965l.478-2.587a.607.607,0,0,0-.058-.392l-1.985-3.808a.609.609,0,0,0-.54-.327" transform="translate(-43.799 -81.676)" fill="#4c5b52"/>
      </g>
    </g>
    <g id="Grupo_468" data-name="Grupo 468" transform="translate(-47 -10)">
      <text id="San_Antonio_de_Areco" data-name="San Antonio de Areco" transform="translate(231 2815.767)" fill="#4c5b52" font-size="18" font-family="SegoeUI, Segoe UI"><tspan x="-86.083" y="0">San</tspan><tspan y="0" letter-spacing="-0.022em"> </tspan><tspan y="0">Antonio de</tspan><tspan y="0" letter-spacing="-0.022em"> </tspan><tspan y="0">A</tspan><tspan y="0" letter-spacing="-0.012em">r</tspan><tspan y="0">e</tspan><tspan y="0" letter-spacing="-0.012em">c</tspan><tspan y="0">o</tspan></text>
      <text id="Municipalidad" transform="translate(231 2793)" fill="#949d97" font-size="15" font-family="SegoeUI, Segoe UI"><tspan x="-46.79" y="0" letter-spacing="-0.005em">M</tspan><tspan y="0">unicipalidad</tspan></text>
    </g>
  </g>
</svg>
