<svg id="Logo_color" data-name="Logo color" xmlns="http://www.w3.org/2000/svg" width="291.282" height="52.163" viewBox="0 0 291.282 52.163">
  <g id="Grupo_1" data-name="Grupo 1">
    <path id="Trazado_1" data-name="Trazado 1" d="M401.08,360.026l-6.137,6.4v11.555h-10.51v-45.7h10.51v21.347l20.237-21.347h11.75L408,352.649l20.041,25.33H415.7Z" transform="translate(-384.433 -331.498)" fill="#0083ff"/>
    <path id="Trazado_2" data-name="Trazado 2" d="M483.492,332.281h10.576v45.7H483.492Z" transform="translate(-435.185 -331.498)" fill="#0083ff"/>
    <path id="Trazado_3" data-name="Trazado 3" d="M555.26,353.589h9.661v18.54a27.587,27.587,0,0,1-8.617,4.308,33.466,33.466,0,0,1-9.858,1.5,26.715,26.715,0,0,1-12.795-3.035,22.6,22.6,0,0,1-8.911-8.422,24.552,24.552,0,0,1,0-24.35,22.487,22.487,0,0,1,8.976-8.421,27.228,27.228,0,0,1,12.925-3.036,28.3,28.3,0,0,1,10.9,2.024,21.6,21.6,0,0,1,8.225,5.875l-6.789,6.267a15.707,15.707,0,0,0-11.816-5.158,16.129,16.129,0,0,0-7.768,1.828,13.11,13.11,0,0,0-5.288,5.157,16.223,16.223,0,0,0,0,15.211,13.38,13.38,0,0,0,5.255,5.19,15.572,15.572,0,0,0,7.67,1.86,17.142,17.142,0,0,0,8.226-1.958Z" transform="translate(-454.662 -330.675)" fill="#0083ff"/>
  </g>
  <g id="Grupo_2" data-name="Grupo 2" transform="translate(120.32 0.782)">
    <path id="Trazado_4" data-name="Trazado 4" d="M631.161,332.278h2.926v18.9h-2.926Z" transform="translate(-631.161 -332.278)" fill="#001324"/>
    <path id="Trazado_5" data-name="Trazado 5" d="M661.9,340.65a6.734,6.734,0,0,1,1.741,5.018v8.924H660.83v-8.6a4.76,4.76,0,0,0-1.083-3.394,4.07,4.07,0,0,0-3.1-1.142,4.833,4.833,0,0,0-3.6,1.332,5.2,5.2,0,0,0-1.317,3.818v7.988h-2.809V339.084h2.692v2.341a5.465,5.465,0,0,1,2.3-1.844,8.034,8.034,0,0,1,3.292-.643A6.409,6.409,0,0,1,661.9,340.65Z" transform="translate(-640.26 -335.69)" fill="#001324"/>
    <path id="Trazado_6" data-name="Trazado 6" d="M700.045,339.238l-6.788,15.508H690.39L683.6,339.238h2.926l5.325,12.435,5.443-12.435Z" transform="translate(-658.029 -335.844)" fill="#001324"/>
    <path id="Trazado_7" data-name="Trazado 7" d="M734.272,347.774H721.69a4.865,4.865,0,0,0,1.8,3.292,5.871,5.871,0,0,0,3.818,1.244,5.754,5.754,0,0,0,4.477-1.873l1.55,1.814a6.8,6.8,0,0,1-2.619,1.873,9.874,9.874,0,0,1-7.856-.366,7.193,7.193,0,0,1-2.94-2.824,8.093,8.093,0,0,1-1.039-4.1,8.224,8.224,0,0,1,1.009-4.067,7.231,7.231,0,0,1,2.78-2.824,7.918,7.918,0,0,1,3.994-1.009,7.761,7.761,0,0,1,3.965,1.009,7.1,7.1,0,0,1,2.721,2.824,8.61,8.61,0,0,1,.98,4.155A8.069,8.069,0,0,1,734.272,347.774Zm-10.987-5.237a4.954,4.954,0,0,0-1.594,3.218h9.948a4.989,4.989,0,0,0-1.595-3.2,5.237,5.237,0,0,0-6.759-.014Z" transform="translate(-676.103 -335.69)" fill="#001324"/>
    <path id="Trazado_8" data-name="Trazado 8" d="M757.271,354.255a8.022,8.022,0,0,1-2.75-1.3l1.17-2.223a8.407,8.407,0,0,0,2.487,1.17,10.233,10.233,0,0,0,2.955.438q3.687,0,3.687-2.107a1.363,1.363,0,0,0-.5-1.111,3.159,3.159,0,0,0-1.244-.6q-.746-.19-2.121-.424a20.664,20.664,0,0,1-3.058-.673,4.7,4.7,0,0,1-2.034-1.287,3.58,3.58,0,0,1-.849-2.546,3.977,3.977,0,0,1,1.756-3.38,7.863,7.863,0,0,1,4.711-1.272,13,13,0,0,1,3.1.38,8.358,8.358,0,0,1,2.546,1.025l-1.2,2.223a8.071,8.071,0,0,0-4.477-1.228,5.179,5.179,0,0,0-2.721.585,1.767,1.767,0,0,0-.936,1.551,1.479,1.479,0,0,0,.527,1.2,3.338,3.338,0,0,0,1.3.644q.775.2,2.18.468a23.759,23.759,0,0,1,3.028.687,4.528,4.528,0,0,1,1.975,1.244,3.463,3.463,0,0,1,.819,2.458,3.874,3.874,0,0,1-1.8,3.35,8.5,8.5,0,0,1-4.9,1.244A13,13,0,0,1,757.271,354.255Z" transform="translate(-694.363 -335.69)" fill="#001324"/>
    <path id="Trazado_9" data-name="Trazado 9" d="M794.984,350.272a4.181,4.181,0,0,1-1.521.805,6.352,6.352,0,0,1-1.872.278,4.972,4.972,0,0,1-3.628-1.258,4.8,4.8,0,0,1-1.288-3.6v-8.515h-2.633v-2.312h2.633v-3.394h2.809v3.394h4.447v2.312h-4.447v8.4a2.725,2.725,0,0,0,.629,1.931,2.342,2.342,0,0,0,1.8.673,3.387,3.387,0,0,0,2.195-.731Z" transform="translate(-709.487 -332.278)" fill="#001324"/>
    <path id="Trazado_10" data-name="Trazado 10" d="M837.476,340.635a6.793,6.793,0,0,1,1.712,5.033v8.924h-2.809v-8.6a4.894,4.894,0,0,0-1.038-3.394,3.812,3.812,0,0,0-2.97-1.142,4.446,4.446,0,0,0-3.394,1.332,5.347,5.347,0,0,0-1.258,3.818v7.988h-2.809v-8.6a4.891,4.891,0,0,0-1.039-3.394,3.81,3.81,0,0,0-2.97-1.142,4.448,4.448,0,0,0-3.394,1.332,5.352,5.352,0,0,0-1.258,3.818v7.988h-2.809V339.084h2.692V341.4a5.437,5.437,0,0,1,2.224-1.829,7.444,7.444,0,0,1,3.13-.629,6.866,6.866,0,0,1,3.219.732,5.084,5.084,0,0,1,2.165,2.136,5.951,5.951,0,0,1,2.443-2.107,7.963,7.963,0,0,1,3.526-.761A6.3,6.3,0,0,1,837.476,340.635Z" transform="translate(-724.549 -335.69)" fill="#001324"/>
    <path id="Trazado_11" data-name="Trazado 11" d="M889.489,347.774H876.907a4.868,4.868,0,0,0,1.8,3.292,5.87,5.87,0,0,0,3.818,1.244A5.754,5.754,0,0,0,887,350.437l1.55,1.814a6.8,6.8,0,0,1-2.619,1.873,9.874,9.874,0,0,1-7.856-.366,7.19,7.19,0,0,1-2.94-2.824,8.092,8.092,0,0,1-1.039-4.1,8.224,8.224,0,0,1,1.009-4.067,7.231,7.231,0,0,1,2.78-2.824,7.918,7.918,0,0,1,3.994-1.009,7.758,7.758,0,0,1,3.964,1.009,7.1,7.1,0,0,1,2.722,2.824,8.616,8.616,0,0,1,.98,4.155A8.06,8.06,0,0,1,889.489,347.774ZM878.5,342.537a4.957,4.957,0,0,0-1.595,3.218h9.948a4.991,4.991,0,0,0-1.595-3.2,5.237,5.237,0,0,0-6.759-.014Z" transform="translate(-755.627 -335.69)" fill="#001324"/>
    <path id="Trazado_12" data-name="Trazado 12" d="M926.736,340.65a6.734,6.734,0,0,1,1.74,5.018v8.924h-2.808v-8.6a4.763,4.763,0,0,0-1.083-3.394,4.071,4.071,0,0,0-3.1-1.142,4.833,4.833,0,0,0-3.6,1.332,5.2,5.2,0,0,0-1.317,3.818v7.988h-2.809V339.084h2.692v2.341a5.462,5.462,0,0,1,2.3-1.844,8.034,8.034,0,0,1,3.292-.643A6.409,6.409,0,0,1,926.736,340.65Z" transform="translate(-775.947 -335.69)" fill="#001324"/>
    <path id="Trazado_13" data-name="Trazado 13" d="M961,350.272a4.188,4.188,0,0,1-1.522.805,6.355,6.355,0,0,1-1.873.278,4.97,4.97,0,0,1-3.628-1.258,4.8,4.8,0,0,1-1.288-3.6v-8.515h-2.633v-2.312h2.633v-3.394H955.5v3.394h4.447v2.312H955.5v8.4a2.723,2.723,0,0,0,.629,1.931,2.341,2.341,0,0,0,1.8.673,3.385,3.385,0,0,0,2.195-.731Z" transform="translate(-794.545 -332.278)" fill="#001324"/>
    <path id="Trazado_14" data-name="Trazado 14" d="M645.411,385.9a7.15,7.15,0,0,1,0,10.475,9.489,9.489,0,0,1-6.262,1.9h-5.062v6.2h-2.926V384h7.988A9.491,9.491,0,0,1,645.411,385.9Zm-2.106,8.646a4.7,4.7,0,0,0,0-6.818,6.606,6.606,0,0,0-4.243-1.185h-4.974v9.188h4.974A6.606,6.606,0,0,0,643.3,394.548Z" transform="translate(-631.161 -358.777)" fill="#001324"/>
    <path id="Trazado_15" data-name="Trazado 15" d="M682.058,395.48a6.1,6.1,0,0,1,1.711,4.711v9.363h-2.663v-2.048a4.44,4.44,0,0,1-2,1.653,7.651,7.651,0,0,1-3.087.571,6.459,6.459,0,0,1-4.169-1.258,4.325,4.325,0,0,1-.073-6.6,7.357,7.357,0,0,1,4.741-1.244h4.448v-.556a3.583,3.583,0,0,0-1.053-2.78,4.445,4.445,0,0,0-3.1-.966,8.2,8.2,0,0,0-2.691.454A6.946,6.946,0,0,0,671.889,398l-1.17-2.107a8.484,8.484,0,0,1,2.867-1.478,12.01,12.01,0,0,1,3.54-.512A7.016,7.016,0,0,1,682.058,395.48Zm-2.795,11.367a4.1,4.1,0,0,0,1.7-2.034v-2.165h-4.331q-3.57,0-3.57,2.4a2.171,2.171,0,0,0,.907,1.843,4.144,4.144,0,0,0,2.516.673A5.215,5.215,0,0,0,679.263,406.847Z" transform="translate(-651.203 -363.849)" fill="#001324"/>
    <path id="Trazado_16" data-name="Trazado 16" d="M713.477,394.6a7.856,7.856,0,0,1,3.482-.7v2.721a5.483,5.483,0,0,0-.644-.029,4.726,4.726,0,0,0-3.584,1.361,5.387,5.387,0,0,0-1.3,3.877v7.725H708.62V394.046h2.692v2.6A4.789,4.789,0,0,1,713.477,394.6Z" transform="translate(-670.846 -363.849)" fill="#001324"/>
    <path id="Trazado_17" data-name="Trazado 17" d="M740.5,405.235a4.2,4.2,0,0,1-1.521.8,6.356,6.356,0,0,1-1.873.278,4.97,4.97,0,0,1-3.628-1.258,4.8,4.8,0,0,1-1.288-3.6v-8.515H729.56v-2.311h2.633V387.24H735v3.394h4.448v2.311H735v8.4a2.722,2.722,0,0,0,.629,1.931,2.342,2.342,0,0,0,1.8.673,3.385,3.385,0,0,0,2.194-.731Z" transform="translate(-681.575 -360.437)" fill="#001324"/>
    <path id="Trazado_18" data-name="Trazado 18" d="M771.935,395.612a6.735,6.735,0,0,1,1.741,5.018v8.924h-2.809v-8.6a4.761,4.761,0,0,0-1.083-3.394,4.072,4.072,0,0,0-3.1-1.141,4.835,4.835,0,0,0-3.6,1.331,5.2,5.2,0,0,0-1.317,3.818v7.988h-2.809V394.046h2.692v2.341a5.458,5.458,0,0,1,2.3-1.843,8.034,8.034,0,0,1,3.292-.644A6.408,6.408,0,0,1,771.935,395.612Z" transform="translate(-696.636 -363.849)" fill="#001324"/>
    <path id="Trazado_19" data-name="Trazado 19" d="M812.449,402.736H799.867a4.87,4.87,0,0,0,1.8,3.292,5.87,5.87,0,0,0,3.818,1.244,5.754,5.754,0,0,0,4.477-1.873l1.55,1.814a6.792,6.792,0,0,1-2.619,1.873,9.874,9.874,0,0,1-7.856-.366A7.194,7.194,0,0,1,798.1,405.9a8.094,8.094,0,0,1-1.039-4.1,8.222,8.222,0,0,1,1.009-4.067,7.228,7.228,0,0,1,2.78-2.824,7.919,7.919,0,0,1,3.994-1.009,7.758,7.758,0,0,1,3.964,1.009,7.1,7.1,0,0,1,2.722,2.824,8.612,8.612,0,0,1,.98,4.155A8.043,8.043,0,0,1,812.449,402.736ZM801.462,397.5a4.956,4.956,0,0,0-1.595,3.219h9.948a4.991,4.991,0,0,0-1.595-3.2,5.238,5.238,0,0,0-6.759-.015Z" transform="translate(-716.156 -363.849)" fill="#001324"/>
    <path id="Trazado_20" data-name="Trazado 20" d="M841.575,394.6a7.856,7.856,0,0,1,3.481-.7v2.721a5.468,5.468,0,0,0-.643-.029,4.727,4.727,0,0,0-3.585,1.361,5.387,5.387,0,0,0-1.3,3.877v7.725h-2.809V394.046h2.692v2.6A4.79,4.79,0,0,1,841.575,394.6Z" transform="translate(-736.476 -363.849)" fill="#001324"/>
    <path id="Trazado_21" data-name="Trazado 21" d="M859.868,409.217a8.027,8.027,0,0,1-2.75-1.3l1.17-2.224a8.389,8.389,0,0,0,2.487,1.17,10.232,10.232,0,0,0,2.955.439q3.687,0,3.686-2.107a1.366,1.366,0,0,0-.5-1.112,3.17,3.17,0,0,0-1.244-.6q-.747-.19-2.122-.424a20.794,20.794,0,0,1-3.057-.673,4.71,4.71,0,0,1-2.034-1.287,3.579,3.579,0,0,1-.849-2.546,3.977,3.977,0,0,1,1.755-3.38,7.864,7.864,0,0,1,4.711-1.273,12.982,12.982,0,0,1,3.1.38,8.352,8.352,0,0,1,2.546,1.024l-1.2,2.224a8.068,8.068,0,0,0-4.477-1.229,5.177,5.177,0,0,0-2.721.585,1.766,1.766,0,0,0-.936,1.551,1.477,1.477,0,0,0,.527,1.2,3.327,3.327,0,0,0,1.3.644q.775.206,2.18.468a23.864,23.864,0,0,1,3.028.688,4.526,4.526,0,0,1,1.975,1.244,3.464,3.464,0,0,1,.82,2.458,3.876,3.876,0,0,1-1.8,3.35,8.5,8.5,0,0,1-4.9,1.244A12.993,12.993,0,0,1,859.868,409.217Z" transform="translate(-746.927 -363.849)" fill="#001324"/>
    <path id="Trazado_22" data-name="Trazado 22" d="M904.174,389.248a6.735,6.735,0,0,1,1.74,5.018v8.924h-2.809v-8.6a4.76,4.76,0,0,0-1.083-3.394,4.072,4.072,0,0,0-3.1-1.141,4.835,4.835,0,0,0-3.6,1.331,5.2,5.2,0,0,0-1.317,3.818v7.988H891.2V381.48h2.809v8.4a5.8,5.8,0,0,1,2.3-1.726,7.911,7.911,0,0,1,3.175-.614A6.409,6.409,0,0,1,904.174,389.248Z" transform="translate(-764.387 -357.486)" fill="#001324"/>
    <path id="Trazado_23" data-name="Trazado 23" d="M931.578,383.711a1.727,1.727,0,0,1-.541-1.287,1.775,1.775,0,0,1,.541-1.3,1.846,1.846,0,0,1,1.361-.541,1.905,1.905,0,0,1,1.361.512,1.681,1.681,0,0,1,.541,1.273,1.81,1.81,0,0,1-.541,1.331,1.845,1.845,0,0,1-1.361.541A1.873,1.873,0,0,1,931.578,383.711Zm-.043,3.511h2.808V402.73h-2.808Z" transform="translate(-784.799 -357.025)" fill="#001324"/>
    <path id="Trazado_24" data-name="Trazado 24" d="M961.057,394.895a7.162,7.162,0,0,1,2.794,2.78,8.965,8.965,0,0,1,0,8.266,7.128,7.128,0,0,1-2.794,2.794,8.147,8.147,0,0,1-4.038.995,7.185,7.185,0,0,1-3.058-.644,6.356,6.356,0,0,1-2.355-1.873v8.017H948.8V394.046h2.692V396.5a5.963,5.963,0,0,1,2.37-1.946,7.481,7.481,0,0,1,3.16-.658A8.157,8.157,0,0,1,961.057,394.895Zm-1.595,11.689a4.956,4.956,0,0,0,1.873-1.931,6.262,6.262,0,0,0,0-5.706,4.859,4.859,0,0,0-1.873-1.917,5.325,5.325,0,0,0-2.677-.673,5.179,5.179,0,0,0-2.648.688,4.982,4.982,0,0,0-1.873,1.917,5.714,5.714,0,0,0-.688,2.838,5.893,5.893,0,0,0,.673,2.853,4.818,4.818,0,0,0,1.873,1.931,5.528,5.528,0,0,0,5.34,0Z" transform="translate(-793.898 -363.849)" fill="#001324"/>
  </g>
</svg>
