<svg width="112" height="48" viewBox="0 0 112 48" fill="none" xmlns="http://www.w3.org/2000/svg">
<path d="M16.647 28.528L10.51 34.928V46.483H1.52588e-05V0.783005H10.51V22.13L30.747 0.783005H42.497L23.567 21.151L43.608 46.481H31.267L16.647 28.528Z" fill="white"/>
<path d="M48.307 0.783005H58.883V46.483H48.307V0.783005Z" fill="white"/>
<path d="M100.598 22.914H110.259V41.454C107.662 43.3843 104.745 44.8425 101.642 45.762C98.4494 46.7515 95.1265 47.2571 91.784 47.262C87.3327 47.3322 82.9345 46.289 78.989 44.227C75.2993 42.2945 72.2155 39.3799 70.078 35.805C67.9604 32.0968 66.8467 27.9003 66.8467 23.63C66.8467 19.3597 67.9604 15.1633 70.078 11.455C72.2286 7.86789 75.3371 4.95166 79.054 3.03402C83.0458 0.971028 87.4861 -0.0719888 91.979 -0.00199019C95.7102 -0.052548 99.4147 0.635302 102.879 2.022C106.047 3.30226 108.866 5.31571 111.104 7.897L104.315 14.164C102.822 12.5172 100.997 11.2059 98.9606 10.3168C96.9237 9.42761 94.7214 8.98086 92.499 9.00601C89.7974 8.95504 87.1263 9.58362 84.731 10.834C82.5105 12.0107 80.675 13.8007 79.443 15.991C78.1998 18.3333 77.5498 20.9447 77.5498 23.5965C77.5498 26.2483 78.1998 28.8597 79.443 31.202C80.673 33.3908 82.4941 35.1893 84.698 36.392C87.0525 37.6603 89.6941 38.3009 92.368 38.252C95.2305 38.2965 98.0585 37.6233 100.594 36.294L100.598 22.914Z" fill="white"/>
</svg>
