<svg width="172" height="53" viewBox="0 0 172 53" fill="none" xmlns="http://www.w3.org/2000/svg">
<path d="M0.320007 0.782013H3.24597V19.682H0.320007V0.782013Z" fill="white"/>
<path d="M21.96 5.742C22.5753 6.41669 23.0468 7.20946 23.3461 8.07211C23.6454 8.93475 23.7662 9.84924 23.701 10.76V19.684H20.89V11.084C20.982 9.85514 20.5937 8.63849 19.807 7.69C19.3988 7.29351 18.912 6.98704 18.3781 6.79034C17.8441 6.59363 17.2748 6.51106 16.707 6.548C16.0478 6.51237 15.3883 6.61218 14.7691 6.84127C14.1499 7.07036 13.5843 7.42387 13.107 7.88C12.6439 8.3964 12.2889 9.00021 12.0627 9.65591C11.8365 10.3116 11.7438 11.0059 11.79 11.698V19.686H8.98102V4.17602H11.673V6.51699C12.2563 5.70325 13.0519 5.06538 13.973 4.673C15.0129 4.22943 16.1347 4.01032 17.265 4.02999C18.1224 3.98637 18.9797 4.11545 19.7863 4.40954C20.5928 4.70363 21.332 5.15674 21.96 5.742V5.742Z" fill="white"/>
<path d="M42.336 4.17601L35.548 19.684H32.681L25.891 4.17601H28.817L34.142 16.611L39.585 4.17601H42.336Z" fill="white"/>
<path d="M58.489 12.866H45.907C45.9742 13.5065 46.1679 14.1274 46.4769 14.6925C46.7859 15.2576 47.204 15.7558 47.707 16.158C48.7939 17.0085 50.1457 17.449 51.525 17.402C52.3626 17.4348 53.1973 17.2841 53.9706 16.9606C54.7439 16.6371 55.4372 16.1485 56.002 15.529L57.552 17.343C56.8416 18.168 55.9434 18.8103 54.933 19.216C53.6683 19.6964 52.3184 19.9119 50.967 19.8489C49.6156 19.7859 48.2915 19.4459 47.077 18.85C45.8452 18.2119 44.8242 17.2311 44.137 16.026C43.4334 14.7756 43.0748 13.3606 43.098 11.926C43.0775 10.506 43.4252 9.1048 44.107 7.859C44.7527 6.67716 45.7154 5.69909 46.887 5.03499C48.106 4.35216 49.484 4.00404 50.881 4.02599C52.2691 4.00163 53.6384 4.35007 54.846 5.03499C56.0002 5.70221 56.9431 6.68088 57.567 7.859C58.2373 9.13977 58.5743 10.5687 58.547 12.014C58.5428 12.2988 58.5234 12.5832 58.489 12.866ZM47.502 7.62899C46.5869 8.46454 46.0182 9.61273 45.908 10.847H55.856C55.7379 9.61991 55.1698 8.47997 54.261 7.64699C53.3176 6.84667 52.1212 6.40621 50.8841 6.40365C49.6469 6.40108 48.4487 6.83658 47.502 7.63299V7.62899Z" fill="white"/>
<path d="M63.228 19.347C62.2368 19.093 61.3034 18.6517 60.478 18.047L61.648 15.824C62.4072 16.3478 63.2474 16.7431 64.135 16.994C65.0932 17.2838 66.0889 17.4313 67.09 17.432C69.548 17.432 70.777 16.7296 70.777 15.325C70.7856 15.1137 70.7448 14.9033 70.658 14.7105C70.5713 14.5177 70.4408 14.3477 70.277 14.214C69.9117 13.9247 69.4868 13.7198 69.033 13.614C68.5357 13.4873 67.8287 13.346 66.912 13.19C65.8771 13.0433 64.8548 12.8183 63.854 12.517C63.0758 12.2718 62.3748 11.8283 61.82 11.23C61.2175 10.5235 60.9131 9.61064 60.971 8.68399C60.9575 8.01867 61.1113 7.3606 61.4181 6.77008C61.7248 6.17956 62.1749 5.67548 62.727 5.30399C64.1227 4.39112 65.7725 3.94566 67.438 4.03198C68.4829 4.03361 69.5237 4.1612 70.538 4.41199C71.4373 4.61103 72.2976 4.95736 73.084 5.43698L71.884 7.65997C70.5441 6.82102 68.9874 6.39403 67.407 6.43198C66.4636 6.37505 65.5226 6.57735 64.686 7.01697C64.4045 7.16696 64.1689 7.39036 64.0041 7.66342C63.8393 7.93649 63.7515 8.24906 63.75 8.56799C63.7398 8.79506 63.7819 9.02144 63.8733 9.22955C63.9647 9.43767 64.1029 9.6219 64.277 9.76798C64.6579 10.0754 65.1017 10.2952 65.577 10.412C66.0937 10.5453 66.8203 10.7013 67.757 10.88C68.7802 11.0427 69.7917 11.2722 70.785 11.567C71.5407 11.8019 72.2217 12.2308 72.76 12.811C73.3407 13.4935 73.6343 14.3745 73.579 15.269C73.5923 15.935 73.4337 16.5932 73.1184 17.1801C72.8031 17.7669 72.3418 18.2625 71.779 18.619C70.3097 19.521 68.6007 19.9549 66.879 19.863C65.6437 19.8653 64.4143 19.6916 63.228 19.347V19.347Z" fill="white"/>
<path d="M85.817 18.776C85.3713 19.1469 84.8533 19.421 84.296 19.581C83.6894 19.7666 83.0584 19.8603 82.424 19.859C81.7661 19.9003 81.1065 19.8103 80.4836 19.5944C79.8608 19.3784 79.2871 19.0407 78.796 18.601C78.3461 18.1212 77.9996 17.5541 77.7781 16.9348C77.5565 16.3155 77.4646 15.6573 77.508 15.001V6.48599H74.875V4.17401H77.508V0.779999H80.317V4.17401H84.764V6.48599H80.317V14.886C80.27 15.5867 80.4953 16.2784 80.946 16.817C81.1813 17.0501 81.4635 17.2306 81.7738 17.3466C82.0841 17.4626 82.4155 17.5115 82.746 17.49C83.5408 17.5115 84.3178 17.2527 84.941 16.759L85.817 18.776Z" fill="white"/>
<path d="M113.247 5.72702C113.856 6.40774 114.322 7.20431 114.616 8.06909C114.91 8.93387 115.027 9.84908 114.959 10.76V19.684H112.15V11.084C112.241 9.86265 111.87 8.6516 111.112 7.69C110.728 7.29693 110.264 6.99141 109.752 6.79431C109.239 6.5972 108.69 6.51317 108.142 6.548C107.514 6.51753 106.887 6.62049 106.302 6.85009C105.717 7.07969 105.187 7.43071 104.748 7.88C103.848 8.94059 103.397 10.3101 103.49 11.698V19.686H100.681V11.086C100.772 9.86447 100.401 8.65333 99.642 7.69201C99.2585 7.29884 98.7946 6.99322 98.2819 6.79611C97.7693 6.59899 97.2201 6.51505 96.672 6.55001C96.0443 6.51967 95.4173 6.62267 94.8323 6.85226C94.2473 7.08185 93.7175 7.43283 93.278 7.88201C92.3785 8.94287 91.9273 10.3122 92.02 11.7V19.688H89.211V4.17602H91.903V6.492C92.4665 5.69354 93.2348 5.06173 94.127 4.66302C95.1126 4.22946 96.1805 4.01483 97.257 4.03399C98.3736 4.01257 99.4785 4.26386 100.476 4.76602C101.399 5.24042 102.154 5.98577 102.641 6.902C103.246 5.98813 104.091 5.25901 105.084 4.79501C106.186 4.27497 107.392 4.01461 108.61 4.03399C109.457 3.98948 110.304 4.11652 111.101 4.40744C111.898 4.69835 112.628 5.14719 113.247 5.72702V5.72702Z" fill="white"/>
<path d="M134.182 12.866H121.6C121.667 13.5065 121.861 14.1273 122.17 14.6924C122.479 15.2575 122.897 15.7556 123.4 16.158C124.487 17.0086 125.839 17.4491 127.218 17.402C128.055 17.4345 128.89 17.2837 129.663 16.9602C130.436 16.6366 131.128 16.1482 131.693 15.529L133.243 17.343C132.533 18.168 131.634 18.8103 130.624 19.216C129.359 19.6964 128.009 19.9119 126.658 19.8489C125.307 19.7859 123.983 19.4459 122.768 18.85C121.536 18.212 120.515 17.2312 119.828 16.026C119.124 14.7756 118.766 13.3606 118.789 11.926C118.769 10.506 119.116 9.1048 119.798 7.859C120.444 6.67716 121.406 5.69909 122.578 5.03499C123.797 4.35216 125.175 4.00404 126.572 4.02599C127.96 4.00166 129.329 4.3501 130.536 5.03499C131.691 5.70206 132.634 6.68074 133.258 7.859C133.928 9.13986 134.265 10.5687 134.238 12.014C134.234 12.2988 134.216 12.5832 134.182 12.866V12.866ZM123.193 7.62898C122.278 8.46456 121.709 9.61267 121.598 10.847H131.546C131.428 9.61996 130.86 8.48008 129.951 7.64699C129.008 6.84667 127.811 6.40621 126.574 6.40364C125.337 6.40108 124.139 6.83657 123.192 7.63298L123.193 7.62898Z" fill="white"/>
<path d="M151.109 5.74199C151.724 6.41677 152.195 7.20958 152.495 8.07222C152.794 8.93486 152.914 9.84931 152.849 10.76V19.684H150.041V11.084C150.133 9.85517 149.744 8.63864 148.958 7.68999C148.55 7.29355 148.063 6.9871 147.529 6.79039C146.995 6.59369 146.426 6.51112 145.858 6.54799C145.199 6.51237 144.539 6.61218 143.92 6.84127C143.301 7.07036 142.735 7.42386 142.258 7.87999C141.795 8.39639 141.44 9.00021 141.214 9.6559C140.988 10.3116 140.895 11.0059 140.941 11.698V19.686H138.132V4.17601H140.824V6.51699C141.407 5.70314 142.203 5.06524 143.124 4.67299C144.164 4.22943 145.286 4.01031 146.416 4.02999C147.273 3.98664 148.13 4.11585 148.936 4.40993C149.742 4.70401 150.481 5.15699 151.109 5.74199V5.74199Z" fill="white"/>
<path d="M166.775 18.776C166.329 19.1469 165.811 19.421 165.253 19.581C164.646 19.7667 164.015 19.8604 163.38 19.859C162.722 19.9004 162.062 19.8105 161.44 19.5945C160.817 19.3786 160.243 19.0408 159.752 18.601C159.302 18.1212 158.956 17.5541 158.734 16.9348C158.513 16.3155 158.421 15.6573 158.464 15.001V6.48599H155.831V4.17401H158.464V0.779999H161.275V4.17401H165.722V6.48599H161.275V14.886C161.228 15.5867 161.453 16.2785 161.904 16.817C162.139 17.0501 162.421 17.2307 162.732 17.3467C163.042 17.4627 163.373 17.5116 163.704 17.49C164.499 17.5117 165.276 17.2529 165.899 16.759L166.775 18.776Z" fill="white"/>
<path d="M14.57 27.905C15.2901 28.5742 15.8645 29.3847 16.2572 30.2859C16.65 31.187 16.8527 32.1595 16.8527 33.1425C16.8527 34.1255 16.65 35.098 16.2572 35.9991C15.8645 36.9003 15.2901 37.7108 14.57 38.38C12.774 39.7358 10.5546 40.4092 8.30798 40.28H3.24597V46.48H0.320007V26.005H8.30798C10.5546 25.876 12.7739 26.5493 14.57 27.905V27.905ZM12.464 36.551C12.9266 36.1119 13.2951 35.5832 13.5469 34.9971C13.7986 34.4111 13.9285 33.7799 13.9285 33.142C13.9285 32.5041 13.7986 31.873 13.5469 31.2869C13.2951 30.7008 12.9266 30.1721 12.464 29.733C11.2269 28.8642 9.72927 28.4459 8.22101 28.548H3.24701V37.736H8.22101C9.72735 37.8375 11.223 37.42 12.459 36.553L12.464 36.551Z" fill="white"/>
<path d="M31.175 32.413C31.7776 33.0323 32.2417 33.7725 32.5367 34.5846C32.8317 35.3968 32.9507 36.2624 32.886 37.124V46.487H30.223V44.439C29.7358 45.1769 29.0394 45.7524 28.223 46.092C27.2446 46.4937 26.1934 46.6881 25.136 46.663C23.6426 46.7389 22.1691 46.2943 20.967 45.405C20.4832 45.0043 20.0925 44.5031 19.8221 43.9361C19.5517 43.3691 19.408 42.75 19.401 42.1219C19.3941 41.4938 19.524 40.8717 19.7819 40.2989C20.0397 39.7261 20.4192 39.2163 20.894 38.805C22.2857 37.8606 23.959 37.4216 25.635 37.561H30.083V37.005C30.1167 36.4932 30.0401 35.9802 29.8584 35.5006C29.6767 35.021 29.3943 34.586 29.03 34.225C28.1555 33.5236 27.0482 33.1785 25.93 33.259C25.0139 33.2589 24.1044 33.4124 23.239 33.713C22.4259 33.9787 21.6689 34.3923 21.006 34.933L19.836 32.826C20.6884 32.1545 21.6616 31.6528 22.703 31.348C23.8508 31.0016 25.0441 30.829 26.243 30.836C28.0279 30.7136 29.7922 31.2777 31.175 32.413V32.413ZM28.38 43.78C29.1563 43.3089 29.7542 42.5935 30.08 41.746V39.581H25.749C23.369 39.581 22.179 40.381 22.179 41.981C22.1663 42.3392 22.2425 42.695 22.4008 43.0166C22.559 43.3381 22.7944 43.6155 23.086 43.824C23.8306 44.3129 24.7128 44.5489 25.602 44.497C26.5768 44.5224 27.5393 44.274 28.38 43.78Z" fill="white"/>
<path d="M42.951 31.533C44.043 31.0369 45.2341 30.7975 46.433 30.833V33.554C46.2191 33.5317 46.004 33.522 45.789 33.525C45.1297 33.4889 44.4701 33.5913 43.8528 33.8258C43.2355 34.0602 42.6742 34.4214 42.205 34.886C41.279 35.9572 40.812 37.35 40.905 38.763V46.488H38.094V30.979H40.786V33.579C41.2718 32.6842 42.0302 31.9675 42.951 31.533V31.533Z" fill="white"/>
<path d="M59.245 45.58C58.7986 45.9486 58.2807 46.221 57.724 46.38C57.117 46.5657 56.4857 46.6594 55.851 46.658C55.1931 46.6994 54.5334 46.6095 53.9106 46.3935C53.2877 46.1775 52.7141 45.8398 52.223 45.4C51.7731 44.9202 51.4266 44.3531 51.2051 43.7338C50.9835 43.1145 50.8916 42.4563 50.935 41.8V33.285H48.305V30.974H50.938V27.585H53.745V30.979H58.193V33.29H53.745V41.69C53.6977 42.3907 53.9231 43.0826 54.374 43.621C54.6094 43.8541 54.8915 44.0346 55.2018 44.1506C55.5121 44.2666 55.8434 44.3155 56.174 44.294C56.9685 44.3155 57.7451 44.0567 58.368 43.563L59.245 45.58Z" fill="white"/>
<path d="M75.619 32.545C76.2342 33.2197 76.7057 34.0125 77.005 34.8751C77.3043 35.7378 77.4251 36.6522 77.36 37.563V46.487H74.551V37.887C74.6428 36.6581 74.2546 35.4415 73.468 34.493C73.0597 34.0968 72.5729 33.7906 72.0389 33.594C71.505 33.3975 70.9358 33.3151 70.368 33.352C69.7089 33.3164 69.0494 33.4161 68.4303 33.645C67.8111 33.8739 67.2454 34.2271 66.768 34.683C66.3049 35.1994 65.9498 35.8032 65.7237 36.4589C65.4975 37.1146 65.4048 37.8089 65.451 38.501V46.489H62.642V30.979H65.334V33.32C65.9172 32.5064 66.7128 31.8688 67.634 31.477C68.6738 31.0331 69.7956 30.8136 70.926 30.833C71.783 30.7896 72.64 30.9188 73.4462 31.2128C74.2524 31.5069 74.9912 31.9599 75.619 32.545Z" fill="white"/>
<path d="M96.613 39.669H84.031C84.0985 40.3095 84.2923 40.9302 84.6013 41.4953C84.9102 42.0604 85.3282 42.5586 85.831 42.961C86.9179 43.8116 88.2697 44.2521 89.649 44.205C90.4866 44.2378 91.3213 44.0871 92.0946 43.7636C92.8679 43.4401 93.5612 42.9515 94.126 42.332L95.676 44.146C94.9658 44.9712 94.0675 45.6136 93.057 46.019C91.7923 46.4994 90.4424 46.7149 89.091 46.6519C87.7396 46.5889 86.4155 46.2489 85.201 45.653C83.9709 45.0154 82.951 44.0362 82.264 42.833C81.5604 41.5826 81.2018 40.1676 81.225 38.733C81.2044 37.3129 81.5521 35.9118 82.234 34.666C82.8795 33.4841 83.8423 32.506 85.014 31.842C86.233 31.1592 87.611 30.8111 89.008 30.833C90.3958 30.8087 91.7647 31.1571 92.972 31.842C94.1265 32.5091 95.0699 33.4878 95.694 34.666C96.3643 35.9468 96.7013 37.3757 96.674 38.821C96.6687 39.1045 96.6483 39.3876 96.613 39.669V39.669ZM85.626 34.433C84.7105 35.2688 84.1414 36.4173 84.031 37.652H93.979C93.8608 36.425 93.2926 35.2851 92.384 34.452C91.4406 33.6517 90.2444 33.2112 89.0073 33.2085C87.7702 33.2057 86.572 33.6409 85.625 34.437L85.626 34.433Z" fill="white"/>
<path d="M105.419 31.533C106.511 31.0371 107.701 30.7976 108.9 30.833V33.554C108.686 33.5317 108.472 33.522 108.257 33.525C107.598 33.4888 106.938 33.5912 106.32 33.8256C105.703 34.0601 105.141 34.4213 104.672 34.886C103.746 35.9573 103.279 37.35 103.372 38.763V46.488H100.563V30.979H103.255V33.579C103.741 32.6844 104.499 31.9677 105.419 31.533V31.533Z" fill="white"/>
<path d="M113.261 46.15C112.27 45.8959 111.336 45.4546 110.511 44.85L111.681 42.626C112.44 43.1501 113.28 43.5454 114.168 43.796C115.126 44.0861 116.122 44.234 117.123 44.235C119.581 44.235 120.81 43.5327 120.809 42.128C120.817 41.9166 120.777 41.7061 120.69 41.5131C120.603 41.3201 120.473 41.15 120.309 41.016C119.943 40.727 119.519 40.5221 119.065 40.416C118.567 40.2893 117.86 40.148 116.943 39.992C115.909 39.8448 114.887 39.6198 113.886 39.319C113.108 39.0734 112.407 38.6299 111.852 38.032C111.249 37.3256 110.945 36.4127 111.003 35.486C110.989 34.8208 111.143 34.1627 111.45 33.5722C111.756 32.9817 112.206 32.4776 112.758 32.106C114.154 31.1928 115.803 30.747 117.469 30.833C118.514 30.8344 119.555 30.962 120.569 31.213C121.468 31.4116 122.329 31.7576 123.115 32.237L121.915 34.461C120.575 33.6215 119.018 33.1942 117.438 33.232C116.495 33.175 115.554 33.3773 114.717 33.817C114.435 33.9669 114.2 34.1902 114.035 34.4633C113.87 34.7364 113.782 35.049 113.781 35.368C113.771 35.5951 113.813 35.8215 113.904 36.0296C113.996 36.2378 114.134 36.422 114.308 36.568C114.689 36.8757 115.133 37.0956 115.608 37.212C116.125 37.3493 116.851 37.5053 117.788 37.68C118.811 37.8433 119.823 38.0732 120.816 38.368C121.572 38.6028 122.253 39.0318 122.791 39.612C123.372 40.2944 123.666 41.1754 123.611 42.07C123.624 42.736 123.465 43.3941 123.15 43.9809C122.835 44.5677 122.374 45.0633 121.811 45.42C120.342 46.322 118.633 46.7559 116.911 46.664C115.676 46.667 114.447 46.4939 113.261 46.15V46.15Z" fill="white"/>
<path d="M140.107 32.544C140.722 33.2188 141.193 34.0116 141.493 34.8742C141.792 35.7369 141.912 36.6513 141.847 37.562V46.486H139.038V37.886C139.13 36.6571 138.742 35.4405 137.955 34.492C137.547 34.0958 137.06 33.7895 136.526 33.593C135.992 33.3965 135.423 33.314 134.855 33.351C134.196 33.3153 133.536 33.415 132.917 33.644C132.298 33.8729 131.732 34.2261 131.255 34.682C130.792 35.1984 130.437 35.8022 130.211 36.4579C129.985 37.1136 129.892 37.8079 129.938 38.5V46.488H127.133V24.776H129.942V33.176C130.552 32.4167 131.343 31.8231 132.242 31.45C133.247 31.0289 134.328 30.8199 135.417 30.836C136.273 30.7925 137.129 30.9213 137.935 31.2147C138.741 31.508 139.479 31.9601 140.107 32.544Z" fill="white"/>
<path d="M147.099 27.468C146.924 27.3029 146.786 27.1032 146.693 26.8816C146.599 26.66 146.554 26.4214 146.558 26.181C146.555 25.9389 146.601 25.6986 146.694 25.475C146.787 25.2515 146.925 25.0493 147.099 24.881C147.277 24.7027 147.489 24.5628 147.724 24.4697C147.958 24.3767 148.208 24.3326 148.46 24.34C148.964 24.324 149.453 24.5081 149.821 24.852C149.996 25.0137 150.135 25.2108 150.228 25.4303C150.322 25.6498 150.367 25.8866 150.362 26.125C150.367 26.372 150.322 26.6176 150.229 26.8465C150.136 27.0754 149.997 27.2828 149.821 27.456C149.643 27.6343 149.431 27.7743 149.196 27.8673C148.962 27.9604 148.712 28.0045 148.46 27.997C148.209 28.0044 147.96 27.9614 147.726 27.8706C147.492 27.7797 147.279 27.6428 147.099 27.468ZM147.056 30.979H149.864V46.487H147.056V30.979Z" fill="white"/>
<path d="M167.479 31.828C168.652 32.4751 169.62 33.4382 170.273 34.608C170.936 35.8847 171.283 37.3023 171.283 38.741C171.283 40.1797 170.936 41.5973 170.273 42.874C169.624 44.05 168.655 45.0185 167.479 45.668C166.242 46.3434 164.85 46.6863 163.441 46.663C162.387 46.6753 161.343 46.4554 160.383 46.019C159.459 45.5922 158.652 44.9498 158.028 44.146V52.163H155.222V30.979H157.914V33.433C158.521 32.5888 159.338 31.9179 160.284 31.487C161.277 31.0403 162.355 30.8158 163.444 30.829C164.853 30.8079 166.243 31.1521 167.479 31.828V31.828ZM165.884 43.517C166.674 43.0583 167.323 42.3901 167.757 41.586C168.209 40.7029 168.445 39.725 168.445 38.733C168.445 37.7409 168.209 36.7631 167.757 35.88C167.325 35.078 166.676 34.4138 165.884 33.963C165.066 33.5073 164.143 33.2751 163.207 33.29C162.279 33.2778 161.364 33.5155 160.559 33.978C159.771 34.4339 159.123 35.0969 158.686 35.895C158.215 36.7654 157.978 37.7434 157.998 38.733C157.978 39.7255 158.21 40.7069 158.671 41.586C159.099 42.3945 159.749 43.0642 160.544 43.517C161.362 43.968 162.28 44.2045 163.214 44.2045C164.148 44.2045 165.066 43.968 165.884 43.517V43.517Z" fill="white"/>
</svg>
